<?xml version="1.0" encoding="utf-8" standalone="no"?>
<!DOCTYPE svg PUBLIC "-//W3C//DTD SVG 1.1//EN"
  "http://www.w3.org/Graphics/SVG/1.1/DTD/svg11.dtd">
<!-- Created with matplotlib (https://matplotlib.org/) -->
<svg height="576pt" version="1.1" viewBox="0 0 1080 576" width="1080pt" xmlns="http://www.w3.org/2000/svg" xmlns:xlink="http://www.w3.org/1999/xlink">
 <defs>
  <style type="text/css">
*{stroke-linecap:butt;stroke-linejoin:round;}
  </style>
 </defs>
 <g id="figure_1">
  <g id="patch_1">
   <path d="M 0 576 
L 1080 576 
L 1080 0 
L 0 0 
z
" style="fill:#ffffff;"/>
  </g>
  <g id="axes_1">
   <g id="patch_2">
    <path d="M 54.6575 262.126719 
L 1007.651875 262.126719 
L 1007.651875 16.46 
L 54.6575 16.46 
z
" style="fill:#ffffff;"/>
   </g>
   <g id="matplotlib.axis_1">
    <g id="xtick_1">
     <g id="line2d_1">
      <path clip-path="url(#pb4a4be538b)" d="M 54.6575 262.126719 
L 54.6575 16.46 
" style="fill:none;stroke:#cccccc;stroke-dasharray:0.8,1.32;stroke-dashoffset:0;stroke-width:0.8;"/>
     </g>
     <g id="line2d_2">
      <defs>
       <path d="M 0 0 
L 0 3.5 
" id="m9a3956997f" style="stroke:#000000;stroke-width:0.8;"/>
      </defs>
      <g>
       <use style="stroke:#000000;stroke-width:0.8;" x="54.6575" xlink:href="#m9a3956997f" y="262.126719"/>
      </g>
     </g>
    </g>
    <g id="xtick_2">
     <g id="line2d_3">
      <path clip-path="url(#pb4a4be538b)" d="M 190.799554 262.126719 
L 190.799554 16.46 
" style="fill:none;stroke:#cccccc;stroke-dasharray:0.8,1.32;stroke-dashoffset:0;stroke-width:0.8;"/>
     </g>
     <g id="line2d_4">
      <g>
       <use style="stroke:#000000;stroke-width:0.8;" x="190.799554" xlink:href="#m9a3956997f" y="262.126719"/>
      </g>
     </g>
    </g>
    <g id="xtick_3">
     <g id="line2d_5">
      <path clip-path="url(#pb4a4be538b)" d="M 326.941607 262.126719 
L 326.941607 16.46 
" style="fill:none;stroke:#cccccc;stroke-dasharray:0.8,1.32;stroke-dashoffset:0;stroke-width:0.8;"/>
     </g>
     <g id="line2d_6">
      <g>
       <use style="stroke:#000000;stroke-width:0.8;" x="326.941607" xlink:href="#m9a3956997f" y="262.126719"/>
      </g>
     </g>
    </g>
    <g id="xtick_4">
     <g id="line2d_7">
      <path clip-path="url(#pb4a4be538b)" d="M 463.083661 262.126719 
L 463.083661 16.46 
" style="fill:none;stroke:#cccccc;stroke-dasharray:0.8,1.32;stroke-dashoffset:0;stroke-width:0.8;"/>
     </g>
     <g id="line2d_8">
      <g>
       <use style="stroke:#000000;stroke-width:0.8;" x="463.083661" xlink:href="#m9a3956997f" y="262.126719"/>
      </g>
     </g>
    </g>
    <g id="xtick_5">
     <g id="line2d_9">
      <path clip-path="url(#pb4a4be538b)" d="M 599.225714 262.126719 
L 599.225714 16.46 
" style="fill:none;stroke:#cccccc;stroke-dasharray:0.8,1.32;stroke-dashoffset:0;stroke-width:0.8;"/>
     </g>
     <g id="line2d_10">
      <g>
       <use style="stroke:#000000;stroke-width:0.8;" x="599.225714" xlink:href="#m9a3956997f" y="262.126719"/>
      </g>
     </g>
    </g>
    <g id="xtick_6">
     <g id="line2d_11">
      <path clip-path="url(#pb4a4be538b)" d="M 735.367768 262.126719 
L 735.367768 16.46 
" style="fill:none;stroke:#cccccc;stroke-dasharray:0.8,1.32;stroke-dashoffset:0;stroke-width:0.8;"/>
     </g>
     <g id="line2d_12">
      <g>
       <use style="stroke:#000000;stroke-width:0.8;" x="735.367768" xlink:href="#m9a3956997f" y="262.126719"/>
      </g>
     </g>
    </g>
    <g id="xtick_7">
     <g id="line2d_13">
      <path clip-path="url(#pb4a4be538b)" d="M 871.509821 262.126719 
L 871.509821 16.46 
" style="fill:none;stroke:#cccccc;stroke-dasharray:0.8,1.32;stroke-dashoffset:0;stroke-width:0.8;"/>
     </g>
     <g id="line2d_14">
      <g>
       <use style="stroke:#000000;stroke-width:0.8;" x="871.509821" xlink:href="#m9a3956997f" y="262.126719"/>
      </g>
     </g>
    </g>
    <g id="xtick_8">
     <g id="line2d_15">
      <path clip-path="url(#pb4a4be538b)" d="M 1007.651875 262.126719 
L 1007.651875 16.46 
" style="fill:none;stroke:#cccccc;stroke-dasharray:0.8,1.32;stroke-dashoffset:0;stroke-width:0.8;"/>
     </g>
     <g id="line2d_16">
      <g>
       <use style="stroke:#000000;stroke-width:0.8;" x="1007.651875" xlink:href="#m9a3956997f" y="262.126719"/>
      </g>
     </g>
    </g>
    <g id="xtick_9">
     <g id="line2d_17">
      <defs>
       <path d="M 0 0 
L 0 2 
" id="m6e5be577c8" style="stroke:#000000;stroke-width:0.6;"/>
      </defs>
      <g>
       <use style="stroke:#000000;stroke-width:0.6;" x="122.728527" xlink:href="#m6e5be577c8" y="262.126719"/>
      </g>
     </g>
    </g>
    <g id="xtick_10">
     <g id="line2d_18">
      <g>
       <use style="stroke:#000000;stroke-width:0.6;" x="258.87058" xlink:href="#m6e5be577c8" y="262.126719"/>
      </g>
     </g>
    </g>
    <g id="xtick_11">
     <g id="line2d_19">
      <g>
       <use style="stroke:#000000;stroke-width:0.6;" x="395.012634" xlink:href="#m6e5be577c8" y="262.126719"/>
      </g>
     </g>
    </g>
    <g id="xtick_12">
     <g id="line2d_20">
      <g>
       <use style="stroke:#000000;stroke-width:0.6;" x="531.154687" xlink:href="#m6e5be577c8" y="262.126719"/>
      </g>
     </g>
    </g>
    <g id="xtick_13">
     <g id="line2d_21">
      <g>
       <use style="stroke:#000000;stroke-width:0.6;" x="667.296741" xlink:href="#m6e5be577c8" y="262.126719"/>
      </g>
     </g>
    </g>
    <g id="xtick_14">
     <g id="line2d_22">
      <g>
       <use style="stroke:#000000;stroke-width:0.6;" x="803.438795" xlink:href="#m6e5be577c8" y="262.126719"/>
      </g>
     </g>
    </g>
    <g id="xtick_15">
     <g id="line2d_23">
      <g>
       <use style="stroke:#000000;stroke-width:0.6;" x="939.580848" xlink:href="#m6e5be577c8" y="262.126719"/>
      </g>
     </g>
    </g>
   </g>
   <g id="matplotlib.axis_2">
    <g id="ytick_1">
     <g id="line2d_24">
      <path clip-path="url(#pb4a4be538b)" d="M 54.6575 250.96005 
L 1007.651875 250.96005 
" style="fill:none;stroke:#cccccc;stroke-dasharray:0.8,1.32;stroke-dashoffset:0;stroke-width:0.8;"/>
     </g>
     <g id="line2d_25">
      <defs>
       <path d="M 0 0 
L -3.5 0 
" id="m537bbedda3" style="stroke:#000000;stroke-width:0.8;"/>
      </defs>
      <g>
       <use style="stroke:#000000;stroke-width:0.8;" x="54.6575" xlink:href="#m537bbedda3" y="250.96005"/>
      </g>
     </g>
     <g id="text_1">
      <!-- 0 -->
      <defs>
       <path d="M 31.78125 66.40625 
Q 24.171875 66.40625 20.328125 58.90625 
Q 16.5 51.421875 16.5 36.375 
Q 16.5 21.390625 20.328125 13.890625 
Q 24.171875 6.390625 31.78125 6.390625 
Q 39.453125 6.390625 43.28125 13.890625 
Q 47.125 21.390625 47.125 36.375 
Q 47.125 51.421875 43.28125 58.90625 
Q 39.453125 66.40625 31.78125 66.40625 
z
M 31.78125 74.21875 
Q 44.046875 74.21875 50.515625 64.515625 
Q 56.984375 54.828125 56.984375 36.375 
Q 56.984375 17.96875 50.515625 8.265625 
Q 44.046875 -1.421875 31.78125 -1.421875 
Q 19.53125 -1.421875 13.0625 8.265625 
Q 6.59375 17.96875 6.59375 36.375 
Q 6.59375 54.828125 13.0625 64.515625 
Q 19.53125 74.21875 31.78125 74.21875 
z
" id="DejaVuSans-48"/>
      </defs>
      <g transform="translate(40.0225 255.519112)scale(0.12 -0.12)">
       <use xlink:href="#DejaVuSans-48"/>
      </g>
     </g>
    </g>
    <g id="ytick_2">
     <g id="line2d_26">
      <path clip-path="url(#pb4a4be538b)" d="M 54.6575 198.16256 
L 1007.651875 198.16256 
" style="fill:none;stroke:#cccccc;stroke-dasharray:0.8,1.32;stroke-dashoffset:0;stroke-width:0.8;"/>
     </g>
     <g id="line2d_27">
      <g>
       <use style="stroke:#000000;stroke-width:0.8;" x="54.6575" xlink:href="#m537bbedda3" y="198.16256"/>
      </g>
     </g>
     <g id="text_2">
      <!-- 2 -->
      <defs>
       <path d="M 19.1875 8.296875 
L 53.609375 8.296875 
L 53.609375 0 
L 7.328125 0 
L 7.328125 8.296875 
Q 12.9375 14.109375 22.625 23.890625 
Q 32.328125 33.6875 34.8125 36.53125 
Q 39.546875 41.84375 41.421875 45.53125 
Q 43.3125 49.21875 43.3125 52.78125 
Q 43.3125 58.59375 39.234375 62.25 
Q 35.15625 65.921875 28.609375 65.921875 
Q 23.96875 65.921875 18.8125 64.3125 
Q 13.671875 62.703125 7.8125 59.421875 
L 7.8125 69.390625 
Q 13.765625 71.78125 18.9375 73 
Q 24.125 74.21875 28.421875 74.21875 
Q 39.75 74.21875 46.484375 68.546875 
Q 53.21875 62.890625 53.21875 53.421875 
Q 53.21875 48.921875 51.53125 44.890625 
Q 49.859375 40.875 45.40625 35.40625 
Q 44.1875 33.984375 37.640625 27.21875 
Q 31.109375 20.453125 19.1875 8.296875 
z
" id="DejaVuSans-50"/>
      </defs>
      <g transform="translate(40.0225 202.721623)scale(0.12 -0.12)">
       <use xlink:href="#DejaVuSans-50"/>
      </g>
     </g>
    </g>
    <g id="ytick_3">
     <g id="line2d_28">
      <path clip-path="url(#pb4a4be538b)" d="M 54.6575 145.365071 
L 1007.651875 145.365071 
" style="fill:none;stroke:#cccccc;stroke-dasharray:0.8,1.32;stroke-dashoffset:0;stroke-width:0.8;"/>
     </g>
     <g id="line2d_29">
      <g>
       <use style="stroke:#000000;stroke-width:0.8;" x="54.6575" xlink:href="#m537bbedda3" y="145.365071"/>
      </g>
     </g>
     <g id="text_3">
      <!-- 4 -->
      <defs>
       <path d="M 37.796875 64.3125 
L 12.890625 25.390625 
L 37.796875 25.390625 
z
M 35.203125 72.90625 
L 47.609375 72.90625 
L 47.609375 25.390625 
L 58.015625 25.390625 
L 58.015625 17.1875 
L 47.609375 17.1875 
L 47.609375 0 
L 37.796875 0 
L 37.796875 17.1875 
L 4.890625 17.1875 
L 4.890625 26.703125 
z
" id="DejaVuSans-52"/>
      </defs>
      <g transform="translate(40.0225 149.924133)scale(0.12 -0.12)">
       <use xlink:href="#DejaVuSans-52"/>
      </g>
     </g>
    </g>
    <g id="ytick_4">
     <g id="line2d_30">
      <path clip-path="url(#pb4a4be538b)" d="M 54.6575 92.567581 
L 1007.651875 92.567581 
" style="fill:none;stroke:#cccccc;stroke-dasharray:0.8,1.32;stroke-dashoffset:0;stroke-width:0.8;"/>
     </g>
     <g id="line2d_31">
      <g>
       <use style="stroke:#000000;stroke-width:0.8;" x="54.6575" xlink:href="#m537bbedda3" y="92.567581"/>
      </g>
     </g>
     <g id="text_4">
      <!-- 6 -->
      <defs>
       <path d="M 33.015625 40.375 
Q 26.375 40.375 22.484375 35.828125 
Q 18.609375 31.296875 18.609375 23.390625 
Q 18.609375 15.53125 22.484375 10.953125 
Q 26.375 6.390625 33.015625 6.390625 
Q 39.65625 6.390625 43.53125 10.953125 
Q 47.40625 15.53125 47.40625 23.390625 
Q 47.40625 31.296875 43.53125 35.828125 
Q 39.65625 40.375 33.015625 40.375 
z
M 52.59375 71.296875 
L 52.59375 62.3125 
Q 48.875 64.0625 45.09375 64.984375 
Q 41.3125 65.921875 37.59375 65.921875 
Q 27.828125 65.921875 22.671875 59.328125 
Q 17.53125 52.734375 16.796875 39.40625 
Q 19.671875 43.65625 24.015625 45.921875 
Q 28.375 48.1875 33.59375 48.1875 
Q 44.578125 48.1875 50.953125 41.515625 
Q 57.328125 34.859375 57.328125 23.390625 
Q 57.328125 12.15625 50.6875 5.359375 
Q 44.046875 -1.421875 33.015625 -1.421875 
Q 20.359375 -1.421875 13.671875 8.265625 
Q 6.984375 17.96875 6.984375 36.375 
Q 6.984375 53.65625 15.1875 63.9375 
Q 23.390625 74.21875 37.203125 74.21875 
Q 40.921875 74.21875 44.703125 73.484375 
Q 48.484375 72.75 52.59375 71.296875 
z
" id="DejaVuSans-54"/>
      </defs>
      <g transform="translate(40.0225 97.126644)scale(0.12 -0.12)">
       <use xlink:href="#DejaVuSans-54"/>
      </g>
     </g>
    </g>
    <g id="ytick_5">
     <g id="line2d_32">
      <path clip-path="url(#pb4a4be538b)" d="M 54.6575 39.770092 
L 1007.651875 39.770092 
" style="fill:none;stroke:#cccccc;stroke-dasharray:0.8,1.32;stroke-dashoffset:0;stroke-width:0.8;"/>
     </g>
     <g id="line2d_33">
      <g>
       <use style="stroke:#000000;stroke-width:0.8;" x="54.6575" xlink:href="#m537bbedda3" y="39.770092"/>
      </g>
     </g>
     <g id="text_5">
      <!-- 8 -->
      <defs>
       <path d="M 31.78125 34.625 
Q 24.75 34.625 20.71875 30.859375 
Q 16.703125 27.09375 16.703125 20.515625 
Q 16.703125 13.921875 20.71875 10.15625 
Q 24.75 6.390625 31.78125 6.390625 
Q 38.8125 6.390625 42.859375 10.171875 
Q 46.921875 13.96875 46.921875 20.515625 
Q 46.921875 27.09375 42.890625 30.859375 
Q 38.875 34.625 31.78125 34.625 
z
M 21.921875 38.8125 
Q 15.578125 40.375 12.03125 44.71875 
Q 8.5 49.078125 8.5 55.328125 
Q 8.5 64.0625 14.71875 69.140625 
Q 20.953125 74.21875 31.78125 74.21875 
Q 42.671875 74.21875 48.875 69.140625 
Q 55.078125 64.0625 55.078125 55.328125 
Q 55.078125 49.078125 51.53125 44.71875 
Q 48 40.375 41.703125 38.8125 
Q 48.828125 37.15625 52.796875 32.3125 
Q 56.78125 27.484375 56.78125 20.515625 
Q 56.78125 9.90625 50.3125 4.234375 
Q 43.84375 -1.421875 31.78125 -1.421875 
Q 19.734375 -1.421875 13.25 4.234375 
Q 6.78125 9.90625 6.78125 20.515625 
Q 6.78125 27.484375 10.78125 32.3125 
Q 14.796875 37.15625 21.921875 38.8125 
z
M 18.3125 54.390625 
Q 18.3125 48.734375 21.84375 45.5625 
Q 25.390625 42.390625 31.78125 42.390625 
Q 38.140625 42.390625 41.71875 45.5625 
Q 45.3125 48.734375 45.3125 54.390625 
Q 45.3125 60.0625 41.71875 63.234375 
Q 38.140625 66.40625 31.78125 66.40625 
Q 25.390625 66.40625 21.84375 63.234375 
Q 18.3125 60.0625 18.3125 54.390625 
z
" id="DejaVuSans-56"/>
      </defs>
      <g transform="translate(40.0225 44.329154)scale(0.12 -0.12)">
       <use xlink:href="#DejaVuSans-56"/>
      </g>
     </g>
    </g>
    <g id="text_6">
     <!-- temperature [$^{\circ}$C] -->
     <defs>
      <path d="M 18.3125 70.21875 
L 18.3125 54.6875 
L 36.8125 54.6875 
L 36.8125 47.703125 
L 18.3125 47.703125 
L 18.3125 18.015625 
Q 18.3125 11.328125 20.140625 9.421875 
Q 21.96875 7.515625 27.59375 7.515625 
L 36.8125 7.515625 
L 36.8125 0 
L 27.59375 0 
Q 17.1875 0 13.234375 3.875 
Q 9.28125 7.765625 9.28125 18.015625 
L 9.28125 47.703125 
L 2.6875 47.703125 
L 2.6875 54.6875 
L 9.28125 54.6875 
L 9.28125 70.21875 
z
" id="DejaVuSans-116"/>
      <path d="M 56.203125 29.59375 
L 56.203125 25.203125 
L 14.890625 25.203125 
Q 15.484375 15.921875 20.484375 11.0625 
Q 25.484375 6.203125 34.421875 6.203125 
Q 39.59375 6.203125 44.453125 7.46875 
Q 49.3125 8.734375 54.109375 11.28125 
L 54.109375 2.78125 
Q 49.265625 0.734375 44.1875 -0.34375 
Q 39.109375 -1.421875 33.890625 -1.421875 
Q 20.796875 -1.421875 13.15625 6.1875 
Q 5.515625 13.8125 5.515625 26.8125 
Q 5.515625 40.234375 12.765625 48.109375 
Q 20.015625 56 32.328125 56 
Q 43.359375 56 49.78125 48.890625 
Q 56.203125 41.796875 56.203125 29.59375 
z
M 47.21875 32.234375 
Q 47.125 39.59375 43.09375 43.984375 
Q 39.0625 48.390625 32.421875 48.390625 
Q 24.90625 48.390625 20.390625 44.140625 
Q 15.875 39.890625 15.1875 32.171875 
z
" id="DejaVuSans-101"/>
      <path d="M 52 44.1875 
Q 55.375 50.25 60.0625 53.125 
Q 64.75 56 71.09375 56 
Q 79.640625 56 84.28125 50.015625 
Q 88.921875 44.046875 88.921875 33.015625 
L 88.921875 0 
L 79.890625 0 
L 79.890625 32.71875 
Q 79.890625 40.578125 77.09375 44.375 
Q 74.3125 48.1875 68.609375 48.1875 
Q 61.625 48.1875 57.5625 43.546875 
Q 53.515625 38.921875 53.515625 30.90625 
L 53.515625 0 
L 44.484375 0 
L 44.484375 32.71875 
Q 44.484375 40.625 41.703125 44.40625 
Q 38.921875 48.1875 33.109375 48.1875 
Q 26.21875 48.1875 22.15625 43.53125 
Q 18.109375 38.875 18.109375 30.90625 
L 18.109375 0 
L 9.078125 0 
L 9.078125 54.6875 
L 18.109375 54.6875 
L 18.109375 46.1875 
Q 21.1875 51.21875 25.484375 53.609375 
Q 29.78125 56 35.6875 56 
Q 41.65625 56 45.828125 52.96875 
Q 50 49.953125 52 44.1875 
z
" id="DejaVuSans-109"/>
      <path d="M 18.109375 8.203125 
L 18.109375 -20.796875 
L 9.078125 -20.796875 
L 9.078125 54.6875 
L 18.109375 54.6875 
L 18.109375 46.390625 
Q 20.953125 51.265625 25.265625 53.625 
Q 29.59375 56 35.59375 56 
Q 45.5625 56 51.78125 48.09375 
Q 58.015625 40.1875 58.015625 27.296875 
Q 58.015625 14.40625 51.78125 6.484375 
Q 45.5625 -1.421875 35.59375 -1.421875 
Q 29.59375 -1.421875 25.265625 0.953125 
Q 20.953125 3.328125 18.109375 8.203125 
z
M 48.6875 27.296875 
Q 48.6875 37.203125 44.609375 42.84375 
Q 40.53125 48.484375 33.40625 48.484375 
Q 26.265625 48.484375 22.1875 42.84375 
Q 18.109375 37.203125 18.109375 27.296875 
Q 18.109375 17.390625 22.1875 11.75 
Q 26.265625 6.109375 33.40625 6.109375 
Q 40.53125 6.109375 44.609375 11.75 
Q 48.6875 17.390625 48.6875 27.296875 
z
" id="DejaVuSans-112"/>
      <path d="M 41.109375 46.296875 
Q 39.59375 47.171875 37.8125 47.578125 
Q 36.03125 48 33.890625 48 
Q 26.265625 48 22.1875 43.046875 
Q 18.109375 38.09375 18.109375 28.8125 
L 18.109375 0 
L 9.078125 0 
L 9.078125 54.6875 
L 18.109375 54.6875 
L 18.109375 46.1875 
Q 20.953125 51.171875 25.484375 53.578125 
Q 30.03125 56 36.53125 56 
Q 37.453125 56 38.578125 55.875 
Q 39.703125 55.765625 41.0625 55.515625 
z
" id="DejaVuSans-114"/>
      <path d="M 34.28125 27.484375 
Q 23.390625 27.484375 19.1875 25 
Q 14.984375 22.515625 14.984375 16.5 
Q 14.984375 11.71875 18.140625 8.90625 
Q 21.296875 6.109375 26.703125 6.109375 
Q 34.1875 6.109375 38.703125 11.40625 
Q 43.21875 16.703125 43.21875 25.484375 
L 43.21875 27.484375 
z
M 52.203125 31.203125 
L 52.203125 0 
L 43.21875 0 
L 43.21875 8.296875 
Q 40.140625 3.328125 35.546875 0.953125 
Q 30.953125 -1.421875 24.3125 -1.421875 
Q 15.921875 -1.421875 10.953125 3.296875 
Q 6 8.015625 6 15.921875 
Q 6 25.140625 12.171875 29.828125 
Q 18.359375 34.515625 30.609375 34.515625 
L 43.21875 34.515625 
L 43.21875 35.40625 
Q 43.21875 41.609375 39.140625 45 
Q 35.0625 48.390625 27.6875 48.390625 
Q 23 48.390625 18.546875 47.265625 
Q 14.109375 46.140625 10.015625 43.890625 
L 10.015625 52.203125 
Q 14.9375 54.109375 19.578125 55.046875 
Q 24.21875 56 28.609375 56 
Q 40.484375 56 46.34375 49.84375 
Q 52.203125 43.703125 52.203125 31.203125 
z
" id="DejaVuSans-97"/>
      <path d="M 8.5 21.578125 
L 8.5 54.6875 
L 17.484375 54.6875 
L 17.484375 21.921875 
Q 17.484375 14.15625 20.5 10.265625 
Q 23.53125 6.390625 29.59375 6.390625 
Q 36.859375 6.390625 41.078125 11.03125 
Q 45.3125 15.671875 45.3125 23.6875 
L 45.3125 54.6875 
L 54.296875 54.6875 
L 54.296875 0 
L 45.3125 0 
L 45.3125 8.40625 
Q 42.046875 3.421875 37.71875 1 
Q 33.40625 -1.421875 27.6875 -1.421875 
Q 18.265625 -1.421875 13.375 4.4375 
Q 8.5 10.296875 8.5 21.578125 
z
M 31.109375 56 
z
" id="DejaVuSans-117"/>
      <path id="DejaVuSans-32"/>
      <path d="M 8.59375 75.984375 
L 29.296875 75.984375 
L 29.296875 69 
L 17.578125 69 
L 17.578125 -6.203125 
L 29.296875 -6.203125 
L 29.296875 -13.1875 
L 8.59375 -13.1875 
z
" id="DejaVuSans-91"/>
      <path d="M 31.296875 40.671875 
Q 27.390625 40.671875 24.703125 37.953125 
Q 22.015625 35.25 22.015625 31.34375 
Q 22.015625 27.484375 24.703125 24.828125 
Q 27.390625 22.171875 31.296875 22.171875 
Q 35.203125 22.171875 37.890625 24.828125 
Q 40.578125 27.484375 40.578125 31.34375 
Q 40.578125 35.203125 37.859375 37.9375 
Q 35.15625 40.671875 31.296875 40.671875 
z
M 31.296875 46.96875 
Q 34.421875 46.96875 37.296875 45.765625 
Q 40.1875 44.578125 42.28125 42.328125 
Q 44.53125 40.140625 45.65625 37.34375 
Q 46.78125 34.5625 46.78125 31.34375 
Q 46.78125 24.90625 42.265625 20.4375 
Q 37.75 15.96875 31.203125 15.96875 
Q 24.609375 15.96875 20.21875 20.359375 
Q 15.828125 24.75 15.828125 31.34375 
Q 15.828125 37.890625 20.3125 42.421875 
Q 24.8125 46.96875 31.296875 46.96875 
z
" id="DejaVuSans-8728"/>
      <path d="M 64.40625 67.28125 
L 64.40625 56.890625 
Q 59.421875 61.53125 53.78125 63.8125 
Q 48.140625 66.109375 41.796875 66.109375 
Q 29.296875 66.109375 22.65625 58.46875 
Q 16.015625 50.828125 16.015625 36.375 
Q 16.015625 21.96875 22.65625 14.328125 
Q 29.296875 6.6875 41.796875 6.6875 
Q 48.140625 6.6875 53.78125 8.984375 
Q 59.421875 11.28125 64.40625 15.921875 
L 64.40625 5.609375 
Q 59.234375 2.09375 53.4375 0.328125 
Q 47.65625 -1.421875 41.21875 -1.421875 
Q 24.65625 -1.421875 15.125 8.703125 
Q 5.609375 18.84375 5.609375 36.375 
Q 5.609375 53.953125 15.125 64.078125 
Q 24.65625 74.21875 41.21875 74.21875 
Q 47.75 74.21875 53.53125 72.484375 
Q 59.328125 70.75 64.40625 67.28125 
z
" id="DejaVuSans-67"/>
      <path d="M 30.421875 75.984375 
L 30.421875 -13.1875 
L 9.71875 -13.1875 
L 9.71875 -6.203125 
L 21.390625 -6.203125 
L 21.390625 69 
L 9.71875 69 
L 9.71875 75.984375 
z
" id="DejaVuSans-93"/>
     </defs>
     <g transform="translate(33.5025 190.773359)rotate(-90)scale(0.12 -0.12)">
      <use transform="translate(0 0.015625)" xlink:href="#DejaVuSans-116"/>
      <use transform="translate(39.208984 0.015625)" xlink:href="#DejaVuSans-101"/>
      <use transform="translate(100.732422 0.015625)" xlink:href="#DejaVuSans-109"/>
      <use transform="translate(198.144531 0.015625)" xlink:href="#DejaVuSans-112"/>
      <use transform="translate(261.621094 0.015625)" xlink:href="#DejaVuSans-101"/>
      <use transform="translate(323.144531 0.015625)" xlink:href="#DejaVuSans-114"/>
      <use transform="translate(364.257812 0.015625)" xlink:href="#DejaVuSans-97"/>
      <use transform="translate(425.537109 0.015625)" xlink:href="#DejaVuSans-116"/>
      <use transform="translate(464.746094 0.015625)" xlink:href="#DejaVuSans-117"/>
      <use transform="translate(528.125 0.015625)" xlink:href="#DejaVuSans-114"/>
      <use transform="translate(569.238281 0.015625)" xlink:href="#DejaVuSans-101"/>
      <use transform="translate(630.761719 0.015625)" xlink:href="#DejaVuSans-32"/>
      <use transform="translate(662.548828 0.015625)" xlink:href="#DejaVuSans-91"/>
      <use transform="translate(702.519531 38.296875)scale(0.7)" xlink:href="#DejaVuSans-8728"/>
      <use transform="translate(749.072266 0.015625)" xlink:href="#DejaVuSans-67"/>
      <use transform="translate(818.896484 0.015625)" xlink:href="#DejaVuSans-93"/>
     </g>
    </g>
   </g>
   <g id="line2d_34">
    <path clip-path="url(#pb4a4be538b)" d="M 54.6575 250.96005 
L 81.885911 202.122372 
L 109.114321 73.03251 
L 136.342732 53.233451 
L 163.571143 44.785853 
L 190.799554 27.626669 
L 218.027964 99.431255 
L 245.256375 192.090849 
L 272.484786 250.96005 
L 299.713196 250.96005 
L 326.941607 250.96005 
L 354.170018 250.96005 
L 381.398429 250.96005 
L 408.626839 250.96005 
L 435.85525 250.96005 
L 463.083661 250.96005 
L 490.312071 250.96005 
L 517.540482 250.96005 
L 544.768893 250.96005 
L 571.997304 250.96005 
L 599.225714 250.96005 
L 626.454125 250.96005 
L 653.682536 250.96005 
L 680.910946 250.96005 
L 708.139357 250.96005 
L 735.367768 235.912765 
L 762.596179 238.024665 
L 789.824589 250.96005 
L 817.053 164.636154 
L 844.281411 106.030941 
L 871.509821 46.633765 
L 898.738232 105.238979 
L 925.966643 113.950564 
L 953.195054 228.257129 
L 980.423464 250.96005 
L 1007.651875 250.96005 
" style="fill:none;stroke:#006400;stroke-linecap:square;stroke-width:1.5;"/>
   </g>
   <g id="line2d_35">
    <path clip-path="url(#pb4a4be538b)" d="M 54.6575 250.96005 
L 81.885911 250.96005 
L 109.114321 250.96005 
L 136.342732 250.96005 
L 163.571143 250.96005 
L 190.799554 250.96005 
L 218.027964 250.96005 
L 245.256375 250.96005 
L 272.484786 250.96005 
L 299.713196 250.96005 
L 326.941607 250.96005 
L 354.170018 250.96005 
L 381.398429 250.96005 
L 408.626839 250.96005 
L 435.85525 250.96005 
L 463.083661 250.96005 
L 490.312071 250.96005 
L 517.540482 250.96005 
L 544.768893 250.96005 
L 571.997304 250.96005 
L 599.225714 250.96005 
L 626.454125 250.96005 
L 653.682536 250.96005 
L 680.910946 250.96005 
L 708.139357 250.96005 
L 735.367768 250.96005 
L 762.596179 250.96005 
L 789.824589 250.96005 
L 817.053 250.96005 
L 844.281411 250.96005 
L 871.509821 250.96005 
L 898.738232 250.96005 
L 925.966643 250.96005 
L 953.195054 250.96005 
L 980.423464 250.96005 
L 1007.651875 250.96005 
" style="fill:none;stroke:#32cd32;stroke-linecap:square;stroke-width:1.5;"/>
   </g>
   <g id="patch_3">
    <path d="M 54.6575 262.126719 
L 54.6575 16.46 
" style="fill:none;stroke:#000000;stroke-linecap:square;stroke-linejoin:miter;stroke-width:0.8;"/>
   </g>
   <g id="patch_4">
    <path d="M 54.6575 262.126719 
L 1007.651875 262.126719 
" style="fill:none;stroke:#000000;stroke-linecap:square;stroke-linejoin:miter;stroke-width:0.8;"/>
   </g>
  </g>
  <g id="axes_2">
   <g id="matplotlib.axis_3">
    <g id="ytick_6">
     <g id="line2d_36">
      <defs>
       <path d="M 0 0 
L 3.5 0 
" id="mc48716f00f" style="stroke:#000000;stroke-width:0.8;"/>
      </defs>
      <g>
       <use style="stroke:#000000;stroke-width:0.8;" x="1007.651875" xlink:href="#mc48716f00f" y="228.626712"/>
      </g>
     </g>
     <g id="text_7">
      <!-- −0.04 -->
      <defs>
       <path d="M 10.59375 35.5 
L 73.1875 35.5 
L 73.1875 27.203125 
L 10.59375 27.203125 
z
" id="DejaVuSans-8722"/>
       <path d="M 10.6875 12.40625 
L 21 12.40625 
L 21 0 
L 10.6875 0 
z
" id="DejaVuSans-46"/>
      </defs>
      <g transform="translate(1014.651875 233.185774)scale(0.12 -0.12)">
       <use xlink:href="#DejaVuSans-8722"/>
       <use x="83.789062" xlink:href="#DejaVuSans-48"/>
       <use x="147.412109" xlink:href="#DejaVuSans-46"/>
       <use x="179.199219" xlink:href="#DejaVuSans-48"/>
       <use x="242.822266" xlink:href="#DejaVuSans-52"/>
      </g>
     </g>
    </g>
    <g id="ytick_7">
     <g id="line2d_37">
      <g>
       <use style="stroke:#000000;stroke-width:0.8;" x="1007.651875" xlink:href="#mc48716f00f" y="183.960036"/>
      </g>
     </g>
     <g id="text_8">
      <!-- −0.02 -->
      <g transform="translate(1014.651875 188.519098)scale(0.12 -0.12)">
       <use xlink:href="#DejaVuSans-8722"/>
       <use x="83.789062" xlink:href="#DejaVuSans-48"/>
       <use x="147.412109" xlink:href="#DejaVuSans-46"/>
       <use x="179.199219" xlink:href="#DejaVuSans-48"/>
       <use x="242.822266" xlink:href="#DejaVuSans-50"/>
      </g>
     </g>
    </g>
    <g id="ytick_8">
     <g id="line2d_38">
      <g>
       <use style="stroke:#000000;stroke-width:0.8;" x="1007.651875" xlink:href="#mc48716f00f" y="139.293359"/>
      </g>
     </g>
     <g id="text_9">
      <!-- 0.00 -->
      <g transform="translate(1014.651875 143.852422)scale(0.12 -0.12)">
       <use xlink:href="#DejaVuSans-48"/>
       <use x="63.623047" xlink:href="#DejaVuSans-46"/>
       <use x="95.410156" xlink:href="#DejaVuSans-48"/>
       <use x="159.033203" xlink:href="#DejaVuSans-48"/>
      </g>
     </g>
    </g>
    <g id="ytick_9">
     <g id="line2d_39">
      <g>
       <use style="stroke:#000000;stroke-width:0.8;" x="1007.651875" xlink:href="#mc48716f00f" y="94.626683"/>
      </g>
     </g>
     <g id="text_10">
      <!-- 0.02 -->
      <g transform="translate(1014.651875 99.185746)scale(0.12 -0.12)">
       <use xlink:href="#DejaVuSans-48"/>
       <use x="63.623047" xlink:href="#DejaVuSans-46"/>
       <use x="95.410156" xlink:href="#DejaVuSans-48"/>
       <use x="159.033203" xlink:href="#DejaVuSans-50"/>
      </g>
     </g>
    </g>
    <g id="ytick_10">
     <g id="line2d_40">
      <g>
       <use style="stroke:#000000;stroke-width:0.8;" x="1007.651875" xlink:href="#mc48716f00f" y="49.960007"/>
      </g>
     </g>
     <g id="text_11">
      <!-- 0.04 -->
      <g transform="translate(1014.651875 54.51907)scale(0.12 -0.12)">
       <use xlink:href="#DejaVuSans-48"/>
       <use x="63.623047" xlink:href="#DejaVuSans-46"/>
       <use x="95.410156" xlink:href="#DejaVuSans-48"/>
       <use x="159.033203" xlink:href="#DejaVuSans-52"/>
      </g>
     </g>
    </g>
    <g id="text_12">
     <!-- relative humidity [%] -->
     <defs>
      <path d="M 9.421875 75.984375 
L 18.40625 75.984375 
L 18.40625 0 
L 9.421875 0 
z
" id="DejaVuSans-108"/>
      <path d="M 9.421875 54.6875 
L 18.40625 54.6875 
L 18.40625 0 
L 9.421875 0 
z
M 9.421875 75.984375 
L 18.40625 75.984375 
L 18.40625 64.59375 
L 9.421875 64.59375 
z
" id="DejaVuSans-105"/>
      <path d="M 2.984375 54.6875 
L 12.5 54.6875 
L 29.59375 8.796875 
L 46.6875 54.6875 
L 56.203125 54.6875 
L 35.6875 0 
L 23.484375 0 
z
" id="DejaVuSans-118"/>
      <path d="M 54.890625 33.015625 
L 54.890625 0 
L 45.90625 0 
L 45.90625 32.71875 
Q 45.90625 40.484375 42.875 44.328125 
Q 39.84375 48.1875 33.796875 48.1875 
Q 26.515625 48.1875 22.3125 43.546875 
Q 18.109375 38.921875 18.109375 30.90625 
L 18.109375 0 
L 9.078125 0 
L 9.078125 75.984375 
L 18.109375 75.984375 
L 18.109375 46.1875 
Q 21.34375 51.125 25.703125 53.5625 
Q 30.078125 56 35.796875 56 
Q 45.21875 56 50.046875 50.171875 
Q 54.890625 44.34375 54.890625 33.015625 
z
" id="DejaVuSans-104"/>
      <path d="M 45.40625 46.390625 
L 45.40625 75.984375 
L 54.390625 75.984375 
L 54.390625 0 
L 45.40625 0 
L 45.40625 8.203125 
Q 42.578125 3.328125 38.25 0.953125 
Q 33.9375 -1.421875 27.875 -1.421875 
Q 17.96875 -1.421875 11.734375 6.484375 
Q 5.515625 14.40625 5.515625 27.296875 
Q 5.515625 40.1875 11.734375 48.09375 
Q 17.96875 56 27.875 56 
Q 33.9375 56 38.25 53.625 
Q 42.578125 51.265625 45.40625 46.390625 
z
M 14.796875 27.296875 
Q 14.796875 17.390625 18.875 11.75 
Q 22.953125 6.109375 30.078125 6.109375 
Q 37.203125 6.109375 41.296875 11.75 
Q 45.40625 17.390625 45.40625 27.296875 
Q 45.40625 37.203125 41.296875 42.84375 
Q 37.203125 48.484375 30.078125 48.484375 
Q 22.953125 48.484375 18.875 42.84375 
Q 14.796875 37.203125 14.796875 27.296875 
z
" id="DejaVuSans-100"/>
      <path d="M 32.171875 -5.078125 
Q 28.375 -14.84375 24.75 -17.8125 
Q 21.140625 -20.796875 15.09375 -20.796875 
L 7.90625 -20.796875 
L 7.90625 -13.28125 
L 13.1875 -13.28125 
Q 16.890625 -13.28125 18.9375 -11.515625 
Q 21 -9.765625 23.484375 -3.21875 
L 25.09375 0.875 
L 2.984375 54.6875 
L 12.5 54.6875 
L 29.59375 11.921875 
L 46.6875 54.6875 
L 56.203125 54.6875 
z
" id="DejaVuSans-121"/>
      <path d="M 72.703125 32.078125 
Q 68.453125 32.078125 66.03125 28.46875 
Q 63.625 24.859375 63.625 18.40625 
Q 63.625 12.0625 66.03125 8.421875 
Q 68.453125 4.78125 72.703125 4.78125 
Q 76.859375 4.78125 79.265625 8.421875 
Q 81.6875 12.0625 81.6875 18.40625 
Q 81.6875 24.8125 79.265625 28.4375 
Q 76.859375 32.078125 72.703125 32.078125 
z
M 72.703125 38.28125 
Q 80.421875 38.28125 84.953125 32.90625 
Q 89.5 27.546875 89.5 18.40625 
Q 89.5 9.28125 84.9375 3.921875 
Q 80.375 -1.421875 72.703125 -1.421875 
Q 64.890625 -1.421875 60.34375 3.921875 
Q 55.8125 9.28125 55.8125 18.40625 
Q 55.8125 27.59375 60.375 32.9375 
Q 64.9375 38.28125 72.703125 38.28125 
z
M 22.3125 68.015625 
Q 18.109375 68.015625 15.6875 64.375 
Q 13.28125 60.75 13.28125 54.390625 
Q 13.28125 47.953125 15.671875 44.328125 
Q 18.0625 40.71875 22.3125 40.71875 
Q 26.5625 40.71875 28.96875 44.328125 
Q 31.390625 47.953125 31.390625 54.390625 
Q 31.390625 60.6875 28.953125 64.34375 
Q 26.515625 68.015625 22.3125 68.015625 
z
M 66.40625 74.21875 
L 74.21875 74.21875 
L 28.609375 -1.421875 
L 20.796875 -1.421875 
z
M 22.3125 74.21875 
Q 30.03125 74.21875 34.609375 68.875 
Q 39.203125 63.53125 39.203125 54.390625 
Q 39.203125 45.171875 34.640625 39.84375 
Q 30.078125 34.515625 22.3125 34.515625 
Q 14.546875 34.515625 10.03125 39.859375 
Q 5.515625 45.21875 5.515625 54.390625 
Q 5.515625 63.484375 10.046875 68.84375 
Q 14.59375 74.21875 22.3125 74.21875 
z
" id="DejaVuSans-37"/>
     </defs>
     <g transform="translate(1064.544375 202.748047)rotate(-90)scale(0.12 -0.12)">
      <use xlink:href="#DejaVuSans-114"/>
      <use x="41.082031" xlink:href="#DejaVuSans-101"/>
      <use x="102.605469" xlink:href="#DejaVuSans-108"/>
      <use x="130.388672" xlink:href="#DejaVuSans-97"/>
      <use x="191.667969" xlink:href="#DejaVuSans-116"/>
      <use x="230.876953" xlink:href="#DejaVuSans-105"/>
      <use x="258.660156" xlink:href="#DejaVuSans-118"/>
      <use x="317.839844" xlink:href="#DejaVuSans-101"/>
      <use x="379.363281" xlink:href="#DejaVuSans-32"/>
      <use x="411.150391" xlink:href="#DejaVuSans-104"/>
      <use x="474.529297" xlink:href="#DejaVuSans-117"/>
      <use x="537.908203" xlink:href="#DejaVuSans-109"/>
      <use x="635.320312" xlink:href="#DejaVuSans-105"/>
      <use x="663.103516" xlink:href="#DejaVuSans-100"/>
      <use x="726.580078" xlink:href="#DejaVuSans-105"/>
      <use x="754.363281" xlink:href="#DejaVuSans-116"/>
      <use x="793.572266" xlink:href="#DejaVuSans-121"/>
      <use x="852.751953" xlink:href="#DejaVuSans-32"/>
      <use x="884.539062" xlink:href="#DejaVuSans-91"/>
      <use x="923.552734" xlink:href="#DejaVuSans-37"/>
      <use x="1018.572266" xlink:href="#DejaVuSans-93"/>
     </g>
    </g>
   </g>
   <g id="line2d_41">
    <path clip-path="url(#pb4a4be538b)" d="M 54.6575 139.293359 
L 81.885911 139.293359 
L 109.114321 139.293359 
L 136.342732 139.293359 
L 163.571143 139.293359 
L 190.799554 139.293359 
L 218.027964 139.293359 
L 245.256375 139.293359 
L 272.484786 139.293359 
L 299.713196 139.293359 
L 326.941607 139.293359 
L 354.170018 139.293359 
L 381.398429 139.293359 
L 408.626839 139.293359 
L 435.85525 139.293359 
L 463.083661 139.293359 
L 490.312071 139.293359 
L 517.540482 139.293359 
L 544.768893 139.293359 
L 571.997304 139.293359 
L 599.225714 139.293359 
L 626.454125 139.293359 
L 653.682536 139.293359 
L 680.910946 139.293359 
L 708.139357 139.293359 
L 735.367768 139.293359 
L 762.596179 139.293359 
L 789.824589 139.293359 
L 817.053 139.293359 
L 844.281411 139.293359 
L 871.509821 139.293359 
L 898.738232 139.293359 
L 925.966643 139.293359 
L 953.195054 139.293359 
L 980.423464 139.293359 
L 1007.651875 139.293359 
" style="fill:none;stroke:#00008b;stroke-linecap:square;stroke-width:1.5;"/>
   </g>
   <g id="line2d_42">
    <path clip-path="url(#pb4a4be538b)" d="M 54.6575 139.293359 
L 81.885911 139.293359 
L 109.114321 139.293359 
L 136.342732 139.293359 
L 163.571143 139.293359 
L 190.799554 139.293359 
L 218.027964 139.293359 
L 245.256375 139.293359 
L 272.484786 139.293359 
L 299.713196 139.293359 
L 326.941607 139.293359 
L 354.170018 139.293359 
L 381.398429 139.293359 
L 408.626839 139.293359 
L 435.85525 139.293359 
L 463.083661 139.293359 
L 490.312071 139.293359 
L 517.540482 139.293359 
L 544.768893 139.293359 
L 571.997304 139.293359 
L 599.225714 139.293359 
L 626.454125 139.293359 
L 653.682536 139.293359 
L 680.910946 139.293359 
L 708.139357 139.293359 
L 735.367768 139.293359 
L 762.596179 139.293359 
L 789.824589 139.293359 
L 817.053 139.293359 
L 844.281411 139.293359 
L 871.509821 139.293359 
L 898.738232 139.293359 
L 925.966643 139.293359 
L 953.195054 139.293359 
L 980.423464 139.293359 
L 1007.651875 139.293359 
" style="fill:none;stroke:#1e90ff;stroke-linecap:square;stroke-width:1.5;"/>
   </g>
   <g id="patch_5">
    <path d="M 1007.651875 262.126719 
L 1007.651875 16.46 
" style="fill:none;stroke:#000000;stroke-linecap:square;stroke-linejoin:miter;stroke-width:0.8;"/>
   </g>
   <g id="patch_6">
    <path d="M 54.6575 139.293359 
L 1007.651875 139.293359 
" style="fill:none;stroke:#000000;stroke-linecap:square;stroke-linejoin:miter;stroke-width:0.8;"/>
   </g>
   <g id="legend_1">
    <g id="patch_7">
     <path d="M 383.074687 256.126719 
L 679.234687 256.126719 
Q 681.634687 256.126719 681.634687 253.726719 
L 681.634687 237.312969 
Q 681.634687 234.912969 679.234687 234.912969 
L 383.074687 234.912969 
Q 380.674687 234.912969 380.674687 237.312969 
L 380.674687 253.726719 
Q 380.674687 256.126719 383.074687 256.126719 
z
" style="fill:#ffffff;stroke:#cccccc;stroke-linejoin:miter;"/>
    </g>
    <g id="line2d_43">
     <path d="M 385.474687 244.631094 
L 409.474687 244.631094 
" style="fill:none;stroke:#006400;stroke-linecap:square;stroke-width:1.5;"/>
    </g>
    <g id="line2d_44"/>
    <g id="text_13">
     <!-- $T_{air}$ -->
     <defs>
      <path d="M -0.296875 72.90625 
L 61.375 72.90625 
L 61.375 64.59375 
L 35.5 64.59375 
L 35.5 0 
L 25.59375 0 
L 25.59375 64.59375 
L -0.296875 64.59375 
z
" id="DejaVuSans-84"/>
     </defs>
     <g transform="translate(419.074687 248.831094)scale(0.12 -0.12)">
      <use transform="translate(0 0.09375)" xlink:href="#DejaVuSans-84"/>
      <use transform="translate(62.041016 -16.3125)scale(0.7)" xlink:href="#DejaVuSans-97"/>
      <use transform="translate(104.936523 -16.3125)scale(0.7)" xlink:href="#DejaVuSans-105"/>
      <use transform="translate(124.384766 -16.3125)scale(0.7)" xlink:href="#DejaVuSans-114"/>
     </g>
    </g>
    <g id="line2d_45">
     <path d="M 461.794687 244.631094 
L 485.794687 244.631094 
" style="fill:none;stroke:#32cd32;stroke-linecap:square;stroke-width:1.5;"/>
    </g>
    <g id="line2d_46"/>
    <g id="text_14">
     <!-- $T_{soil}$ -->
     <defs>
      <path d="M 44.28125 53.078125 
L 44.28125 44.578125 
Q 40.484375 46.53125 36.375 47.5 
Q 32.28125 48.484375 27.875 48.484375 
Q 21.1875 48.484375 17.84375 46.4375 
Q 14.5 44.390625 14.5 40.28125 
Q 14.5 37.15625 16.890625 35.375 
Q 19.28125 33.59375 26.515625 31.984375 
L 29.59375 31.296875 
Q 39.15625 29.25 43.1875 25.515625 
Q 47.21875 21.78125 47.21875 15.09375 
Q 47.21875 7.46875 41.1875 3.015625 
Q 35.15625 -1.421875 24.609375 -1.421875 
Q 20.21875 -1.421875 15.453125 -0.5625 
Q 10.6875 0.296875 5.421875 2 
L 5.421875 11.28125 
Q 10.40625 8.6875 15.234375 7.390625 
Q 20.0625 6.109375 24.8125 6.109375 
Q 31.15625 6.109375 34.5625 8.28125 
Q 37.984375 10.453125 37.984375 14.40625 
Q 37.984375 18.0625 35.515625 20.015625 
Q 33.0625 21.96875 24.703125 23.78125 
L 21.578125 24.515625 
Q 13.234375 26.265625 9.515625 29.90625 
Q 5.8125 33.546875 5.8125 39.890625 
Q 5.8125 47.609375 11.28125 51.796875 
Q 16.75 56 26.8125 56 
Q 31.78125 56 36.171875 55.265625 
Q 40.578125 54.546875 44.28125 53.078125 
z
" id="DejaVuSans-115"/>
      <path d="M 30.609375 48.390625 
Q 23.390625 48.390625 19.1875 42.75 
Q 14.984375 37.109375 14.984375 27.296875 
Q 14.984375 17.484375 19.15625 11.84375 
Q 23.34375 6.203125 30.609375 6.203125 
Q 37.796875 6.203125 41.984375 11.859375 
Q 46.1875 17.53125 46.1875 27.296875 
Q 46.1875 37.015625 41.984375 42.703125 
Q 37.796875 48.390625 30.609375 48.390625 
z
M 30.609375 56 
Q 42.328125 56 49.015625 48.375 
Q 55.71875 40.765625 55.71875 27.296875 
Q 55.71875 13.875 49.015625 6.21875 
Q 42.328125 -1.421875 30.609375 -1.421875 
Q 18.84375 -1.421875 12.171875 6.21875 
Q 5.515625 13.875 5.515625 27.296875 
Q 5.515625 40.765625 12.171875 48.375 
Q 18.84375 56 30.609375 56 
z
" id="DejaVuSans-111"/>
     </defs>
     <g transform="translate(495.394687 248.831094)scale(0.12 -0.12)">
      <use transform="translate(0 0.09375)" xlink:href="#DejaVuSans-84"/>
      <use transform="translate(62.041016 -16.3125)scale(0.7)" xlink:href="#DejaVuSans-115"/>
      <use transform="translate(98.510742 -16.3125)scale(0.7)" xlink:href="#DejaVuSans-111"/>
      <use transform="translate(141.337891 -16.3125)scale(0.7)" xlink:href="#DejaVuSans-105"/>
      <use transform="translate(160.786133 -16.3125)scale(0.7)" xlink:href="#DejaVuSans-108"/>
     </g>
    </g>
    <g id="line2d_47">
     <path d="M 541.354687 244.631094 
L 565.354687 244.631094 
" style="fill:none;stroke:#00008b;stroke-linecap:square;stroke-width:1.5;"/>
    </g>
    <g id="line2d_48"/>
    <g id="text_15">
     <!-- $H_{air}$ -->
     <defs>
      <path d="M 9.8125 72.90625 
L 19.671875 72.90625 
L 19.671875 43.015625 
L 55.515625 43.015625 
L 55.515625 72.90625 
L 65.375 72.90625 
L 65.375 0 
L 55.515625 0 
L 55.515625 34.71875 
L 19.671875 34.71875 
L 19.671875 0 
L 9.8125 0 
z
" id="DejaVuSans-72"/>
     </defs>
     <g transform="translate(574.954687 248.831094)scale(0.12 -0.12)">
      <use transform="translate(0 0.09375)" xlink:href="#DejaVuSans-72"/>
      <use transform="translate(76.152344 -16.3125)scale(0.7)" xlink:href="#DejaVuSans-97"/>
      <use transform="translate(119.047852 -16.3125)scale(0.7)" xlink:href="#DejaVuSans-105"/>
      <use transform="translate(138.496094 -16.3125)scale(0.7)" xlink:href="#DejaVuSans-114"/>
     </g>
    </g>
    <g id="line2d_49">
     <path d="M 619.474687 244.631094 
L 643.474687 244.631094 
" style="fill:none;stroke:#1e90ff;stroke-linecap:square;stroke-width:1.5;"/>
    </g>
    <g id="line2d_50"/>
    <g id="text_16">
     <!-- $H_{soil}$ -->
     <g transform="translate(653.074687 248.831094)scale(0.12 -0.12)">
      <use transform="translate(0 0.09375)" xlink:href="#DejaVuSans-72"/>
      <use transform="translate(76.152344 -16.3125)scale(0.7)" xlink:href="#DejaVuSans-115"/>
      <use transform="translate(112.62207 -16.3125)scale(0.7)" xlink:href="#DejaVuSans-111"/>
      <use transform="translate(155.449219 -16.3125)scale(0.7)" xlink:href="#DejaVuSans-105"/>
      <use transform="translate(174.897461 -16.3125)scale(0.7)" xlink:href="#DejaVuSans-108"/>
     </g>
    </g>
   </g>
  </g>
  <g id="axes_3">
   <g id="patch_8">
    <path d="M 54.6575 528.8125 
L 1007.651875 528.8125 
L 1007.651875 283.145781 
L 54.6575 283.145781 
z
" style="fill:#ffffff;"/>
   </g>
   <g id="matplotlib.axis_4">
    <g id="xtick_16">
     <g id="line2d_51">
      <path clip-path="url(#p74a4d5deb5)" d="M 54.6575 528.8125 
L 54.6575 283.145781 
" style="fill:none;stroke:#cccccc;stroke-dasharray:0.8,1.32;stroke-dashoffset:0;stroke-width:0.8;"/>
     </g>
     <g id="line2d_52">
      <g>
       <use style="stroke:#000000;stroke-width:0.8;" x="54.6575" xlink:href="#m9a3956997f" y="528.8125"/>
      </g>
     </g>
     <g id="text_17">
      <!-- 0 -->
      <g transform="translate(50.84 544.930625)scale(0.12 -0.12)">
       <use xlink:href="#DejaVuSans-48"/>
      </g>
     </g>
    </g>
    <g id="xtick_17">
     <g id="line2d_53">
      <path clip-path="url(#p74a4d5deb5)" d="M 190.799554 528.8125 
L 190.799554 283.145781 
" style="fill:none;stroke:#cccccc;stroke-dasharray:0.8,1.32;stroke-dashoffset:0;stroke-width:0.8;"/>
     </g>
     <g id="line2d_54">
      <g>
       <use style="stroke:#000000;stroke-width:0.8;" x="190.799554" xlink:href="#m9a3956997f" y="528.8125"/>
      </g>
     </g>
     <g id="text_18">
      <!-- 5 -->
      <defs>
       <path d="M 10.796875 72.90625 
L 49.515625 72.90625 
L 49.515625 64.59375 
L 19.828125 64.59375 
L 19.828125 46.734375 
Q 21.96875 47.46875 24.109375 47.828125 
Q 26.265625 48.1875 28.421875 48.1875 
Q 40.625 48.1875 47.75 41.5 
Q 54.890625 34.8125 54.890625 23.390625 
Q 54.890625 11.625 47.5625 5.09375 
Q 40.234375 -1.421875 26.90625 -1.421875 
Q 22.3125 -1.421875 17.546875 -0.640625 
Q 12.796875 0.140625 7.71875 1.703125 
L 7.71875 11.625 
Q 12.109375 9.234375 16.796875 8.0625 
Q 21.484375 6.890625 26.703125 6.890625 
Q 35.15625 6.890625 40.078125 11.328125 
Q 45.015625 15.765625 45.015625 23.390625 
Q 45.015625 31 40.078125 35.4375 
Q 35.15625 39.890625 26.703125 39.890625 
Q 22.75 39.890625 18.8125 39.015625 
Q 14.890625 38.140625 10.796875 36.28125 
z
" id="DejaVuSans-53"/>
      </defs>
      <g transform="translate(186.982054 544.930625)scale(0.12 -0.12)">
       <use xlink:href="#DejaVuSans-53"/>
      </g>
     </g>
    </g>
    <g id="xtick_18">
     <g id="line2d_55">
      <path clip-path="url(#p74a4d5deb5)" d="M 326.941607 528.8125 
L 326.941607 283.145781 
" style="fill:none;stroke:#cccccc;stroke-dasharray:0.8,1.32;stroke-dashoffset:0;stroke-width:0.8;"/>
     </g>
     <g id="line2d_56">
      <g>
       <use style="stroke:#000000;stroke-width:0.8;" x="326.941607" xlink:href="#m9a3956997f" y="528.8125"/>
      </g>
     </g>
     <g id="text_19">
      <!-- 10 -->
      <defs>
       <path d="M 12.40625 8.296875 
L 28.515625 8.296875 
L 28.515625 63.921875 
L 10.984375 60.40625 
L 10.984375 69.390625 
L 28.421875 72.90625 
L 38.28125 72.90625 
L 38.28125 8.296875 
L 54.390625 8.296875 
L 54.390625 0 
L 12.40625 0 
z
" id="DejaVuSans-49"/>
      </defs>
      <g transform="translate(319.306607 544.930625)scale(0.12 -0.12)">
       <use xlink:href="#DejaVuSans-49"/>
       <use x="63.623047" xlink:href="#DejaVuSans-48"/>
      </g>
     </g>
    </g>
    <g id="xtick_19">
     <g id="line2d_57">
      <path clip-path="url(#p74a4d5deb5)" d="M 463.083661 528.8125 
L 463.083661 283.145781 
" style="fill:none;stroke:#cccccc;stroke-dasharray:0.8,1.32;stroke-dashoffset:0;stroke-width:0.8;"/>
     </g>
     <g id="line2d_58">
      <g>
       <use style="stroke:#000000;stroke-width:0.8;" x="463.083661" xlink:href="#m9a3956997f" y="528.8125"/>
      </g>
     </g>
     <g id="text_20">
      <!-- 15 -->
      <g transform="translate(455.448661 544.930625)scale(0.12 -0.12)">
       <use xlink:href="#DejaVuSans-49"/>
       <use x="63.623047" xlink:href="#DejaVuSans-53"/>
      </g>
     </g>
    </g>
    <g id="xtick_20">
     <g id="line2d_59">
      <path clip-path="url(#p74a4d5deb5)" d="M 599.225714 528.8125 
L 599.225714 283.145781 
" style="fill:none;stroke:#cccccc;stroke-dasharray:0.8,1.32;stroke-dashoffset:0;stroke-width:0.8;"/>
     </g>
     <g id="line2d_60">
      <g>
       <use style="stroke:#000000;stroke-width:0.8;" x="599.225714" xlink:href="#m9a3956997f" y="528.8125"/>
      </g>
     </g>
     <g id="text_21">
      <!-- 20 -->
      <g transform="translate(591.590714 544.930625)scale(0.12 -0.12)">
       <use xlink:href="#DejaVuSans-50"/>
       <use x="63.623047" xlink:href="#DejaVuSans-48"/>
      </g>
     </g>
    </g>
    <g id="xtick_21">
     <g id="line2d_61">
      <path clip-path="url(#p74a4d5deb5)" d="M 735.367768 528.8125 
L 735.367768 283.145781 
" style="fill:none;stroke:#cccccc;stroke-dasharray:0.8,1.32;stroke-dashoffset:0;stroke-width:0.8;"/>
     </g>
     <g id="line2d_62">
      <g>
       <use style="stroke:#000000;stroke-width:0.8;" x="735.367768" xlink:href="#m9a3956997f" y="528.8125"/>
      </g>
     </g>
     <g id="text_22">
      <!-- 25 -->
      <g transform="translate(727.732768 544.930625)scale(0.12 -0.12)">
       <use xlink:href="#DejaVuSans-50"/>
       <use x="63.623047" xlink:href="#DejaVuSans-53"/>
      </g>
     </g>
    </g>
    <g id="xtick_22">
     <g id="line2d_63">
      <path clip-path="url(#p74a4d5deb5)" d="M 871.509821 528.8125 
L 871.509821 283.145781 
" style="fill:none;stroke:#cccccc;stroke-dasharray:0.8,1.32;stroke-dashoffset:0;stroke-width:0.8;"/>
     </g>
     <g id="line2d_64">
      <g>
       <use style="stroke:#000000;stroke-width:0.8;" x="871.509821" xlink:href="#m9a3956997f" y="528.8125"/>
      </g>
     </g>
     <g id="text_23">
      <!-- 30 -->
      <defs>
       <path d="M 40.578125 39.3125 
Q 47.65625 37.796875 51.625 33 
Q 55.609375 28.21875 55.609375 21.1875 
Q 55.609375 10.40625 48.1875 4.484375 
Q 40.765625 -1.421875 27.09375 -1.421875 
Q 22.515625 -1.421875 17.65625 -0.515625 
Q 12.796875 0.390625 7.625 2.203125 
L 7.625 11.71875 
Q 11.71875 9.328125 16.59375 8.109375 
Q 21.484375 6.890625 26.8125 6.890625 
Q 36.078125 6.890625 40.9375 10.546875 
Q 45.796875 14.203125 45.796875 21.1875 
Q 45.796875 27.640625 41.28125 31.265625 
Q 36.765625 34.90625 28.71875 34.90625 
L 20.21875 34.90625 
L 20.21875 43.015625 
L 29.109375 43.015625 
Q 36.375 43.015625 40.234375 45.921875 
Q 44.09375 48.828125 44.09375 54.296875 
Q 44.09375 59.90625 40.109375 62.90625 
Q 36.140625 65.921875 28.71875 65.921875 
Q 24.65625 65.921875 20.015625 65.03125 
Q 15.375 64.15625 9.8125 62.3125 
L 9.8125 71.09375 
Q 15.4375 72.65625 20.34375 73.4375 
Q 25.25 74.21875 29.59375 74.21875 
Q 40.828125 74.21875 47.359375 69.109375 
Q 53.90625 64.015625 53.90625 55.328125 
Q 53.90625 49.265625 50.4375 45.09375 
Q 46.96875 40.921875 40.578125 39.3125 
z
" id="DejaVuSans-51"/>
      </defs>
      <g transform="translate(863.874821 544.930625)scale(0.12 -0.12)">
       <use xlink:href="#DejaVuSans-51"/>
       <use x="63.623047" xlink:href="#DejaVuSans-48"/>
      </g>
     </g>
    </g>
    <g id="xtick_23">
     <g id="line2d_65">
      <path clip-path="url(#p74a4d5deb5)" d="M 1007.651875 528.8125 
L 1007.651875 283.145781 
" style="fill:none;stroke:#cccccc;stroke-dasharray:0.8,1.32;stroke-dashoffset:0;stroke-width:0.8;"/>
     </g>
     <g id="line2d_66">
      <g>
       <use style="stroke:#000000;stroke-width:0.8;" x="1007.651875" xlink:href="#m9a3956997f" y="528.8125"/>
      </g>
     </g>
     <g id="text_24">
      <!-- 35 -->
      <g transform="translate(1000.016875 544.930625)scale(0.12 -0.12)">
       <use xlink:href="#DejaVuSans-51"/>
       <use x="63.623047" xlink:href="#DejaVuSans-53"/>
      </g>
     </g>
    </g>
    <g id="xtick_24">
     <g id="line2d_67">
      <g>
       <use style="stroke:#000000;stroke-width:0.6;" x="122.728527" xlink:href="#m6e5be577c8" y="528.8125"/>
      </g>
     </g>
    </g>
    <g id="xtick_25">
     <g id="line2d_68">
      <g>
       <use style="stroke:#000000;stroke-width:0.6;" x="258.87058" xlink:href="#m6e5be577c8" y="528.8125"/>
      </g>
     </g>
    </g>
    <g id="xtick_26">
     <g id="line2d_69">
      <g>
       <use style="stroke:#000000;stroke-width:0.6;" x="395.012634" xlink:href="#m6e5be577c8" y="528.8125"/>
      </g>
     </g>
    </g>
    <g id="xtick_27">
     <g id="line2d_70">
      <g>
       <use style="stroke:#000000;stroke-width:0.6;" x="531.154687" xlink:href="#m6e5be577c8" y="528.8125"/>
      </g>
     </g>
    </g>
    <g id="xtick_28">
     <g id="line2d_71">
      <g>
       <use style="stroke:#000000;stroke-width:0.6;" x="667.296741" xlink:href="#m6e5be577c8" y="528.8125"/>
      </g>
     </g>
    </g>
    <g id="xtick_29">
     <g id="line2d_72">
      <g>
       <use style="stroke:#000000;stroke-width:0.6;" x="803.438795" xlink:href="#m6e5be577c8" y="528.8125"/>
      </g>
     </g>
    </g>
    <g id="xtick_30">
     <g id="line2d_73">
      <g>
       <use style="stroke:#000000;stroke-width:0.6;" x="939.580848" xlink:href="#m6e5be577c8" y="528.8125"/>
      </g>
     </g>
    </g>
    <g id="text_25">
     <!-- sensor updates -->
     <defs>
      <path d="M 54.890625 33.015625 
L 54.890625 0 
L 45.90625 0 
L 45.90625 32.71875 
Q 45.90625 40.484375 42.875 44.328125 
Q 39.84375 48.1875 33.796875 48.1875 
Q 26.515625 48.1875 22.3125 43.546875 
Q 18.109375 38.921875 18.109375 30.90625 
L 18.109375 0 
L 9.078125 0 
L 9.078125 54.6875 
L 18.109375 54.6875 
L 18.109375 46.1875 
Q 21.34375 51.125 25.703125 53.5625 
Q 30.078125 56 35.796875 56 
Q 45.21875 56 50.046875 50.171875 
Q 54.890625 44.34375 54.890625 33.015625 
z
" id="DejaVuSans-110"/>
     </defs>
     <g transform="translate(485.097187 560.544375)scale(0.12 -0.12)">
      <use xlink:href="#DejaVuSans-115"/>
      <use x="52.099609" xlink:href="#DejaVuSans-101"/>
      <use x="113.623047" xlink:href="#DejaVuSans-110"/>
      <use x="177.001953" xlink:href="#DejaVuSans-115"/>
      <use x="229.101562" xlink:href="#DejaVuSans-111"/>
      <use x="290.283203" xlink:href="#DejaVuSans-114"/>
      <use x="331.396484" xlink:href="#DejaVuSans-32"/>
      <use x="363.183594" xlink:href="#DejaVuSans-117"/>
      <use x="426.5625" xlink:href="#DejaVuSans-112"/>
      <use x="490.039062" xlink:href="#DejaVuSans-100"/>
      <use x="553.515625" xlink:href="#DejaVuSans-97"/>
      <use x="614.794922" xlink:href="#DejaVuSans-116"/>
      <use x="654.003906" xlink:href="#DejaVuSans-101"/>
      <use x="715.527344" xlink:href="#DejaVuSans-115"/>
     </g>
    </g>
   </g>
   <g id="matplotlib.axis_5">
    <g id="ytick_11">
     <g id="line2d_74">
      <path clip-path="url(#p74a4d5deb5)" d="M 54.6575 528.8125 
L 1007.651875 528.8125 
" style="fill:none;stroke:#cccccc;stroke-dasharray:0.8,1.32;stroke-dashoffset:0;stroke-width:0.8;"/>
     </g>
     <g id="line2d_75">
      <g>
       <use style="stroke:#000000;stroke-width:0.8;" x="54.6575" xlink:href="#m537bbedda3" y="528.8125"/>
      </g>
     </g>
     <g id="text_26">
      <!-- 0.0 -->
      <g transform="translate(28.57375 533.371562)scale(0.12 -0.12)">
       <use xlink:href="#DejaVuSans-48"/>
       <use x="63.623047" xlink:href="#DejaVuSans-46"/>
       <use x="95.410156" xlink:href="#DejaVuSans-48"/>
      </g>
     </g>
    </g>
    <g id="ytick_12">
     <g id="line2d_76">
      <path clip-path="url(#p74a4d5deb5)" d="M 54.6575 479.679156 
L 1007.651875 479.679156 
" style="fill:none;stroke:#cccccc;stroke-dasharray:0.8,1.32;stroke-dashoffset:0;stroke-width:0.8;"/>
     </g>
     <g id="line2d_77">
      <g>
       <use style="stroke:#000000;stroke-width:0.8;" x="54.6575" xlink:href="#m537bbedda3" y="479.679156"/>
      </g>
     </g>
     <g id="text_27">
      <!-- 0.2 -->
      <g transform="translate(28.57375 484.238219)scale(0.12 -0.12)">
       <use xlink:href="#DejaVuSans-48"/>
       <use x="63.623047" xlink:href="#DejaVuSans-46"/>
       <use x="95.410156" xlink:href="#DejaVuSans-50"/>
      </g>
     </g>
    </g>
    <g id="ytick_13">
     <g id="line2d_78">
      <path clip-path="url(#p74a4d5deb5)" d="M 54.6575 430.545812 
L 1007.651875 430.545812 
" style="fill:none;stroke:#cccccc;stroke-dasharray:0.8,1.32;stroke-dashoffset:0;stroke-width:0.8;"/>
     </g>
     <g id="line2d_79">
      <g>
       <use style="stroke:#000000;stroke-width:0.8;" x="54.6575" xlink:href="#m537bbedda3" y="430.545812"/>
      </g>
     </g>
     <g id="text_28">
      <!-- 0.4 -->
      <g transform="translate(28.57375 435.104875)scale(0.12 -0.12)">
       <use xlink:href="#DejaVuSans-48"/>
       <use x="63.623047" xlink:href="#DejaVuSans-46"/>
       <use x="95.410156" xlink:href="#DejaVuSans-52"/>
      </g>
     </g>
    </g>
    <g id="ytick_14">
     <g id="line2d_80">
      <path clip-path="url(#p74a4d5deb5)" d="M 54.6575 381.412469 
L 1007.651875 381.412469 
" style="fill:none;stroke:#cccccc;stroke-dasharray:0.8,1.32;stroke-dashoffset:0;stroke-width:0.8;"/>
     </g>
     <g id="line2d_81">
      <g>
       <use style="stroke:#000000;stroke-width:0.8;" x="54.6575" xlink:href="#m537bbedda3" y="381.412469"/>
      </g>
     </g>
     <g id="text_29">
      <!-- 0.6 -->
      <g transform="translate(28.57375 385.971531)scale(0.12 -0.12)">
       <use xlink:href="#DejaVuSans-48"/>
       <use x="63.623047" xlink:href="#DejaVuSans-46"/>
       <use x="95.410156" xlink:href="#DejaVuSans-54"/>
      </g>
     </g>
    </g>
    <g id="ytick_15">
     <g id="line2d_82">
      <path clip-path="url(#p74a4d5deb5)" d="M 54.6575 332.279125 
L 1007.651875 332.279125 
" style="fill:none;stroke:#cccccc;stroke-dasharray:0.8,1.32;stroke-dashoffset:0;stroke-width:0.8;"/>
     </g>
     <g id="line2d_83">
      <g>
       <use style="stroke:#000000;stroke-width:0.8;" x="54.6575" xlink:href="#m537bbedda3" y="332.279125"/>
      </g>
     </g>
     <g id="text_30">
      <!-- 0.8 -->
      <g transform="translate(28.57375 336.838187)scale(0.12 -0.12)">
       <use xlink:href="#DejaVuSans-48"/>
       <use x="63.623047" xlink:href="#DejaVuSans-46"/>
       <use x="95.410156" xlink:href="#DejaVuSans-56"/>
      </g>
     </g>
    </g>
    <g id="ytick_16">
     <g id="line2d_84">
      <path clip-path="url(#p74a4d5deb5)" d="M 54.6575 283.145781 
L 1007.651875 283.145781 
" style="fill:none;stroke:#cccccc;stroke-dasharray:0.8,1.32;stroke-dashoffset:0;stroke-width:0.8;"/>
     </g>
     <g id="line2d_85">
      <g>
       <use style="stroke:#000000;stroke-width:0.8;" x="54.6575" xlink:href="#m537bbedda3" y="283.145781"/>
      </g>
     </g>
     <g id="text_31">
      <!-- 1.0 -->
      <g transform="translate(28.57375 287.704844)scale(0.12 -0.12)">
       <use xlink:href="#DejaVuSans-49"/>
       <use x="63.623047" xlink:href="#DejaVuSans-46"/>
       <use x="95.410156" xlink:href="#DejaVuSans-48"/>
      </g>
     </g>
    </g>
    <g id="ytick_17">
     <g id="line2d_86">
      <defs>
       <path d="M 0 0 
L -2 0 
" id="mda64912e68" style="stroke:#000000;stroke-width:0.6;"/>
      </defs>
      <g>
       <use style="stroke:#000000;stroke-width:0.6;" x="54.6575" xlink:href="#mda64912e68" y="504.245828"/>
      </g>
     </g>
    </g>
    <g id="ytick_18">
     <g id="line2d_87">
      <g>
       <use style="stroke:#000000;stroke-width:0.6;" x="54.6575" xlink:href="#mda64912e68" y="455.112484"/>
      </g>
     </g>
    </g>
    <g id="ytick_19">
     <g id="line2d_88">
      <g>
       <use style="stroke:#000000;stroke-width:0.6;" x="54.6575" xlink:href="#mda64912e68" y="405.979141"/>
      </g>
     </g>
    </g>
    <g id="ytick_20">
     <g id="line2d_89">
      <g>
       <use style="stroke:#000000;stroke-width:0.6;" x="54.6575" xlink:href="#mda64912e68" y="356.845797"/>
      </g>
     </g>
    </g>
    <g id="ytick_21">
     <g id="line2d_90">
      <g>
       <use style="stroke:#000000;stroke-width:0.6;" x="54.6575" xlink:href="#mda64912e68" y="307.712453"/>
      </g>
     </g>
    </g>
    <g id="text_32">
     <!-- fault indicator -->
     <defs>
      <path d="M 37.109375 75.984375 
L 37.109375 68.5 
L 28.515625 68.5 
Q 23.6875 68.5 21.796875 66.546875 
Q 19.921875 64.59375 19.921875 59.515625 
L 19.921875 54.6875 
L 34.71875 54.6875 
L 34.71875 47.703125 
L 19.921875 47.703125 
L 19.921875 0 
L 10.890625 0 
L 10.890625 47.703125 
L 2.296875 47.703125 
L 2.296875 54.6875 
L 10.890625 54.6875 
L 10.890625 58.5 
Q 10.890625 67.625 15.140625 71.796875 
Q 19.390625 75.984375 28.609375 75.984375 
z
" id="DejaVuSans-102"/>
      <path d="M 48.78125 52.59375 
L 48.78125 44.1875 
Q 44.96875 46.296875 41.140625 47.34375 
Q 37.3125 48.390625 33.40625 48.390625 
Q 24.65625 48.390625 19.8125 42.84375 
Q 14.984375 37.3125 14.984375 27.296875 
Q 14.984375 17.28125 19.8125 11.734375 
Q 24.65625 6.203125 33.40625 6.203125 
Q 37.3125 6.203125 41.140625 7.25 
Q 44.96875 8.296875 48.78125 10.40625 
L 48.78125 2.09375 
Q 45.015625 0.34375 40.984375 -0.53125 
Q 36.96875 -1.421875 32.421875 -1.421875 
Q 20.0625 -1.421875 12.78125 6.34375 
Q 5.515625 14.109375 5.515625 27.296875 
Q 5.515625 40.671875 12.859375 48.328125 
Q 20.21875 56 33.015625 56 
Q 37.15625 56 41.109375 55.140625 
Q 45.0625 54.296875 48.78125 52.59375 
z
" id="DejaVuSans-99"/>
     </defs>
     <g transform="translate(22.078125 447.907891)rotate(-90)scale(0.12 -0.12)">
      <use xlink:href="#DejaVuSans-102"/>
      <use x="35.205078" xlink:href="#DejaVuSans-97"/>
      <use x="96.484375" xlink:href="#DejaVuSans-117"/>
      <use x="159.863281" xlink:href="#DejaVuSans-108"/>
      <use x="187.646484" xlink:href="#DejaVuSans-116"/>
      <use x="226.855469" xlink:href="#DejaVuSans-32"/>
      <use x="258.642578" xlink:href="#DejaVuSans-105"/>
      <use x="286.425781" xlink:href="#DejaVuSans-110"/>
      <use x="349.804688" xlink:href="#DejaVuSans-100"/>
      <use x="413.28125" xlink:href="#DejaVuSans-105"/>
      <use x="441.064453" xlink:href="#DejaVuSans-99"/>
      <use x="496.044922" xlink:href="#DejaVuSans-97"/>
      <use x="557.324219" xlink:href="#DejaVuSans-116"/>
      <use x="596.533203" xlink:href="#DejaVuSans-111"/>
      <use x="657.714844" xlink:href="#DejaVuSans-114"/>
     </g>
    </g>
   </g>
   <g id="line2d_91">
    <path clip-path="url(#p74a4d5deb5)" d="M 54.6575 528.8125 
L 81.885911 528.8125 
L 109.114321 460.025819 
L 136.342732 484.592491 
L 163.571143 499.332494 
L 190.799554 477.222489 
L 218.027964 482.135823 
L 245.256375 511.61583 
L 272.484786 528.8125 
L 299.713196 528.8125 
L 326.941607 528.8125 
L 354.170018 521.442498 
L 381.398429 528.8125 
L 408.626839 528.8125 
L 435.85525 509.159162 
L 463.083661 528.8125 
L 490.312071 514.072497 
L 517.540482 516.529164 
L 544.768893 514.072497 
L 571.997304 516.529164 
L 599.225714 528.8125 
L 626.454125 528.8125 
L 653.682536 528.8125 
L 680.910946 528.8125 
L 708.139357 528.8125 
L 735.367768 528.8125 
L 762.596179 528.8125 
L 789.824589 521.442498 
L 817.053 499.332494 
L 844.281411 469.852487 
L 871.509821 499.332494 
L 898.738232 430.545812 
L 925.966643 499.332494 
L 953.195054 518.985831 
L 980.423464 528.8125 
L 1007.651875 528.8125 
" style="fill:none;stroke:#191970;stroke-linecap:square;stroke-width:1.5;"/>
   </g>
   <g id="line2d_92">
    <path clip-path="url(#p74a4d5deb5)" d="M 54.6575 528.8125 
L 81.885911 528.8125 
L 109.114321 376.499134 
L 136.342732 315.082455 
L 163.571143 452.655817 
L 190.799554 351.932462 
L 218.027964 435.459147 
L 245.256375 528.8125 
L 272.484786 528.8125 
L 299.713196 528.8125 
L 326.941607 528.8125 
L 354.170018 528.8125 
L 381.398429 528.8125 
L 408.626839 528.8125 
L 435.85525 528.8125 
L 463.083661 528.8125 
L 490.312071 528.8125 
L 517.540482 528.8125 
L 544.768893 528.8125 
L 571.997304 528.8125 
L 599.225714 528.8125 
L 626.454125 528.8125 
L 653.682536 528.8125 
L 680.910946 528.8125 
L 708.139357 528.8125 
L 735.367768 528.8125 
L 762.596179 528.8125 
L 789.824589 528.8125 
L 817.053 324.909123 
L 844.281411 312.625787 
L 871.509821 364.215798 
L 898.738232 342.105794 
L 925.966643 391.239137 
L 953.195054 528.8125 
L 980.423464 528.8125 
L 1007.651875 528.8125 
" style="fill:none;stroke:#006400;stroke-linecap:square;stroke-width:1.5;"/>
   </g>
   <g id="line2d_93">
    <path clip-path="url(#p74a4d5deb5)" d="M 54.6575 528.8125 
L 81.885911 528.8125 
L 109.114321 528.8125 
L 136.342732 528.8125 
L 163.571143 528.8125 
L 190.799554 528.8125 
L 218.027964 528.8125 
L 245.256375 528.8125 
L 272.484786 528.8125 
L 299.713196 528.8125 
L 326.941607 528.8125 
L 354.170018 528.8125 
L 381.398429 528.8125 
L 408.626839 528.8125 
L 435.85525 528.8125 
L 463.083661 528.8125 
L 490.312071 528.8125 
L 517.540482 528.8125 
L 544.768893 528.8125 
L 571.997304 528.8125 
L 599.225714 528.8125 
L 626.454125 528.8125 
L 653.682536 528.8125 
L 680.910946 528.8125 
L 708.139357 528.8125 
L 735.367768 528.8125 
L 762.596179 528.8125 
L 789.824589 528.8125 
L 817.053 528.8125 
L 844.281411 528.8125 
L 871.509821 528.8125 
L 898.738232 528.8125 
L 925.966643 528.8125 
L 953.195054 528.8125 
L 980.423464 528.8125 
L 1007.651875 528.8125 
" style="fill:none;stroke:#bc8f8f;stroke-linecap:square;stroke-width:1.5;"/>
   </g>
   <g id="line2d_94">
    <path clip-path="url(#p74a4d5deb5)" d="M 54.6575 528.8125 
L 81.885911 528.8125 
L 109.114321 528.8125 
L 136.342732 528.8125 
L 163.571143 528.8125 
L 190.799554 528.8125 
L 218.027964 528.8125 
L 245.256375 528.8125 
L 272.484786 528.8125 
L 299.713196 528.8125 
L 326.941607 528.8125 
L 354.170018 528.8125 
L 381.398429 528.8125 
L 408.626839 528.8125 
L 435.85525 528.8125 
L 463.083661 528.8125 
L 490.312071 528.8125 
L 517.540482 528.8125 
L 544.768893 528.8125 
L 571.997304 528.8125 
L 599.225714 528.8125 
L 626.454125 528.8125 
L 653.682536 528.8125 
L 680.910946 528.8125 
L 708.139357 528.8125 
L 735.367768 528.8125 
L 762.596179 528.8125 
L 789.824589 528.8125 
L 817.053 528.8125 
L 844.281411 528.8125 
L 871.509821 528.8125 
L 898.738232 528.8125 
L 925.966643 528.8125 
L 953.195054 528.8125 
L 980.423464 528.8125 
L 1007.651875 528.8125 
" style="fill:none;stroke:#ff4500;stroke-linecap:square;stroke-width:1.5;"/>
   </g>
   <g id="line2d_95">
    <path clip-path="url(#p74a4d5deb5)" d="M 54.6575 528.8125 
L 81.885911 528.8125 
L 109.114321 528.8125 
L 136.342732 528.8125 
L 163.571143 528.8125 
L 190.799554 528.8125 
L 218.027964 528.8125 
L 245.256375 528.8125 
L 272.484786 528.8125 
L 299.713196 528.8125 
L 326.941607 528.8125 
L 354.170018 528.8125 
L 381.398429 528.8125 
L 408.626839 528.8125 
L 435.85525 528.8125 
L 463.083661 528.8125 
L 490.312071 528.8125 
L 517.540482 528.8125 
L 544.768893 528.8125 
L 571.997304 528.8125 
L 599.225714 528.8125 
L 626.454125 528.8125 
L 653.682536 528.8125 
L 680.910946 528.8125 
L 708.139357 528.8125 
L 735.367768 528.8125 
L 762.596179 528.8125 
L 789.824589 528.8125 
L 817.053 528.8125 
L 844.281411 528.8125 
L 871.509821 528.8125 
L 898.738232 528.8125 
L 925.966643 528.8125 
L 953.195054 528.8125 
L 980.423464 528.8125 
L 1007.651875 528.8125 
" style="fill:none;stroke:#ff00ff;stroke-linecap:square;stroke-width:1.5;"/>
   </g>
   <g id="line2d_96">
    <path clip-path="url(#p74a4d5deb5)" d="M 54.6575 528.8125 
L 81.885911 528.8125 
L 109.114321 528.8125 
L 136.342732 528.8125 
L 163.571143 528.8125 
L 190.799554 528.8125 
L 218.027964 528.8125 
L 245.256375 528.8125 
L 272.484786 528.8125 
L 299.713196 528.8125 
L 326.941607 528.8125 
L 354.170018 528.8125 
L 381.398429 528.8125 
L 408.626839 528.8125 
L 435.85525 528.8125 
L 463.083661 528.8125 
L 490.312071 528.8125 
L 517.540482 528.8125 
L 544.768893 528.8125 
L 571.997304 528.8125 
L 599.225714 528.8125 
L 626.454125 528.8125 
L 653.682536 528.8125 
L 680.910946 528.8125 
L 708.139357 528.8125 
L 735.367768 528.8125 
L 762.596179 528.8125 
L 789.824589 528.8125 
L 817.053 528.8125 
L 844.281411 528.8125 
L 871.509821 528.8125 
L 898.738232 528.8125 
L 925.966643 528.8125 
L 953.195054 528.8125 
L 980.423464 528.8125 
L 1007.651875 528.8125 
" style="fill:none;stroke:#00ff00;stroke-linecap:square;stroke-width:1.5;"/>
   </g>
   <g id="line2d_97">
    <path clip-path="url(#p74a4d5deb5)" d="M 54.6575 528.8125 
L 81.885911 528.8125 
L 109.114321 528.8125 
L 136.342732 528.8125 
L 163.571143 528.8125 
L 190.799554 528.8125 
L 218.027964 528.8125 
L 245.256375 528.8125 
L 272.484786 528.8125 
L 299.713196 528.8125 
L 326.941607 528.8125 
L 354.170018 528.8125 
L 381.398429 528.8125 
L 408.626839 528.8125 
L 435.85525 528.8125 
L 463.083661 528.8125 
L 490.312071 528.8125 
L 517.540482 528.8125 
L 544.768893 528.8125 
L 571.997304 528.8125 
L 599.225714 528.8125 
L 626.454125 528.8125 
L 653.682536 528.8125 
L 680.910946 528.8125 
L 708.139357 528.8125 
L 735.367768 528.8125 
L 762.596179 528.8125 
L 789.824589 528.8125 
L 817.053 528.8125 
L 844.281411 528.8125 
L 871.509821 528.8125 
L 898.738232 528.8125 
L 925.966643 528.8125 
L 953.195054 528.8125 
L 980.423464 528.8125 
L 1007.651875 528.8125 
" style="fill:none;stroke:#00ffff;stroke-linecap:square;stroke-width:1.5;"/>
   </g>
   <g id="line2d_98">
    <path clip-path="url(#p74a4d5deb5)" d="M 54.6575 528.8125 
L 81.885911 528.8125 
L 109.114321 528.8125 
L 136.342732 528.8125 
L 163.571143 528.8125 
L 190.799554 528.8125 
L 218.027964 528.8125 
L 245.256375 528.8125 
L 272.484786 528.8125 
L 299.713196 528.8125 
L 326.941607 528.8125 
L 354.170018 528.8125 
L 381.398429 528.8125 
L 408.626839 528.8125 
L 435.85525 528.8125 
L 463.083661 528.8125 
L 490.312071 528.8125 
L 517.540482 528.8125 
L 544.768893 528.8125 
L 571.997304 528.8125 
L 599.225714 528.8125 
L 626.454125 528.8125 
L 653.682536 528.8125 
L 680.910946 528.8125 
L 708.139357 528.8125 
L 735.367768 528.8125 
L 762.596179 528.8125 
L 789.824589 528.8125 
L 817.053 528.8125 
L 844.281411 528.8125 
L 871.509821 528.8125 
L 898.738232 528.8125 
L 925.966643 528.8125 
L 953.195054 528.8125 
L 980.423464 528.8125 
L 1007.651875 528.8125 
" style="fill:none;stroke:#ffd700;stroke-linecap:square;stroke-width:1.5;"/>
   </g>
   <g id="patch_9">
    <path d="M 54.6575 528.8125 
L 54.6575 283.145781 
" style="fill:none;stroke:#000000;stroke-linecap:square;stroke-linejoin:miter;stroke-width:0.8;"/>
   </g>
   <g id="patch_10">
    <path d="M 54.6575 528.8125 
L 1007.651875 528.8125 
" style="fill:none;stroke:#000000;stroke-linecap:square;stroke-linejoin:miter;stroke-width:0.8;"/>
   </g>
  </g>
  <g id="axes_4">
   <g id="matplotlib.axis_6">
    <g id="ytick_22">
     <g id="line2d_99">
      <g>
       <use style="stroke:#000000;stroke-width:0.8;" x="1007.651875" xlink:href="#mc48716f00f" y="528.8125"/>
      </g>
     </g>
     <g id="text_33">
      <!-- 0 -->
      <g transform="translate(1014.651875 533.371562)scale(0.12 -0.12)">
       <use xlink:href="#DejaVuSans-48"/>
      </g>
     </g>
    </g>
    <g id="ytick_23">
     <g id="line2d_100">
      <g>
       <use style="stroke:#000000;stroke-width:0.8;" x="1007.651875" xlink:href="#mc48716f00f" y="283.145781"/>
      </g>
     </g>
     <g id="text_34">
      <!-- 1 -->
      <g transform="translate(1014.651875 287.704844)scale(0.12 -0.12)">
       <use xlink:href="#DejaVuSans-49"/>
      </g>
     </g>
    </g>
    <g id="ytick_24">
     <g id="line2d_101">
      <defs>
       <path d="M 0 0 
L 2 0 
" id="mefe636f515" style="stroke:#000000;stroke-width:0.6;"/>
      </defs>
      <g>
       <use style="stroke:#000000;stroke-width:0.6;" x="1007.651875" xlink:href="#mefe636f515" y="479.679156"/>
      </g>
     </g>
    </g>
    <g id="ytick_25">
     <g id="line2d_102">
      <g>
       <use style="stroke:#000000;stroke-width:0.6;" x="1007.651875" xlink:href="#mefe636f515" y="430.545812"/>
      </g>
     </g>
    </g>
    <g id="ytick_26">
     <g id="line2d_103">
      <g>
       <use style="stroke:#000000;stroke-width:0.6;" x="1007.651875" xlink:href="#mefe636f515" y="381.412469"/>
      </g>
     </g>
    </g>
    <g id="ytick_27">
     <g id="line2d_104">
      <g>
       <use style="stroke:#000000;stroke-width:0.6;" x="1007.651875" xlink:href="#mefe636f515" y="332.279125"/>
      </g>
     </g>
    </g>
    <g id="text_35">
     <!-- fault label -->
     <defs>
      <path d="M 48.6875 27.296875 
Q 48.6875 37.203125 44.609375 42.84375 
Q 40.53125 48.484375 33.40625 48.484375 
Q 26.265625 48.484375 22.1875 42.84375 
Q 18.109375 37.203125 18.109375 27.296875 
Q 18.109375 17.390625 22.1875 11.75 
Q 26.265625 6.109375 33.40625 6.109375 
Q 40.53125 6.109375 44.609375 11.75 
Q 48.6875 17.390625 48.6875 27.296875 
z
M 18.109375 46.390625 
Q 20.953125 51.265625 25.265625 53.625 
Q 29.59375 56 35.59375 56 
Q 45.5625 56 51.78125 48.09375 
Q 58.015625 40.1875 58.015625 27.296875 
Q 58.015625 14.40625 51.78125 6.484375 
Q 45.5625 -1.421875 35.59375 -1.421875 
Q 29.59375 -1.421875 25.265625 0.953125 
Q 20.953125 3.328125 18.109375 8.203125 
L 18.109375 0 
L 9.078125 0 
L 9.078125 75.984375 
L 18.109375 75.984375 
z
" id="DejaVuSans-98"/>
     </defs>
     <g transform="translate(1035.405 436.008203)rotate(-90)scale(0.12 -0.12)">
      <use xlink:href="#DejaVuSans-102"/>
      <use x="35.205078" xlink:href="#DejaVuSans-97"/>
      <use x="96.484375" xlink:href="#DejaVuSans-117"/>
      <use x="159.863281" xlink:href="#DejaVuSans-108"/>
      <use x="187.646484" xlink:href="#DejaVuSans-116"/>
      <use x="226.855469" xlink:href="#DejaVuSans-32"/>
      <use x="258.642578" xlink:href="#DejaVuSans-108"/>
      <use x="286.425781" xlink:href="#DejaVuSans-97"/>
      <use x="347.705078" xlink:href="#DejaVuSans-98"/>
      <use x="411.181641" xlink:href="#DejaVuSans-101"/>
      <use x="472.705078" xlink:href="#DejaVuSans-108"/>
     </g>
    </g>
   </g>
   <g id="line2d_105">
    <path clip-path="url(#p74a4d5deb5)" d="M 54.6575 528.8125 
L 81.885911 528.8125 
L 109.114321 283.145781 
L 136.342732 283.145781 
L 163.571143 283.145781 
L 190.799554 283.145781 
L 218.027964 283.145781 
L 245.256375 528.8125 
L 272.484786 528.8125 
L 299.713196 528.8125 
L 326.941607 528.8125 
L 354.170018 528.8125 
L 381.398429 528.8125 
L 408.626839 528.8125 
L 435.85525 528.8125 
L 463.083661 528.8125 
L 490.312071 528.8125 
L 517.540482 528.8125 
L 544.768893 528.8125 
L 571.997304 528.8125 
L 599.225714 528.8125 
L 626.454125 528.8125 
L 653.682536 528.8125 
L 680.910946 528.8125 
L 708.139357 528.8125 
L 735.367768 528.8125 
L 762.596179 528.8125 
L 789.824589 528.8125 
L 817.053 283.145781 
L 844.281411 283.145781 
L 871.509821 283.145781 
L 898.738232 283.145781 
L 925.966643 283.145781 
L 953.195054 528.8125 
L 980.423464 528.8125 
L 1007.651875 528.8125 
" style="fill:none;stroke:#6495ed;stroke-linecap:square;"/>
   </g>
   <g id="patch_11">
    <path d="M 1007.651875 528.8125 
L 1007.651875 283.145781 
" style="fill:none;stroke:#000000;stroke-linecap:square;stroke-linejoin:miter;stroke-width:0.8;"/>
   </g>
   <g id="patch_12">
    <path d="M 54.6575 528.8125 
L 1007.651875 528.8125 
" style="fill:none;stroke:#000000;stroke-linecap:square;stroke-linejoin:miter;stroke-width:0.8;"/>
   </g>
   <g id="legend_2">
    <g id="patch_13">
     <path d="M 158.405625 310.383906 
L 903.90375 310.383906 
Q 906.30375 310.383906 906.30375 307.983906 
L 906.30375 291.545781 
Q 906.30375 289.145781 903.90375 289.145781 
L 158.405625 289.145781 
Q 156.005625 289.145781 156.005625 291.545781 
L 156.005625 307.983906 
Q 156.005625 310.383906 158.405625 310.383906 
z
" style="fill:#ffffff;stroke:#cccccc;stroke-linejoin:miter;"/>
    </g>
    <g id="line2d_106">
     <path d="M 160.805625 298.863906 
L 184.805625 298.863906 
" style="fill:none;stroke:#191970;stroke-linecap:square;stroke-width:1.5;"/>
    </g>
    <g id="line2d_107"/>
    <g id="text_36">
     <!-- $\chi_{NT}$ -->
     <defs>
      <path d="M 35.75 -12.203125 
L 28.46875 6.5 
L 13.484375 -20.84375 
L 2.875 -20.84375 
L 24.078125 17.828125 
L 15.1875 40.828125 
Q 12.796875 46.96875 5.28125 46.96875 
L 2.875 46.96875 
L 2.875 54.6875 
L 6.296875 54.59375 
Q 18.890625 54.25 22.078125 46.09375 
L 29.296875 27.390625 
L 44.28125 54.734375 
L 54.890625 54.734375 
L 33.6875 16.0625 
L 42.578125 -6.9375 
Q 44.96875 -13.09375 52.484375 -13.09375 
L 54.890625 -13.09375 
L 54.890625 -20.796875 
L 51.46875 -20.703125 
Q 38.875 -20.359375 35.75 -12.203125 
z
" id="DejaVuSans-967"/>
      <path d="M 9.8125 72.90625 
L 23.09375 72.90625 
L 55.421875 11.921875 
L 55.421875 72.90625 
L 64.984375 72.90625 
L 64.984375 0 
L 51.703125 0 
L 19.390625 60.984375 
L 19.390625 0 
L 9.8125 0 
z
" id="DejaVuSans-78"/>
     </defs>
     <g transform="translate(194.405625 303.063906)scale(0.12 -0.12)">
      <use transform="translate(0 0.265625)" xlink:href="#DejaVuSans-967"/>
      <use transform="translate(58.720703 -16.140625)scale(0.7)" xlink:href="#DejaVuSans-78"/>
      <use transform="translate(111.083984 -16.140625)scale(0.7)" xlink:href="#DejaVuSans-84"/>
     </g>
    </g>
    <g id="line2d_108">
     <path d="M 237.245625 298.863906 
L 261.245625 298.863906 
" style="fill:none;stroke:#006400;stroke-linecap:square;stroke-width:1.5;"/>
    </g>
    <g id="line2d_109"/>
    <g id="text_37">
     <!-- $\chi_{VS}$ -->
     <defs>
      <path d="M 28.609375 0 
L 0.78125 72.90625 
L 11.078125 72.90625 
L 34.1875 11.53125 
L 57.328125 72.90625 
L 67.578125 72.90625 
L 39.796875 0 
z
" id="DejaVuSans-86"/>
      <path d="M 53.515625 70.515625 
L 53.515625 60.890625 
Q 47.90625 63.578125 42.921875 64.890625 
Q 37.9375 66.21875 33.296875 66.21875 
Q 25.25 66.21875 20.875 63.09375 
Q 16.5 59.96875 16.5 54.203125 
Q 16.5 49.359375 19.40625 46.890625 
Q 22.3125 44.4375 30.421875 42.921875 
L 36.375 41.703125 
Q 47.40625 39.59375 52.65625 34.296875 
Q 57.90625 29 57.90625 20.125 
Q 57.90625 9.515625 50.796875 4.046875 
Q 43.703125 -1.421875 29.984375 -1.421875 
Q 24.8125 -1.421875 18.96875 -0.25 
Q 13.140625 0.921875 6.890625 3.21875 
L 6.890625 13.375 
Q 12.890625 10.015625 18.65625 8.296875 
Q 24.421875 6.59375 29.984375 6.59375 
Q 38.421875 6.59375 43.015625 9.90625 
Q 47.609375 13.234375 47.609375 19.390625 
Q 47.609375 24.75 44.3125 27.78125 
Q 41.015625 30.8125 33.5 32.328125 
L 27.484375 33.5 
Q 16.453125 35.6875 11.515625 40.375 
Q 6.59375 45.0625 6.59375 53.421875 
Q 6.59375 63.09375 13.40625 68.65625 
Q 20.21875 74.21875 32.171875 74.21875 
Q 37.3125 74.21875 42.625 73.28125 
Q 47.953125 72.359375 53.515625 70.515625 
z
" id="DejaVuSans-83"/>
     </defs>
     <g transform="translate(270.845625 303.063906)scale(0.12 -0.12)">
      <use transform="translate(0 0.265625)" xlink:href="#DejaVuSans-967"/>
      <use transform="translate(58.720703 -16.140625)scale(0.7)" xlink:href="#DejaVuSans-86"/>
      <use transform="translate(106.606445 -16.140625)scale(0.7)" xlink:href="#DejaVuSans-83"/>
     </g>
    </g>
    <g id="line2d_110">
     <path d="M 313.325625 298.863906 
L 337.325625 298.863906 
" style="fill:none;stroke:#bc8f8f;stroke-linecap:square;stroke-width:1.5;"/>
    </g>
    <g id="line2d_111"/>
    <g id="text_38">
     <!-- $\chi_{BAT}$ -->
     <defs>
      <path d="M 19.671875 34.8125 
L 19.671875 8.109375 
L 35.5 8.109375 
Q 43.453125 8.109375 47.28125 11.40625 
Q 51.125 14.703125 51.125 21.484375 
Q 51.125 28.328125 47.28125 31.5625 
Q 43.453125 34.8125 35.5 34.8125 
z
M 19.671875 64.796875 
L 19.671875 42.828125 
L 34.28125 42.828125 
Q 41.5 42.828125 45.03125 45.53125 
Q 48.578125 48.25 48.578125 53.8125 
Q 48.578125 59.328125 45.03125 62.0625 
Q 41.5 64.796875 34.28125 64.796875 
z
M 9.8125 72.90625 
L 35.015625 72.90625 
Q 46.296875 72.90625 52.390625 68.21875 
Q 58.5 63.53125 58.5 54.890625 
Q 58.5 48.1875 55.375 44.234375 
Q 52.25 40.28125 46.1875 39.3125 
Q 53.46875 37.75 57.5 32.78125 
Q 61.53125 27.828125 61.53125 20.40625 
Q 61.53125 10.640625 54.890625 5.3125 
Q 48.25 0 35.984375 0 
L 9.8125 0 
z
" id="DejaVuSans-66"/>
      <path d="M 34.1875 63.1875 
L 20.796875 26.90625 
L 47.609375 26.90625 
z
M 28.609375 72.90625 
L 39.796875 72.90625 
L 67.578125 0 
L 57.328125 0 
L 50.6875 18.703125 
L 17.828125 18.703125 
L 11.1875 0 
L 0.78125 0 
z
" id="DejaVuSans-65"/>
     </defs>
     <g transform="translate(346.925625 303.063906)scale(0.12 -0.12)">
      <use transform="translate(0 0.265625)" xlink:href="#DejaVuSans-967"/>
      <use transform="translate(58.720703 -16.140625)scale(0.7)" xlink:href="#DejaVuSans-66"/>
      <use transform="translate(106.743164 -16.140625)scale(0.7)" xlink:href="#DejaVuSans-65"/>
      <use transform="translate(154.628906 -16.140625)scale(0.7)" xlink:href="#DejaVuSans-84"/>
     </g>
    </g>
    <g id="line2d_112">
     <path d="M 395.045625 298.863906 
L 419.045625 298.863906 
" style="fill:none;stroke:#ff4500;stroke-linecap:square;stroke-width:1.5;"/>
    </g>
    <g id="line2d_113"/>
    <g id="text_39">
     <!-- $\chi_{ART}$ -->
     <defs>
      <path d="M 44.390625 34.1875 
Q 47.5625 33.109375 50.5625 29.59375 
Q 53.5625 26.078125 56.59375 19.921875 
L 66.609375 0 
L 56 0 
L 46.6875 18.703125 
Q 43.0625 26.03125 39.671875 28.421875 
Q 36.28125 30.8125 30.421875 30.8125 
L 19.671875 30.8125 
L 19.671875 0 
L 9.8125 0 
L 9.8125 72.90625 
L 32.078125 72.90625 
Q 44.578125 72.90625 50.734375 67.671875 
Q 56.890625 62.453125 56.890625 51.90625 
Q 56.890625 45.015625 53.6875 40.46875 
Q 50.484375 35.9375 44.390625 34.1875 
z
M 19.671875 64.796875 
L 19.671875 38.921875 
L 32.078125 38.921875 
Q 39.203125 38.921875 42.84375 42.21875 
Q 46.484375 45.515625 46.484375 51.90625 
Q 46.484375 58.296875 42.84375 61.546875 
Q 39.203125 64.796875 32.078125 64.796875 
z
" id="DejaVuSans-82"/>
     </defs>
     <g transform="translate(428.645625 303.063906)scale(0.12 -0.12)">
      <use transform="translate(0 0.265625)" xlink:href="#DejaVuSans-967"/>
      <use transform="translate(58.720703 -16.140625)scale(0.7)" xlink:href="#DejaVuSans-65"/>
      <use transform="translate(106.606445 -16.140625)scale(0.7)" xlink:href="#DejaVuSans-82"/>
      <use transform="translate(155.244141 -16.140625)scale(0.7)" xlink:href="#DejaVuSans-84"/>
     </g>
    </g>
    <g id="line2d_114">
     <path d="M 476.765625 298.863906 
L 500.765625 298.863906 
" style="fill:none;stroke:#ff00ff;stroke-linecap:square;stroke-width:1.5;"/>
    </g>
    <g id="line2d_115"/>
    <g id="text_40">
     <!-- $\chi_{RST}$ -->
     <g transform="translate(510.365625 303.063906)scale(0.12 -0.12)">
      <use transform="translate(0 0.265625)" xlink:href="#DejaVuSans-967"/>
      <use transform="translate(58.720703 -16.140625)scale(0.7)" xlink:href="#DejaVuSans-82"/>
      <use transform="translate(107.358398 -16.140625)scale(0.7)" xlink:href="#DejaVuSans-83"/>
      <use transform="translate(151.791992 -16.140625)scale(0.7)" xlink:href="#DejaVuSans-84"/>
     </g>
    </g>
    <g id="line2d_116">
     <path d="M 558.125625 298.863906 
L 582.125625 298.863906 
" style="fill:none;stroke:#00ff00;stroke-linecap:square;stroke-width:1.5;"/>
    </g>
    <g id="line2d_117"/>
    <g id="text_41">
     <!-- $\chi_{IC}$ -->
     <defs>
      <path d="M 9.8125 72.90625 
L 19.671875 72.90625 
L 19.671875 0 
L 9.8125 0 
z
" id="DejaVuSans-73"/>
     </defs>
     <g transform="translate(591.725625 303.063906)scale(0.12 -0.12)">
      <use transform="translate(0 0.265625)" xlink:href="#DejaVuSans-967"/>
      <use transform="translate(58.720703 -16.140625)scale(0.7)" xlink:href="#DejaVuSans-73"/>
      <use transform="translate(79.365234 -16.140625)scale(0.7)" xlink:href="#DejaVuSans-67"/>
     </g>
    </g>
    <g id="line2d_118">
     <path d="M 631.445625 298.863906 
L 655.445625 298.863906 
" style="fill:none;stroke:#00ffff;stroke-linecap:square;stroke-width:1.5;"/>
    </g>
    <g id="line2d_119"/>
    <g id="text_42">
     <!-- $\chi_{ADC}$ -->
     <defs>
      <path d="M 19.671875 64.796875 
L 19.671875 8.109375 
L 31.59375 8.109375 
Q 46.6875 8.109375 53.6875 14.9375 
Q 60.6875 21.78125 60.6875 36.53125 
Q 60.6875 51.171875 53.6875 57.984375 
Q 46.6875 64.796875 31.59375 64.796875 
z
M 9.8125 72.90625 
L 30.078125 72.90625 
Q 51.265625 72.90625 61.171875 64.09375 
Q 71.09375 55.28125 71.09375 36.53125 
Q 71.09375 17.671875 61.125 8.828125 
Q 51.171875 0 30.078125 0 
L 9.8125 0 
z
" id="DejaVuSans-68"/>
     </defs>
     <g transform="translate(665.045625 303.063906)scale(0.12 -0.12)">
      <use transform="translate(0 0.265625)" xlink:href="#DejaVuSans-967"/>
      <use transform="translate(58.720703 -16.140625)scale(0.7)" xlink:href="#DejaVuSans-65"/>
      <use transform="translate(106.606445 -16.140625)scale(0.7)" xlink:href="#DejaVuSans-68"/>
      <use transform="translate(160.507812 -16.140625)scale(0.7)" xlink:href="#DejaVuSans-67"/>
     </g>
    </g>
    <g id="line2d_120">
     <path d="M 714.605625 298.863906 
L 738.605625 298.863906 
" style="fill:none;stroke:#ffd700;stroke-linecap:square;stroke-width:1.5;"/>
    </g>
    <g id="line2d_121"/>
    <g id="text_43">
     <!-- $\chi_{USART}$ -->
     <defs>
      <path d="M 8.6875 72.90625 
L 18.609375 72.90625 
L 18.609375 28.609375 
Q 18.609375 16.890625 22.84375 11.734375 
Q 27.09375 6.59375 36.625 6.59375 
Q 46.09375 6.59375 50.34375 11.734375 
Q 54.59375 16.890625 54.59375 28.609375 
L 54.59375 72.90625 
L 64.5 72.90625 
L 64.5 27.390625 
Q 64.5 13.140625 57.4375 5.859375 
Q 50.390625 -1.421875 36.625 -1.421875 
Q 22.796875 -1.421875 15.734375 5.859375 
Q 8.6875 13.140625 8.6875 27.390625 
z
" id="DejaVuSans-85"/>
     </defs>
     <g transform="translate(748.205625 303.063906)scale(0.12 -0.12)">
      <use transform="translate(0 0.265625)" xlink:href="#DejaVuSans-967"/>
      <use transform="translate(58.720703 -16.140625)scale(0.7)" xlink:href="#DejaVuSans-85"/>
      <use transform="translate(109.956055 -16.140625)scale(0.7)" xlink:href="#DejaVuSans-83"/>
      <use transform="translate(154.389648 -16.140625)scale(0.7)" xlink:href="#DejaVuSans-65"/>
      <use transform="translate(202.275391 -16.140625)scale(0.7)" xlink:href="#DejaVuSans-82"/>
      <use transform="translate(250.913086 -16.140625)scale(0.7)" xlink:href="#DejaVuSans-84"/>
     </g>
    </g>
    <g id="line2d_122">
     <path d="M 807.845625 298.863906 
L 831.845625 298.863906 
" style="fill:none;stroke:#6495ed;stroke-linecap:square;"/>
    </g>
    <g id="line2d_123"/>
    <g id="text_44">
     <!-- fault label -->
     <g transform="translate(841.445625 303.063906)scale(0.12 -0.12)">
      <use xlink:href="#DejaVuSans-102"/>
      <use x="35.205078" xlink:href="#DejaVuSans-97"/>
      <use x="96.484375" xlink:href="#DejaVuSans-117"/>
      <use x="159.863281" xlink:href="#DejaVuSans-108"/>
      <use x="187.646484" xlink:href="#DejaVuSans-116"/>
      <use x="226.855469" xlink:href="#DejaVuSans-32"/>
      <use x="258.642578" xlink:href="#DejaVuSans-108"/>
      <use x="286.425781" xlink:href="#DejaVuSans-97"/>
      <use x="347.705078" xlink:href="#DejaVuSans-98"/>
      <use x="411.181641" xlink:href="#DejaVuSans-101"/>
      <use x="472.705078" xlink:href="#DejaVuSans-108"/>
     </g>
    </g>
   </g>
  </g>
 </g>
 <defs>
  <clipPath id="pb4a4be538b">
   <rect height="245.666719" width="952.994375" x="54.6575" y="16.46"/>
  </clipPath>
  <clipPath id="p74a4d5deb5">
   <rect height="245.666719" width="952.994375" x="54.6575" y="283.145781"/>
  </clipPath>
 </defs>
</svg>
