<?xml version="1.0" encoding="utf-8" standalone="no"?>
<!DOCTYPE svg PUBLIC "-//W3C//DTD SVG 1.1//EN"
  "http://www.w3.org/Graphics/SVG/1.1/DTD/svg11.dtd">
<!-- Created with matplotlib (https://matplotlib.org/) -->
<svg height="288pt" version="1.1" viewBox="0 0 864 288" width="864pt" xmlns="http://www.w3.org/2000/svg" xmlns:xlink="http://www.w3.org/1999/xlink">
 <defs>
  <style type="text/css">
*{stroke-linecap:butt;stroke-linejoin:round;}
  </style>
 </defs>
 <g id="figure_1">
  <g id="patch_1">
   <path d="M 0 288 
L 864 288 
L 864 0 
L 0 0 
z
" style="fill:#ffffff;"/>
  </g>
  <g id="axes_1">
   <g id="patch_2">
    <path d="M 58.47875 240.8125 
L 847.54 240.8125 
L 847.54 16.46 
L 58.47875 16.46 
z
" style="fill:#ffffff;"/>
   </g>
   <g id="matplotlib.axis_1">
    <g id="xtick_1">
     <g id="line2d_1">
      <path clip-path="url(#p72465f2618)" d="M 58.47875 240.8125 
L 58.47875 16.46 
" style="fill:none;stroke:#cccccc;stroke-dasharray:0.8,1.32;stroke-dashoffset:0;stroke-width:0.8;"/>
     </g>
     <g id="line2d_2">
      <defs>
       <path d="M 0 0 
L 0 3.5 
" id="m058afae125" style="stroke:#000000;stroke-width:0.8;"/>
      </defs>
      <g>
       <use style="stroke:#000000;stroke-width:0.8;" x="58.47875" xlink:href="#m058afae125" y="240.8125"/>
      </g>
     </g>
     <g id="text_1">
      <!-- 0 -->
      <defs>
       <path d="M 31.78125 66.40625 
Q 24.171875 66.40625 20.328125 58.90625 
Q 16.5 51.421875 16.5 36.375 
Q 16.5 21.390625 20.328125 13.890625 
Q 24.171875 6.390625 31.78125 6.390625 
Q 39.453125 6.390625 43.28125 13.890625 
Q 47.125 21.390625 47.125 36.375 
Q 47.125 51.421875 43.28125 58.90625 
Q 39.453125 66.40625 31.78125 66.40625 
z
M 31.78125 74.21875 
Q 44.046875 74.21875 50.515625 64.515625 
Q 56.984375 54.828125 56.984375 36.375 
Q 56.984375 17.96875 50.515625 8.265625 
Q 44.046875 -1.421875 31.78125 -1.421875 
Q 19.53125 -1.421875 13.0625 8.265625 
Q 6.59375 17.96875 6.59375 36.375 
Q 6.59375 54.828125 13.0625 64.515625 
Q 19.53125 74.21875 31.78125 74.21875 
z
" id="DejaVuSans-48"/>
      </defs>
      <g transform="translate(54.66125 256.930625)scale(0.12 -0.12)">
       <use xlink:href="#DejaVuSans-48"/>
      </g>
     </g>
    </g>
    <g id="xtick_2">
     <g id="line2d_3">
      <path clip-path="url(#p72465f2618)" d="M 151.591672 240.8125 
L 151.591672 16.46 
" style="fill:none;stroke:#cccccc;stroke-dasharray:0.8,1.32;stroke-dashoffset:0;stroke-width:0.8;"/>
     </g>
     <g id="line2d_4">
      <g>
       <use style="stroke:#000000;stroke-width:0.8;" x="151.591672" xlink:href="#m058afae125" y="240.8125"/>
      </g>
     </g>
     <g id="text_2">
      <!-- 200 -->
      <defs>
       <path d="M 19.1875 8.296875 
L 53.609375 8.296875 
L 53.609375 0 
L 7.328125 0 
L 7.328125 8.296875 
Q 12.9375 14.109375 22.625 23.890625 
Q 32.328125 33.6875 34.8125 36.53125 
Q 39.546875 41.84375 41.421875 45.53125 
Q 43.3125 49.21875 43.3125 52.78125 
Q 43.3125 58.59375 39.234375 62.25 
Q 35.15625 65.921875 28.609375 65.921875 
Q 23.96875 65.921875 18.8125 64.3125 
Q 13.671875 62.703125 7.8125 59.421875 
L 7.8125 69.390625 
Q 13.765625 71.78125 18.9375 73 
Q 24.125 74.21875 28.421875 74.21875 
Q 39.75 74.21875 46.484375 68.546875 
Q 53.21875 62.890625 53.21875 53.421875 
Q 53.21875 48.921875 51.53125 44.890625 
Q 49.859375 40.875 45.40625 35.40625 
Q 44.1875 33.984375 37.640625 27.21875 
Q 31.109375 20.453125 19.1875 8.296875 
z
" id="DejaVuSans-50"/>
      </defs>
      <g transform="translate(140.139172 256.930625)scale(0.12 -0.12)">
       <use xlink:href="#DejaVuSans-50"/>
       <use x="63.623047" xlink:href="#DejaVuSans-48"/>
       <use x="127.246094" xlink:href="#DejaVuSans-48"/>
      </g>
     </g>
    </g>
    <g id="xtick_3">
     <g id="line2d_5">
      <path clip-path="url(#p72465f2618)" d="M 244.704594 240.8125 
L 244.704594 16.46 
" style="fill:none;stroke:#cccccc;stroke-dasharray:0.8,1.32;stroke-dashoffset:0;stroke-width:0.8;"/>
     </g>
     <g id="line2d_6">
      <g>
       <use style="stroke:#000000;stroke-width:0.8;" x="244.704594" xlink:href="#m058afae125" y="240.8125"/>
      </g>
     </g>
     <g id="text_3">
      <!-- 400 -->
      <defs>
       <path d="M 37.796875 64.3125 
L 12.890625 25.390625 
L 37.796875 25.390625 
z
M 35.203125 72.90625 
L 47.609375 72.90625 
L 47.609375 25.390625 
L 58.015625 25.390625 
L 58.015625 17.1875 
L 47.609375 17.1875 
L 47.609375 0 
L 37.796875 0 
L 37.796875 17.1875 
L 4.890625 17.1875 
L 4.890625 26.703125 
z
" id="DejaVuSans-52"/>
      </defs>
      <g transform="translate(233.252094 256.930625)scale(0.12 -0.12)">
       <use xlink:href="#DejaVuSans-52"/>
       <use x="63.623047" xlink:href="#DejaVuSans-48"/>
       <use x="127.246094" xlink:href="#DejaVuSans-48"/>
      </g>
     </g>
    </g>
    <g id="xtick_4">
     <g id="line2d_7">
      <path clip-path="url(#p72465f2618)" d="M 337.817517 240.8125 
L 337.817517 16.46 
" style="fill:none;stroke:#cccccc;stroke-dasharray:0.8,1.32;stroke-dashoffset:0;stroke-width:0.8;"/>
     </g>
     <g id="line2d_8">
      <g>
       <use style="stroke:#000000;stroke-width:0.8;" x="337.817517" xlink:href="#m058afae125" y="240.8125"/>
      </g>
     </g>
     <g id="text_4">
      <!-- 600 -->
      <defs>
       <path d="M 33.015625 40.375 
Q 26.375 40.375 22.484375 35.828125 
Q 18.609375 31.296875 18.609375 23.390625 
Q 18.609375 15.53125 22.484375 10.953125 
Q 26.375 6.390625 33.015625 6.390625 
Q 39.65625 6.390625 43.53125 10.953125 
Q 47.40625 15.53125 47.40625 23.390625 
Q 47.40625 31.296875 43.53125 35.828125 
Q 39.65625 40.375 33.015625 40.375 
z
M 52.59375 71.296875 
L 52.59375 62.3125 
Q 48.875 64.0625 45.09375 64.984375 
Q 41.3125 65.921875 37.59375 65.921875 
Q 27.828125 65.921875 22.671875 59.328125 
Q 17.53125 52.734375 16.796875 39.40625 
Q 19.671875 43.65625 24.015625 45.921875 
Q 28.375 48.1875 33.59375 48.1875 
Q 44.578125 48.1875 50.953125 41.515625 
Q 57.328125 34.859375 57.328125 23.390625 
Q 57.328125 12.15625 50.6875 5.359375 
Q 44.046875 -1.421875 33.015625 -1.421875 
Q 20.359375 -1.421875 13.671875 8.265625 
Q 6.984375 17.96875 6.984375 36.375 
Q 6.984375 53.65625 15.1875 63.9375 
Q 23.390625 74.21875 37.203125 74.21875 
Q 40.921875 74.21875 44.703125 73.484375 
Q 48.484375 72.75 52.59375 71.296875 
z
" id="DejaVuSans-54"/>
      </defs>
      <g transform="translate(326.365017 256.930625)scale(0.12 -0.12)">
       <use xlink:href="#DejaVuSans-54"/>
       <use x="63.623047" xlink:href="#DejaVuSans-48"/>
       <use x="127.246094" xlink:href="#DejaVuSans-48"/>
      </g>
     </g>
    </g>
    <g id="xtick_5">
     <g id="line2d_9">
      <path clip-path="url(#p72465f2618)" d="M 430.930439 240.8125 
L 430.930439 16.46 
" style="fill:none;stroke:#cccccc;stroke-dasharray:0.8,1.32;stroke-dashoffset:0;stroke-width:0.8;"/>
     </g>
     <g id="line2d_10">
      <g>
       <use style="stroke:#000000;stroke-width:0.8;" x="430.930439" xlink:href="#m058afae125" y="240.8125"/>
      </g>
     </g>
     <g id="text_5">
      <!-- 800 -->
      <defs>
       <path d="M 31.78125 34.625 
Q 24.75 34.625 20.71875 30.859375 
Q 16.703125 27.09375 16.703125 20.515625 
Q 16.703125 13.921875 20.71875 10.15625 
Q 24.75 6.390625 31.78125 6.390625 
Q 38.8125 6.390625 42.859375 10.171875 
Q 46.921875 13.96875 46.921875 20.515625 
Q 46.921875 27.09375 42.890625 30.859375 
Q 38.875 34.625 31.78125 34.625 
z
M 21.921875 38.8125 
Q 15.578125 40.375 12.03125 44.71875 
Q 8.5 49.078125 8.5 55.328125 
Q 8.5 64.0625 14.71875 69.140625 
Q 20.953125 74.21875 31.78125 74.21875 
Q 42.671875 74.21875 48.875 69.140625 
Q 55.078125 64.0625 55.078125 55.328125 
Q 55.078125 49.078125 51.53125 44.71875 
Q 48 40.375 41.703125 38.8125 
Q 48.828125 37.15625 52.796875 32.3125 
Q 56.78125 27.484375 56.78125 20.515625 
Q 56.78125 9.90625 50.3125 4.234375 
Q 43.84375 -1.421875 31.78125 -1.421875 
Q 19.734375 -1.421875 13.25 4.234375 
Q 6.78125 9.90625 6.78125 20.515625 
Q 6.78125 27.484375 10.78125 32.3125 
Q 14.796875 37.15625 21.921875 38.8125 
z
M 18.3125 54.390625 
Q 18.3125 48.734375 21.84375 45.5625 
Q 25.390625 42.390625 31.78125 42.390625 
Q 38.140625 42.390625 41.71875 45.5625 
Q 45.3125 48.734375 45.3125 54.390625 
Q 45.3125 60.0625 41.71875 63.234375 
Q 38.140625 66.40625 31.78125 66.40625 
Q 25.390625 66.40625 21.84375 63.234375 
Q 18.3125 60.0625 18.3125 54.390625 
z
" id="DejaVuSans-56"/>
      </defs>
      <g transform="translate(419.477939 256.930625)scale(0.12 -0.12)">
       <use xlink:href="#DejaVuSans-56"/>
       <use x="63.623047" xlink:href="#DejaVuSans-48"/>
       <use x="127.246094" xlink:href="#DejaVuSans-48"/>
      </g>
     </g>
    </g>
    <g id="xtick_6">
     <g id="line2d_11">
      <path clip-path="url(#p72465f2618)" d="M 524.043361 240.8125 
L 524.043361 16.46 
" style="fill:none;stroke:#cccccc;stroke-dasharray:0.8,1.32;stroke-dashoffset:0;stroke-width:0.8;"/>
     </g>
     <g id="line2d_12">
      <g>
       <use style="stroke:#000000;stroke-width:0.8;" x="524.043361" xlink:href="#m058afae125" y="240.8125"/>
      </g>
     </g>
     <g id="text_6">
      <!-- 1000 -->
      <defs>
       <path d="M 12.40625 8.296875 
L 28.515625 8.296875 
L 28.515625 63.921875 
L 10.984375 60.40625 
L 10.984375 69.390625 
L 28.421875 72.90625 
L 38.28125 72.90625 
L 38.28125 8.296875 
L 54.390625 8.296875 
L 54.390625 0 
L 12.40625 0 
z
" id="DejaVuSans-49"/>
      </defs>
      <g transform="translate(508.773361 256.930625)scale(0.12 -0.12)">
       <use xlink:href="#DejaVuSans-49"/>
       <use x="63.623047" xlink:href="#DejaVuSans-48"/>
       <use x="127.246094" xlink:href="#DejaVuSans-48"/>
       <use x="190.869141" xlink:href="#DejaVuSans-48"/>
      </g>
     </g>
    </g>
    <g id="xtick_7">
     <g id="line2d_13">
      <path clip-path="url(#p72465f2618)" d="M 617.156283 240.8125 
L 617.156283 16.46 
" style="fill:none;stroke:#cccccc;stroke-dasharray:0.8,1.32;stroke-dashoffset:0;stroke-width:0.8;"/>
     </g>
     <g id="line2d_14">
      <g>
       <use style="stroke:#000000;stroke-width:0.8;" x="617.156283" xlink:href="#m058afae125" y="240.8125"/>
      </g>
     </g>
     <g id="text_7">
      <!-- 1200 -->
      <g transform="translate(601.886283 256.930625)scale(0.12 -0.12)">
       <use xlink:href="#DejaVuSans-49"/>
       <use x="63.623047" xlink:href="#DejaVuSans-50"/>
       <use x="127.246094" xlink:href="#DejaVuSans-48"/>
       <use x="190.869141" xlink:href="#DejaVuSans-48"/>
      </g>
     </g>
    </g>
    <g id="xtick_8">
     <g id="line2d_15">
      <path clip-path="url(#p72465f2618)" d="M 710.269206 240.8125 
L 710.269206 16.46 
" style="fill:none;stroke:#cccccc;stroke-dasharray:0.8,1.32;stroke-dashoffset:0;stroke-width:0.8;"/>
     </g>
     <g id="line2d_16">
      <g>
       <use style="stroke:#000000;stroke-width:0.8;" x="710.269206" xlink:href="#m058afae125" y="240.8125"/>
      </g>
     </g>
     <g id="text_8">
      <!-- 1400 -->
      <g transform="translate(694.999206 256.930625)scale(0.12 -0.12)">
       <use xlink:href="#DejaVuSans-49"/>
       <use x="63.623047" xlink:href="#DejaVuSans-52"/>
       <use x="127.246094" xlink:href="#DejaVuSans-48"/>
       <use x="190.869141" xlink:href="#DejaVuSans-48"/>
      </g>
     </g>
    </g>
    <g id="xtick_9">
     <g id="line2d_17">
      <path clip-path="url(#p72465f2618)" d="M 803.382128 240.8125 
L 803.382128 16.46 
" style="fill:none;stroke:#cccccc;stroke-dasharray:0.8,1.32;stroke-dashoffset:0;stroke-width:0.8;"/>
     </g>
     <g id="line2d_18">
      <g>
       <use style="stroke:#000000;stroke-width:0.8;" x="803.382128" xlink:href="#m058afae125" y="240.8125"/>
      </g>
     </g>
     <g id="text_9">
      <!-- 1600 -->
      <g transform="translate(788.112128 256.930625)scale(0.12 -0.12)">
       <use xlink:href="#DejaVuSans-49"/>
       <use x="63.623047" xlink:href="#DejaVuSans-54"/>
       <use x="127.246094" xlink:href="#DejaVuSans-48"/>
       <use x="190.869141" xlink:href="#DejaVuSans-48"/>
      </g>
     </g>
    </g>
    <g id="xtick_10">
     <g id="line2d_19">
      <defs>
       <path d="M 0 0 
L 0 2 
" id="m88becd8a6b" style="stroke:#000000;stroke-width:0.6;"/>
      </defs>
      <g>
       <use style="stroke:#000000;stroke-width:0.6;" x="105.035211" xlink:href="#m88becd8a6b" y="240.8125"/>
      </g>
     </g>
    </g>
    <g id="xtick_11">
     <g id="line2d_20">
      <g>
       <use style="stroke:#000000;stroke-width:0.6;" x="198.148133" xlink:href="#m88becd8a6b" y="240.8125"/>
      </g>
     </g>
    </g>
    <g id="xtick_12">
     <g id="line2d_21">
      <g>
       <use style="stroke:#000000;stroke-width:0.6;" x="291.261056" xlink:href="#m88becd8a6b" y="240.8125"/>
      </g>
     </g>
    </g>
    <g id="xtick_13">
     <g id="line2d_22">
      <g>
       <use style="stroke:#000000;stroke-width:0.6;" x="384.373978" xlink:href="#m88becd8a6b" y="240.8125"/>
      </g>
     </g>
    </g>
    <g id="xtick_14">
     <g id="line2d_23">
      <g>
       <use style="stroke:#000000;stroke-width:0.6;" x="477.4869" xlink:href="#m88becd8a6b" y="240.8125"/>
      </g>
     </g>
    </g>
    <g id="xtick_15">
     <g id="line2d_24">
      <g>
       <use style="stroke:#000000;stroke-width:0.6;" x="570.599822" xlink:href="#m88becd8a6b" y="240.8125"/>
      </g>
     </g>
    </g>
    <g id="xtick_16">
     <g id="line2d_25">
      <g>
       <use style="stroke:#000000;stroke-width:0.6;" x="663.712744" xlink:href="#m88becd8a6b" y="240.8125"/>
      </g>
     </g>
    </g>
    <g id="xtick_17">
     <g id="line2d_26">
      <g>
       <use style="stroke:#000000;stroke-width:0.6;" x="756.825667" xlink:href="#m88becd8a6b" y="240.8125"/>
      </g>
     </g>
    </g>
    <g id="text_10">
     <!-- time [ms] -->
     <defs>
      <path d="M 18.3125 70.21875 
L 18.3125 54.6875 
L 36.8125 54.6875 
L 36.8125 47.703125 
L 18.3125 47.703125 
L 18.3125 18.015625 
Q 18.3125 11.328125 20.140625 9.421875 
Q 21.96875 7.515625 27.59375 7.515625 
L 36.8125 7.515625 
L 36.8125 0 
L 27.59375 0 
Q 17.1875 0 13.234375 3.875 
Q 9.28125 7.765625 9.28125 18.015625 
L 9.28125 47.703125 
L 2.6875 47.703125 
L 2.6875 54.6875 
L 9.28125 54.6875 
L 9.28125 70.21875 
z
" id="DejaVuSans-116"/>
      <path d="M 9.421875 54.6875 
L 18.40625 54.6875 
L 18.40625 0 
L 9.421875 0 
z
M 9.421875 75.984375 
L 18.40625 75.984375 
L 18.40625 64.59375 
L 9.421875 64.59375 
z
" id="DejaVuSans-105"/>
      <path d="M 52 44.1875 
Q 55.375 50.25 60.0625 53.125 
Q 64.75 56 71.09375 56 
Q 79.640625 56 84.28125 50.015625 
Q 88.921875 44.046875 88.921875 33.015625 
L 88.921875 0 
L 79.890625 0 
L 79.890625 32.71875 
Q 79.890625 40.578125 77.09375 44.375 
Q 74.3125 48.1875 68.609375 48.1875 
Q 61.625 48.1875 57.5625 43.546875 
Q 53.515625 38.921875 53.515625 30.90625 
L 53.515625 0 
L 44.484375 0 
L 44.484375 32.71875 
Q 44.484375 40.625 41.703125 44.40625 
Q 38.921875 48.1875 33.109375 48.1875 
Q 26.21875 48.1875 22.15625 43.53125 
Q 18.109375 38.875 18.109375 30.90625 
L 18.109375 0 
L 9.078125 0 
L 9.078125 54.6875 
L 18.109375 54.6875 
L 18.109375 46.1875 
Q 21.1875 51.21875 25.484375 53.609375 
Q 29.78125 56 35.6875 56 
Q 41.65625 56 45.828125 52.96875 
Q 50 49.953125 52 44.1875 
z
" id="DejaVuSans-109"/>
      <path d="M 56.203125 29.59375 
L 56.203125 25.203125 
L 14.890625 25.203125 
Q 15.484375 15.921875 20.484375 11.0625 
Q 25.484375 6.203125 34.421875 6.203125 
Q 39.59375 6.203125 44.453125 7.46875 
Q 49.3125 8.734375 54.109375 11.28125 
L 54.109375 2.78125 
Q 49.265625 0.734375 44.1875 -0.34375 
Q 39.109375 -1.421875 33.890625 -1.421875 
Q 20.796875 -1.421875 13.15625 6.1875 
Q 5.515625 13.8125 5.515625 26.8125 
Q 5.515625 40.234375 12.765625 48.109375 
Q 20.015625 56 32.328125 56 
Q 43.359375 56 49.78125 48.890625 
Q 56.203125 41.796875 56.203125 29.59375 
z
M 47.21875 32.234375 
Q 47.125 39.59375 43.09375 43.984375 
Q 39.0625 48.390625 32.421875 48.390625 
Q 24.90625 48.390625 20.390625 44.140625 
Q 15.875 39.890625 15.1875 32.171875 
z
" id="DejaVuSans-101"/>
      <path id="DejaVuSans-32"/>
      <path d="M 8.59375 75.984375 
L 29.296875 75.984375 
L 29.296875 69 
L 17.578125 69 
L 17.578125 -6.203125 
L 29.296875 -6.203125 
L 29.296875 -13.1875 
L 8.59375 -13.1875 
z
" id="DejaVuSans-91"/>
      <path d="M 44.28125 53.078125 
L 44.28125 44.578125 
Q 40.484375 46.53125 36.375 47.5 
Q 32.28125 48.484375 27.875 48.484375 
Q 21.1875 48.484375 17.84375 46.4375 
Q 14.5 44.390625 14.5 40.28125 
Q 14.5 37.15625 16.890625 35.375 
Q 19.28125 33.59375 26.515625 31.984375 
L 29.59375 31.296875 
Q 39.15625 29.25 43.1875 25.515625 
Q 47.21875 21.78125 47.21875 15.09375 
Q 47.21875 7.46875 41.1875 3.015625 
Q 35.15625 -1.421875 24.609375 -1.421875 
Q 20.21875 -1.421875 15.453125 -0.5625 
Q 10.6875 0.296875 5.421875 2 
L 5.421875 11.28125 
Q 10.40625 8.6875 15.234375 7.390625 
Q 20.0625 6.109375 24.8125 6.109375 
Q 31.15625 6.109375 34.5625 8.28125 
Q 37.984375 10.453125 37.984375 14.40625 
Q 37.984375 18.0625 35.515625 20.015625 
Q 33.0625 21.96875 24.703125 23.78125 
L 21.578125 24.515625 
Q 13.234375 26.265625 9.515625 29.90625 
Q 5.8125 33.546875 5.8125 39.890625 
Q 5.8125 47.609375 11.28125 51.796875 
Q 16.75 56 26.8125 56 
Q 31.78125 56 36.171875 55.265625 
Q 40.578125 54.546875 44.28125 53.078125 
z
" id="DejaVuSans-115"/>
      <path d="M 30.421875 75.984375 
L 30.421875 -13.1875 
L 9.71875 -13.1875 
L 9.71875 -6.203125 
L 21.390625 -6.203125 
L 21.390625 69 
L 9.71875 69 
L 9.71875 75.984375 
z
" id="DejaVuSans-93"/>
     </defs>
     <g transform="translate(423.895312 272.544375)scale(0.12 -0.12)">
      <use xlink:href="#DejaVuSans-116"/>
      <use x="39.208984" xlink:href="#DejaVuSans-105"/>
      <use x="66.992188" xlink:href="#DejaVuSans-109"/>
      <use x="164.404297" xlink:href="#DejaVuSans-101"/>
      <use x="225.927734" xlink:href="#DejaVuSans-32"/>
      <use x="257.714844" xlink:href="#DejaVuSans-91"/>
      <use x="296.728516" xlink:href="#DejaVuSans-109"/>
      <use x="394.140625" xlink:href="#DejaVuSans-115"/>
      <use x="446.240234" xlink:href="#DejaVuSans-93"/>
     </g>
    </g>
   </g>
   <g id="matplotlib.axis_2">
    <g id="ytick_1">
     <g id="line2d_27">
      <path clip-path="url(#p72465f2618)" d="M 58.47875 240.8125 
L 847.54 240.8125 
" style="fill:none;stroke:#cccccc;stroke-dasharray:0.8,1.32;stroke-dashoffset:0;stroke-width:0.8;"/>
     </g>
     <g id="line2d_28">
      <defs>
       <path d="M 0 0 
L -3.5 0 
" id="ma33c74d6b7" style="stroke:#000000;stroke-width:0.8;"/>
      </defs>
      <g>
       <use style="stroke:#000000;stroke-width:0.8;" x="58.47875" xlink:href="#ma33c74d6b7" y="240.8125"/>
      </g>
     </g>
     <g id="text_11">
      <!-- 0 -->
      <g transform="translate(43.84375 245.371563)scale(0.12 -0.12)">
       <use xlink:href="#DejaVuSans-48"/>
      </g>
     </g>
    </g>
    <g id="ytick_2">
     <g id="line2d_29">
      <path clip-path="url(#p72465f2618)" d="M 58.47875 219.445595 
L 847.54 219.445595 
" style="fill:none;stroke:#cccccc;stroke-dasharray:0.8,1.32;stroke-dashoffset:0;stroke-width:0.8;"/>
     </g>
     <g id="line2d_30">
      <g>
       <use style="stroke:#000000;stroke-width:0.8;" x="58.47875" xlink:href="#ma33c74d6b7" y="219.445595"/>
      </g>
     </g>
     <g id="text_12">
      <!-- 10 -->
      <g transform="translate(36.20875 224.004658)scale(0.12 -0.12)">
       <use xlink:href="#DejaVuSans-49"/>
       <use x="63.623047" xlink:href="#DejaVuSans-48"/>
      </g>
     </g>
    </g>
    <g id="ytick_3">
     <g id="line2d_31">
      <path clip-path="url(#p72465f2618)" d="M 58.47875 198.07869 
L 847.54 198.07869 
" style="fill:none;stroke:#cccccc;stroke-dasharray:0.8,1.32;stroke-dashoffset:0;stroke-width:0.8;"/>
     </g>
     <g id="line2d_32">
      <g>
       <use style="stroke:#000000;stroke-width:0.8;" x="58.47875" xlink:href="#ma33c74d6b7" y="198.07869"/>
      </g>
     </g>
     <g id="text_13">
      <!-- 20 -->
      <g transform="translate(36.20875 202.637753)scale(0.12 -0.12)">
       <use xlink:href="#DejaVuSans-50"/>
       <use x="63.623047" xlink:href="#DejaVuSans-48"/>
      </g>
     </g>
    </g>
    <g id="ytick_4">
     <g id="line2d_33">
      <path clip-path="url(#p72465f2618)" d="M 58.47875 176.711786 
L 847.54 176.711786 
" style="fill:none;stroke:#cccccc;stroke-dasharray:0.8,1.32;stroke-dashoffset:0;stroke-width:0.8;"/>
     </g>
     <g id="line2d_34">
      <g>
       <use style="stroke:#000000;stroke-width:0.8;" x="58.47875" xlink:href="#ma33c74d6b7" y="176.711786"/>
      </g>
     </g>
     <g id="text_14">
      <!-- 30 -->
      <defs>
       <path d="M 40.578125 39.3125 
Q 47.65625 37.796875 51.625 33 
Q 55.609375 28.21875 55.609375 21.1875 
Q 55.609375 10.40625 48.1875 4.484375 
Q 40.765625 -1.421875 27.09375 -1.421875 
Q 22.515625 -1.421875 17.65625 -0.515625 
Q 12.796875 0.390625 7.625 2.203125 
L 7.625 11.71875 
Q 11.71875 9.328125 16.59375 8.109375 
Q 21.484375 6.890625 26.8125 6.890625 
Q 36.078125 6.890625 40.9375 10.546875 
Q 45.796875 14.203125 45.796875 21.1875 
Q 45.796875 27.640625 41.28125 31.265625 
Q 36.765625 34.90625 28.71875 34.90625 
L 20.21875 34.90625 
L 20.21875 43.015625 
L 29.109375 43.015625 
Q 36.375 43.015625 40.234375 45.921875 
Q 44.09375 48.828125 44.09375 54.296875 
Q 44.09375 59.90625 40.109375 62.90625 
Q 36.140625 65.921875 28.71875 65.921875 
Q 24.65625 65.921875 20.015625 65.03125 
Q 15.375 64.15625 9.8125 62.3125 
L 9.8125 71.09375 
Q 15.4375 72.65625 20.34375 73.4375 
Q 25.25 74.21875 29.59375 74.21875 
Q 40.828125 74.21875 47.359375 69.109375 
Q 53.90625 64.015625 53.90625 55.328125 
Q 53.90625 49.265625 50.4375 45.09375 
Q 46.96875 40.921875 40.578125 39.3125 
z
" id="DejaVuSans-51"/>
      </defs>
      <g transform="translate(36.20875 181.270848)scale(0.12 -0.12)">
       <use xlink:href="#DejaVuSans-51"/>
       <use x="63.623047" xlink:href="#DejaVuSans-48"/>
      </g>
     </g>
    </g>
    <g id="ytick_5">
     <g id="line2d_35">
      <path clip-path="url(#p72465f2618)" d="M 58.47875 155.344881 
L 847.54 155.344881 
" style="fill:none;stroke:#cccccc;stroke-dasharray:0.8,1.32;stroke-dashoffset:0;stroke-width:0.8;"/>
     </g>
     <g id="line2d_36">
      <g>
       <use style="stroke:#000000;stroke-width:0.8;" x="58.47875" xlink:href="#ma33c74d6b7" y="155.344881"/>
      </g>
     </g>
     <g id="text_15">
      <!-- 40 -->
      <g transform="translate(36.20875 159.903943)scale(0.12 -0.12)">
       <use xlink:href="#DejaVuSans-52"/>
       <use x="63.623047" xlink:href="#DejaVuSans-48"/>
      </g>
     </g>
    </g>
    <g id="ytick_6">
     <g id="line2d_37">
      <path clip-path="url(#p72465f2618)" d="M 58.47875 133.977976 
L 847.54 133.977976 
" style="fill:none;stroke:#cccccc;stroke-dasharray:0.8,1.32;stroke-dashoffset:0;stroke-width:0.8;"/>
     </g>
     <g id="line2d_38">
      <g>
       <use style="stroke:#000000;stroke-width:0.8;" x="58.47875" xlink:href="#ma33c74d6b7" y="133.977976"/>
      </g>
     </g>
     <g id="text_16">
      <!-- 50 -->
      <defs>
       <path d="M 10.796875 72.90625 
L 49.515625 72.90625 
L 49.515625 64.59375 
L 19.828125 64.59375 
L 19.828125 46.734375 
Q 21.96875 47.46875 24.109375 47.828125 
Q 26.265625 48.1875 28.421875 48.1875 
Q 40.625 48.1875 47.75 41.5 
Q 54.890625 34.8125 54.890625 23.390625 
Q 54.890625 11.625 47.5625 5.09375 
Q 40.234375 -1.421875 26.90625 -1.421875 
Q 22.3125 -1.421875 17.546875 -0.640625 
Q 12.796875 0.140625 7.71875 1.703125 
L 7.71875 11.625 
Q 12.109375 9.234375 16.796875 8.0625 
Q 21.484375 6.890625 26.703125 6.890625 
Q 35.15625 6.890625 40.078125 11.328125 
Q 45.015625 15.765625 45.015625 23.390625 
Q 45.015625 31 40.078125 35.4375 
Q 35.15625 39.890625 26.703125 39.890625 
Q 22.75 39.890625 18.8125 39.015625 
Q 14.890625 38.140625 10.796875 36.28125 
z
" id="DejaVuSans-53"/>
      </defs>
      <g transform="translate(36.20875 138.537039)scale(0.12 -0.12)">
       <use xlink:href="#DejaVuSans-53"/>
       <use x="63.623047" xlink:href="#DejaVuSans-48"/>
      </g>
     </g>
    </g>
    <g id="ytick_7">
     <g id="line2d_39">
      <path clip-path="url(#p72465f2618)" d="M 58.47875 112.611071 
L 847.54 112.611071 
" style="fill:none;stroke:#cccccc;stroke-dasharray:0.8,1.32;stroke-dashoffset:0;stroke-width:0.8;"/>
     </g>
     <g id="line2d_40">
      <g>
       <use style="stroke:#000000;stroke-width:0.8;" x="58.47875" xlink:href="#ma33c74d6b7" y="112.611071"/>
      </g>
     </g>
     <g id="text_17">
      <!-- 60 -->
      <g transform="translate(36.20875 117.170134)scale(0.12 -0.12)">
       <use xlink:href="#DejaVuSans-54"/>
       <use x="63.623047" xlink:href="#DejaVuSans-48"/>
      </g>
     </g>
    </g>
    <g id="ytick_8">
     <g id="line2d_41">
      <path clip-path="url(#p72465f2618)" d="M 58.47875 91.244167 
L 847.54 91.244167 
" style="fill:none;stroke:#cccccc;stroke-dasharray:0.8,1.32;stroke-dashoffset:0;stroke-width:0.8;"/>
     </g>
     <g id="line2d_42">
      <g>
       <use style="stroke:#000000;stroke-width:0.8;" x="58.47875" xlink:href="#ma33c74d6b7" y="91.244167"/>
      </g>
     </g>
     <g id="text_18">
      <!-- 70 -->
      <defs>
       <path d="M 8.203125 72.90625 
L 55.078125 72.90625 
L 55.078125 68.703125 
L 28.609375 0 
L 18.3125 0 
L 43.21875 64.59375 
L 8.203125 64.59375 
z
" id="DejaVuSans-55"/>
      </defs>
      <g transform="translate(36.20875 95.803229)scale(0.12 -0.12)">
       <use xlink:href="#DejaVuSans-55"/>
       <use x="63.623047" xlink:href="#DejaVuSans-48"/>
      </g>
     </g>
    </g>
    <g id="ytick_9">
     <g id="line2d_43">
      <path clip-path="url(#p72465f2618)" d="M 58.47875 69.877262 
L 847.54 69.877262 
" style="fill:none;stroke:#cccccc;stroke-dasharray:0.8,1.32;stroke-dashoffset:0;stroke-width:0.8;"/>
     </g>
     <g id="line2d_44">
      <g>
       <use style="stroke:#000000;stroke-width:0.8;" x="58.47875" xlink:href="#ma33c74d6b7" y="69.877262"/>
      </g>
     </g>
     <g id="text_19">
      <!-- 80 -->
      <g transform="translate(36.20875 74.436324)scale(0.12 -0.12)">
       <use xlink:href="#DejaVuSans-56"/>
       <use x="63.623047" xlink:href="#DejaVuSans-48"/>
      </g>
     </g>
    </g>
    <g id="ytick_10">
     <g id="line2d_45">
      <path clip-path="url(#p72465f2618)" d="M 58.47875 48.510357 
L 847.54 48.510357 
" style="fill:none;stroke:#cccccc;stroke-dasharray:0.8,1.32;stroke-dashoffset:0;stroke-width:0.8;"/>
     </g>
     <g id="line2d_46">
      <g>
       <use style="stroke:#000000;stroke-width:0.8;" x="58.47875" xlink:href="#ma33c74d6b7" y="48.510357"/>
      </g>
     </g>
     <g id="text_20">
      <!-- 90 -->
      <defs>
       <path d="M 10.984375 1.515625 
L 10.984375 10.5 
Q 14.703125 8.734375 18.5 7.8125 
Q 22.3125 6.890625 25.984375 6.890625 
Q 35.75 6.890625 40.890625 13.453125 
Q 46.046875 20.015625 46.78125 33.40625 
Q 43.953125 29.203125 39.59375 26.953125 
Q 35.25 24.703125 29.984375 24.703125 
Q 19.046875 24.703125 12.671875 31.3125 
Q 6.296875 37.9375 6.296875 49.421875 
Q 6.296875 60.640625 12.9375 67.421875 
Q 19.578125 74.21875 30.609375 74.21875 
Q 43.265625 74.21875 49.921875 64.515625 
Q 56.59375 54.828125 56.59375 36.375 
Q 56.59375 19.140625 48.40625 8.859375 
Q 40.234375 -1.421875 26.421875 -1.421875 
Q 22.703125 -1.421875 18.890625 -0.6875 
Q 15.09375 0.046875 10.984375 1.515625 
z
M 30.609375 32.421875 
Q 37.25 32.421875 41.125 36.953125 
Q 45.015625 41.5 45.015625 49.421875 
Q 45.015625 57.28125 41.125 61.84375 
Q 37.25 66.40625 30.609375 66.40625 
Q 23.96875 66.40625 20.09375 61.84375 
Q 16.21875 57.28125 16.21875 49.421875 
Q 16.21875 41.5 20.09375 36.953125 
Q 23.96875 32.421875 30.609375 32.421875 
z
" id="DejaVuSans-57"/>
      </defs>
      <g transform="translate(36.20875 53.06942)scale(0.12 -0.12)">
       <use xlink:href="#DejaVuSans-57"/>
       <use x="63.623047" xlink:href="#DejaVuSans-48"/>
      </g>
     </g>
    </g>
    <g id="ytick_11">
     <g id="line2d_47">
      <path clip-path="url(#p72465f2618)" d="M 58.47875 27.143452 
L 847.54 27.143452 
" style="fill:none;stroke:#cccccc;stroke-dasharray:0.8,1.32;stroke-dashoffset:0;stroke-width:0.8;"/>
     </g>
     <g id="line2d_48">
      <g>
       <use style="stroke:#000000;stroke-width:0.8;" x="58.47875" xlink:href="#ma33c74d6b7" y="27.143452"/>
      </g>
     </g>
     <g id="text_21">
      <!-- 100 -->
      <g transform="translate(28.57375 31.702515)scale(0.12 -0.12)">
       <use xlink:href="#DejaVuSans-49"/>
       <use x="63.623047" xlink:href="#DejaVuSans-48"/>
       <use x="127.246094" xlink:href="#DejaVuSans-48"/>
      </g>
     </g>
    </g>
    <g id="ytick_12">
     <g id="line2d_49">
      <defs>
       <path d="M 0 0 
L -2 0 
" id="me4b77949df" style="stroke:#000000;stroke-width:0.6;"/>
      </defs>
      <g>
       <use style="stroke:#000000;stroke-width:0.6;" x="58.47875" xlink:href="#me4b77949df" y="230.129048"/>
      </g>
     </g>
    </g>
    <g id="ytick_13">
     <g id="line2d_50">
      <g>
       <use style="stroke:#000000;stroke-width:0.6;" x="58.47875" xlink:href="#me4b77949df" y="208.762143"/>
      </g>
     </g>
    </g>
    <g id="ytick_14">
     <g id="line2d_51">
      <g>
       <use style="stroke:#000000;stroke-width:0.6;" x="58.47875" xlink:href="#me4b77949df" y="187.395238"/>
      </g>
     </g>
    </g>
    <g id="ytick_15">
     <g id="line2d_52">
      <g>
       <use style="stroke:#000000;stroke-width:0.6;" x="58.47875" xlink:href="#me4b77949df" y="166.028333"/>
      </g>
     </g>
    </g>
    <g id="ytick_16">
     <g id="line2d_53">
      <g>
       <use style="stroke:#000000;stroke-width:0.6;" x="58.47875" xlink:href="#me4b77949df" y="144.661429"/>
      </g>
     </g>
    </g>
    <g id="ytick_17">
     <g id="line2d_54">
      <g>
       <use style="stroke:#000000;stroke-width:0.6;" x="58.47875" xlink:href="#me4b77949df" y="123.294524"/>
      </g>
     </g>
    </g>
    <g id="ytick_18">
     <g id="line2d_55">
      <g>
       <use style="stroke:#000000;stroke-width:0.6;" x="58.47875" xlink:href="#me4b77949df" y="101.927619"/>
      </g>
     </g>
    </g>
    <g id="ytick_19">
     <g id="line2d_56">
      <g>
       <use style="stroke:#000000;stroke-width:0.6;" x="58.47875" xlink:href="#me4b77949df" y="80.560714"/>
      </g>
     </g>
    </g>
    <g id="ytick_20">
     <g id="line2d_57">
      <g>
       <use style="stroke:#000000;stroke-width:0.6;" x="58.47875" xlink:href="#me4b77949df" y="59.19381"/>
      </g>
     </g>
    </g>
    <g id="ytick_21">
     <g id="line2d_58">
      <g>
       <use style="stroke:#000000;stroke-width:0.6;" x="58.47875" xlink:href="#me4b77949df" y="37.826905"/>
      </g>
     </g>
    </g>
    <g id="ytick_22">
     <g id="line2d_59">
      <g>
       <use style="stroke:#000000;stroke-width:0.6;" x="58.47875" xlink:href="#me4b77949df" y="16.46"/>
      </g>
     </g>
    </g>
    <g id="text_22">
     <!-- power consumption [mW] -->
     <defs>
      <path d="M 18.109375 8.203125 
L 18.109375 -20.796875 
L 9.078125 -20.796875 
L 9.078125 54.6875 
L 18.109375 54.6875 
L 18.109375 46.390625 
Q 20.953125 51.265625 25.265625 53.625 
Q 29.59375 56 35.59375 56 
Q 45.5625 56 51.78125 48.09375 
Q 58.015625 40.1875 58.015625 27.296875 
Q 58.015625 14.40625 51.78125 6.484375 
Q 45.5625 -1.421875 35.59375 -1.421875 
Q 29.59375 -1.421875 25.265625 0.953125 
Q 20.953125 3.328125 18.109375 8.203125 
z
M 48.6875 27.296875 
Q 48.6875 37.203125 44.609375 42.84375 
Q 40.53125 48.484375 33.40625 48.484375 
Q 26.265625 48.484375 22.1875 42.84375 
Q 18.109375 37.203125 18.109375 27.296875 
Q 18.109375 17.390625 22.1875 11.75 
Q 26.265625 6.109375 33.40625 6.109375 
Q 40.53125 6.109375 44.609375 11.75 
Q 48.6875 17.390625 48.6875 27.296875 
z
" id="DejaVuSans-112"/>
      <path d="M 30.609375 48.390625 
Q 23.390625 48.390625 19.1875 42.75 
Q 14.984375 37.109375 14.984375 27.296875 
Q 14.984375 17.484375 19.15625 11.84375 
Q 23.34375 6.203125 30.609375 6.203125 
Q 37.796875 6.203125 41.984375 11.859375 
Q 46.1875 17.53125 46.1875 27.296875 
Q 46.1875 37.015625 41.984375 42.703125 
Q 37.796875 48.390625 30.609375 48.390625 
z
M 30.609375 56 
Q 42.328125 56 49.015625 48.375 
Q 55.71875 40.765625 55.71875 27.296875 
Q 55.71875 13.875 49.015625 6.21875 
Q 42.328125 -1.421875 30.609375 -1.421875 
Q 18.84375 -1.421875 12.171875 6.21875 
Q 5.515625 13.875 5.515625 27.296875 
Q 5.515625 40.765625 12.171875 48.375 
Q 18.84375 56 30.609375 56 
z
" id="DejaVuSans-111"/>
      <path d="M 4.203125 54.6875 
L 13.1875 54.6875 
L 24.421875 12.015625 
L 35.59375 54.6875 
L 46.1875 54.6875 
L 57.421875 12.015625 
L 68.609375 54.6875 
L 77.59375 54.6875 
L 63.28125 0 
L 52.6875 0 
L 40.921875 44.828125 
L 29.109375 0 
L 18.5 0 
z
" id="DejaVuSans-119"/>
      <path d="M 41.109375 46.296875 
Q 39.59375 47.171875 37.8125 47.578125 
Q 36.03125 48 33.890625 48 
Q 26.265625 48 22.1875 43.046875 
Q 18.109375 38.09375 18.109375 28.8125 
L 18.109375 0 
L 9.078125 0 
L 9.078125 54.6875 
L 18.109375 54.6875 
L 18.109375 46.1875 
Q 20.953125 51.171875 25.484375 53.578125 
Q 30.03125 56 36.53125 56 
Q 37.453125 56 38.578125 55.875 
Q 39.703125 55.765625 41.0625 55.515625 
z
" id="DejaVuSans-114"/>
      <path d="M 48.78125 52.59375 
L 48.78125 44.1875 
Q 44.96875 46.296875 41.140625 47.34375 
Q 37.3125 48.390625 33.40625 48.390625 
Q 24.65625 48.390625 19.8125 42.84375 
Q 14.984375 37.3125 14.984375 27.296875 
Q 14.984375 17.28125 19.8125 11.734375 
Q 24.65625 6.203125 33.40625 6.203125 
Q 37.3125 6.203125 41.140625 7.25 
Q 44.96875 8.296875 48.78125 10.40625 
L 48.78125 2.09375 
Q 45.015625 0.34375 40.984375 -0.53125 
Q 36.96875 -1.421875 32.421875 -1.421875 
Q 20.0625 -1.421875 12.78125 6.34375 
Q 5.515625 14.109375 5.515625 27.296875 
Q 5.515625 40.671875 12.859375 48.328125 
Q 20.21875 56 33.015625 56 
Q 37.15625 56 41.109375 55.140625 
Q 45.0625 54.296875 48.78125 52.59375 
z
" id="DejaVuSans-99"/>
      <path d="M 54.890625 33.015625 
L 54.890625 0 
L 45.90625 0 
L 45.90625 32.71875 
Q 45.90625 40.484375 42.875 44.328125 
Q 39.84375 48.1875 33.796875 48.1875 
Q 26.515625 48.1875 22.3125 43.546875 
Q 18.109375 38.921875 18.109375 30.90625 
L 18.109375 0 
L 9.078125 0 
L 9.078125 54.6875 
L 18.109375 54.6875 
L 18.109375 46.1875 
Q 21.34375 51.125 25.703125 53.5625 
Q 30.078125 56 35.796875 56 
Q 45.21875 56 50.046875 50.171875 
Q 54.890625 44.34375 54.890625 33.015625 
z
" id="DejaVuSans-110"/>
      <path d="M 8.5 21.578125 
L 8.5 54.6875 
L 17.484375 54.6875 
L 17.484375 21.921875 
Q 17.484375 14.15625 20.5 10.265625 
Q 23.53125 6.390625 29.59375 6.390625 
Q 36.859375 6.390625 41.078125 11.03125 
Q 45.3125 15.671875 45.3125 23.6875 
L 45.3125 54.6875 
L 54.296875 54.6875 
L 54.296875 0 
L 45.3125 0 
L 45.3125 8.40625 
Q 42.046875 3.421875 37.71875 1 
Q 33.40625 -1.421875 27.6875 -1.421875 
Q 18.265625 -1.421875 13.375 4.4375 
Q 8.5 10.296875 8.5 21.578125 
z
M 31.109375 56 
z
" id="DejaVuSans-117"/>
      <path d="M 3.328125 72.90625 
L 13.28125 72.90625 
L 28.609375 11.28125 
L 43.890625 72.90625 
L 54.984375 72.90625 
L 70.3125 11.28125 
L 85.59375 72.90625 
L 95.609375 72.90625 
L 77.296875 0 
L 64.890625 0 
L 49.515625 63.28125 
L 33.984375 0 
L 21.578125 0 
z
" id="DejaVuSans-87"/>
     </defs>
     <g transform="translate(22.078125 206.301563)rotate(-90)scale(0.12 -0.12)">
      <use xlink:href="#DejaVuSans-112"/>
      <use x="63.476562" xlink:href="#DejaVuSans-111"/>
      <use x="124.658203" xlink:href="#DejaVuSans-119"/>
      <use x="206.445312" xlink:href="#DejaVuSans-101"/>
      <use x="267.96875" xlink:href="#DejaVuSans-114"/>
      <use x="309.082031" xlink:href="#DejaVuSans-32"/>
      <use x="340.869141" xlink:href="#DejaVuSans-99"/>
      <use x="395.849609" xlink:href="#DejaVuSans-111"/>
      <use x="457.03125" xlink:href="#DejaVuSans-110"/>
      <use x="520.410156" xlink:href="#DejaVuSans-115"/>
      <use x="572.509766" xlink:href="#DejaVuSans-117"/>
      <use x="635.888672" xlink:href="#DejaVuSans-109"/>
      <use x="733.300781" xlink:href="#DejaVuSans-112"/>
      <use x="796.777344" xlink:href="#DejaVuSans-116"/>
      <use x="835.986328" xlink:href="#DejaVuSans-105"/>
      <use x="863.769531" xlink:href="#DejaVuSans-111"/>
      <use x="924.951172" xlink:href="#DejaVuSans-110"/>
      <use x="988.330078" xlink:href="#DejaVuSans-32"/>
      <use x="1020.117188" xlink:href="#DejaVuSans-91"/>
      <use x="1059.130859" xlink:href="#DejaVuSans-109"/>
      <use x="1156.542969" xlink:href="#DejaVuSans-87"/>
      <use x="1255.419922" xlink:href="#DejaVuSans-93"/>
     </g>
    </g>
   </g>
   <g id="line2d_60">
    <path clip-path="url(#p72465f2618)" d="M 58.711067 240.62487 
L 61.970019 240.654515 
L 80.127039 240.665632 
L 101.077446 240.665815 
L 101.543011 212.942318 
L 102.008576 236.957697 
L 102.47414 240.167482 
L 102.939705 240.480237 
L 104.336399 240.595389 
L 118.303337 240.665807 
L 149.030601 240.663752 
L 149.496166 210.259573 
L 149.961731 239.92183 
L 150.427295 240.392263 
L 151.358424 240.575298 
L 153.686247 240.634648 
L 192.32811 240.664269 
L 192.793675 214.332885 
L 193.259239 235.803899 
L 193.724804 240.16702 
L 194.190369 240.481835 
L 195.587062 240.617382 
L 196.052627 209.671188 
L 196.518192 240.055986 
L 196.983756 240.430553 
L 197.449321 211.527979 
L 197.914885 210.519476 
L 198.38045 210.105475 
L 198.846015 209.897484 
L 199.311579 232.722996 
L 199.777144 215.665614 
L 200.242709 209.60278 
L 200.708273 210.203029 
L 201.173838 209.443215 
L 201.639402 194.521586 
L 202.104967 197.584029 
L 202.570532 209.109885 
L 203.036096 208.83067 
L 203.501661 209.299482 
L 203.967225 209.117838 
L 204.43279 209.984503 
L 204.898355 210.041173 
L 205.363919 209.853241 
L 205.829484 209.796894 
L 206.295048 210.056962 
L 207.226178 209.54764 
L 207.691742 210.152743 
L 208.622872 209.478088 
L 209.088436 210.014798 
L 209.554001 209.625232 
L 210.019565 210.105223 
L 210.48513 210.128246 
L 210.950695 210.022937 
L 211.416259 209.538694 
L 211.881824 210.166258 
L 213.278518 209.913046 
L 213.744082 209.746908 
L 214.209647 209.779401 
L 214.675211 209.480671 
L 215.140776 209.488298 
L 215.606341 210.135421 
L 216.071905 210.123414 
L 216.53747 209.487652 
L 217.468599 210.948644 
L 217.934164 209.728004 
L 218.865293 152.113124 
L 219.330858 149.324502 
L 219.796422 151.211699 
L 220.261987 177.346813 
L 220.727551 148.159283 
L 221.193116 150.188845 
L 221.658681 149.359592 
L 222.124245 176.372914 
L 222.58981 150.027838 
L 223.055374 149.68868 
L 223.520939 150.240423 
L 223.986504 149.435059 
L 224.452068 148.938526 
L 224.917633 155.504838 
L 225.383198 171.824214 
L 225.848762 149.58171 
L 226.314327 149.556732 
L 226.779891 150.918992 
L 227.245456 149.957608 
L 227.711021 151.946715 
L 228.176585 173.70983 
L 228.64215 153.7256 
L 229.107714 149.757122 
L 229.573279 151.171685 
L 230.038844 149.167431 
L 230.504408 150.006621 
L 230.969973 157.967661 
L 231.435537 167.983926 
L 231.901102 150.441037 
L 232.366667 150.610409 
L 232.832231 150.249243 
L 233.297796 150.391112 
L 233.763361 150.191866 
L 234.228925 177.883525 
L 234.69449 148.988425 
L 235.160054 150.738724 
L 235.625619 148.779 
L 236.091184 149.997107 
L 236.556748 150.545898 
L 237.022313 177.181344 
L 237.487877 148.92187 
L 237.953442 149.630531 
L 238.419007 149.912073 
L 238.884571 150.968334 
L 239.350136 152.324675 
L 239.8157 177.090118 
L 240.281265 148.904594 
L 240.74683 149.623867 
L 241.212394 149.928447 
L 241.677959 151.846693 
L 242.143524 163.592134 
L 242.609088 162.773389 
L 243.074653 149.356193 
L 243.540217 148.743852 
L 244.005782 149.329426 
L 244.471347 161.123599 
L 244.936911 166.316753 
L 245.402476 148.263442 
L 245.86804 150.760544 
L 246.333605 150.28485 
L 246.79917 150.410985 
L 247.264734 162.924632 
L 247.730299 163.702849 
L 248.195863 151.806678 
L 248.661428 149.292727 
L 249.126993 150.28858 
L 249.592557 149.535531 
L 250.058122 149.33458 
L 250.523687 148.579333 
L 250.989251 150.314964 
L 251.454816 150.656559 
L 251.92038 149.973191 
L 252.385945 148.671685 
L 252.85151 148.735726 
L 253.317074 149.594688 
L 253.782639 149.237255 
L 254.248203 150.708279 
L 254.713768 175.402281 
L 255.179333 149.329885 
L 255.644897 148.357453 
L 256.110462 148.421539 
L 256.576026 149.255075 
L 257.041591 148.678087 
L 257.507156 150.507975 
L 257.97272 149.121013 
L 258.438285 149.21371 
L 258.90385 150.561623 
L 259.369414 149.98601 
L 259.834979 150.332428 
L 260.300543 157.175615 
L 260.766108 166.715534 
L 261.231673 150.393171 
L 261.697237 148.797437 
L 262.628366 149.576022 
L 263.093931 149.194853 
L 263.559496 152.689835 
L 264.02506 176.877223 
L 264.490625 148.106577 
L 264.956189 150.910888 
L 265.421754 150.56519 
L 265.887319 178.770827 
L 266.352883 150.339511 
L 266.818448 150.599074 
L 267.284013 153.519331 
L 267.749577 173.335411 
L 268.215142 149.036114 
L 268.680706 151.286995 
L 269.146271 178.247027 
L 269.611836 150.065176 
L 270.0774 149.819561 
L 270.542965 150.217597 
L 271.008529 177.757068 
L 271.474094 149.82315 
L 271.939659 150.291139 
L 272.405223 148.27337 
L 272.870788 148.320659 
L 273.336352 151.36949 
L 273.801917 177.784261 
L 274.267482 149.251276 
L 274.733046 148.733203 
L 275.198611 149.534215 
L 275.664176 148.156148 
L 276.12974 151.129298 
L 276.595305 175.48766 
L 277.060869 148.710042 
L 277.526434 149.307738 
L 277.991999 149.632646 
L 278.457563 150.22608 
L 278.923128 151.917052 
L 279.388692 178.145286 
L 279.854257 148.467755 
L 280.319822 150.797626 
L 280.785386 149.512143 
L 281.250951 149.163302 
L 282.18208 168.101364 
L 282.647645 151.653583 
L 283.113209 151.096058 
L 283.578774 150.36294 
L 284.044339 149.917145 
L 284.509903 149.719264 
L 284.975468 178.246018 
L 285.441032 149.345058 
L 285.906597 150.371818 
L 286.372162 147.795279 
L 286.837726 150.116803 
L 287.303291 149.036365 
L 287.768855 177.402279 
L 288.23442 150.246632 
L 288.699985 149.944104 
L 289.165549 149.787581 
L 289.631114 148.013923 
L 290.096678 150.721945 
L 290.562243 169.056257 
L 291.493372 149.972295 
L 292.424502 148.986557 
L 292.890066 150.093811 
L 293.355631 153.075961 
L 293.821195 174.372461 
L 294.28676 149.505004 
L 294.752325 149.749267 
L 295.217889 149.229027 
L 295.683454 149.179493 
L 296.149018 175.099332 
L 296.614583 152.653395 
L 297.080148 148.337867 
L 297.545712 150.575384 
L 298.011277 150.064909 
L 298.476841 150.39399 
L 298.942406 175.75842 
L 299.407971 152.370703 
L 299.873535 151.308173 
L 300.3391 149.687627 
L 300.804665 148.815167 
L 301.270229 151.670312 
L 301.735794 148.980498 
L 302.201358 59.101801 
L 302.666923 118.178817 
L 303.132488 151.134624 
L 303.598052 150.62425 
L 304.063617 178.659079 
L 304.529181 150.709156 
L 304.994746 150.943466 
L 305.460311 148.87025 
L 306.39144 150.420251 
L 306.857004 172.305773 
L 307.322569 154.767717 
L 307.788134 148.983553 
L 308.719263 148.9183 
L 309.184828 147.885122 
L 309.650392 150.15476 
L 310.115957 149.2874 
L 310.581521 149.654697 
L 311.047086 149.591832 
L 311.512651 170.150361 
L 311.978215 155.424485 
L 312.44378 150.09804 
L 312.909344 149.711616 
L 313.374909 149.54313 
L 313.840474 149.925197 
L 314.306038 149.617349 
L 314.771603 149.804745 
L 315.702732 149.529337 
L 316.168297 150.491069 
L 316.633861 151.157539 
L 317.099426 150.218167 
L 317.564991 149.698947 
L 318.030555 148.853326 
L 318.49612 149.587818 
L 318.961684 150.091316 
L 319.427249 149.877864 
L 319.892814 151.537416 
L 320.358378 150.255887 
L 320.823943 156.984633 
L 321.289507 169.205783 
L 321.755072 148.860151 
L 322.220637 149.12839 
L 322.686201 150.278172 
L 323.151766 148.925255 
L 323.61733 150.919224 
L 324.082895 149.890738 
L 324.54846 149.571742 
L 325.014024 151.248726 
L 325.479589 149.961362 
L 325.945154 175.967911 
L 326.410718 149.58542 
L 326.876283 148.503841 
L 327.341847 148.1355 
L 327.807412 151.689561 
L 328.272977 177.55097 
L 328.738541 148.629264 
L 329.204106 150.172936 
L 329.66967 177.671185 
L 330.135235 150.370755 
L 330.6008 149.856188 
L 331.066364 177.899619 
L 331.531929 148.910354 
L 331.997493 150.283677 
L 332.463058 158.119877 
L 332.928623 170.804811 
L 333.394187 149.035834 
L 333.859752 149.498659 
L 334.325317 150.452322 
L 335.256446 149.796356 
L 335.72201 177.688762 
L 336.187575 150.473253 
L 336.65314 149.348044 
L 337.118704 150.79146 
L 337.584269 148.71342 
L 338.049833 150.796462 
L 338.515398 163.595635 
L 338.980963 162.825535 
L 339.446527 149.850796 
L 339.912092 148.894064 
L 340.377656 150.228454 
L 340.843221 151.176132 
L 341.308786 151.272848 
L 341.77435 174.371587 
L 342.239915 150.384392 
L 342.70548 148.483388 
L 343.171044 150.280681 
L 343.636609 149.358472 
L 344.102173 151.664732 
L 344.567738 177.479631 
L 345.033303 147.611854 
L 345.498867 150.100249 
L 346.429996 150.3515 
L 346.895561 160.928106 
L 347.361126 164.77528 
L 347.82669 149.086766 
L 348.292255 146.714756 
L 348.757819 147.313522 
L 349.223384 55.006719 
L 349.688949 117.970749 
L 350.154513 149.090139 
L 350.620078 152.02612 
L 351.085643 176.117162 
L 351.551207 149.096587 
L 352.016772 148.901879 
L 352.482336 149.725494 
L 352.947901 151.510854 
L 353.413466 151.015978 
L 353.87903 176.209006 
L 354.344595 150.509416 
L 354.810159 149.74847 
L 355.275724 148.413025 
L 355.741289 148.068773 
L 356.206853 151.605225 
L 356.672418 176.565825 
L 357.137982 149.883876 
L 357.603547 148.860856 
L 358.069112 149.733119 
L 358.534676 150.250523 
L 359.000241 152.545709 
L 359.465806 167.104669 
L 359.93137 161.769294 
L 360.396935 148.337568 
L 360.862499 149.538795 
L 361.328064 149.858894 
L 361.793629 149.255026 
L 362.259193 176.248075 
L 362.724758 149.287237 
L 364.121452 148.271471 
L 364.587016 177.305567 
L 365.052581 149.019992 
L 365.518145 149.982369 
L 365.98371 149.2565 
L 366.449275 149.433048 
L 366.914839 149.830373 
L 367.380404 178.378804 
L 367.845969 150.335375 
L 368.311533 148.578896 
L 369.242662 149.697153 
L 370.173792 168.717892 
L 370.639356 150.205807 
L 371.104921 149.370179 
L 371.570485 148.931884 
L 372.03605 148.875431 
L 372.501615 150.507746 
L 373.898308 149.755838 
L 374.363873 150.30706 
L 374.829438 150.579187 
L 375.295002 149.476424 
L 375.760567 149.858369 
L 376.226132 149.128855 
L 376.691696 157.376976 
L 377.157261 169.405785 
L 377.622825 149.451071 
L 378.08839 149.698673 
L 379.019519 151.356722 
L 379.485084 148.327621 
L 379.950648 148.471057 
L 380.416213 150.822376 
L 381.347342 148.10874 
L 381.812907 150.096859 
L 382.278471 150.784434 
L 382.744036 148.123282 
L 383.209601 148.850419 
L 383.675165 150.656757 
L 384.14073 150.678246 
L 384.606295 150.549502 
L 385.071859 152.353043 
L 385.537424 148.756362 
L 386.002988 174.920176 
L 386.468553 149.622673 
L 386.934118 148.738243 
L 387.399682 150.678973 
L 387.865247 150.866601 
L 388.330811 150.091053 
L 388.796376 148.76825 
L 389.261941 169.463548 
L 389.727505 158.083854 
L 390.19307 150.94604 
L 391.124199 149.213662 
L 391.589764 148.076832 
L 392.055328 157.146286 
L 392.520893 169.920504 
L 392.986458 149.028113 
L 393.452022 148.531719 
L 393.917587 150.170702 
L 394.383151 150.284382 
L 394.848716 148.92442 
L 395.314281 53.995369 
L 395.779845 118.293293 
L 396.24541 151.037829 
L 396.710974 175.672558 
L 397.176539 148.142674 
L 397.642104 148.800714 
L 398.107668 147.822293 
L 398.573233 154.040617 
L 399.038797 172.310338 
L 399.504362 149.998947 
L 399.969927 150.080928 
L 400.435491 149.917544 
L 400.901056 149.986918 
L 401.366621 150.667406 
L 401.832185 173.508737 
L 402.29775 149.410508 
L 402.763314 149.169951 
L 403.228879 149.290956 
L 403.694444 150.186084 
L 404.160008 174.213891 
L 404.625573 153.573691 
L 405.091137 150.092407 
L 405.556702 149.355762 
L 406.022267 149.439735 
L 406.487831 150.697103 
L 406.953396 155.232182 
L 407.41896 172.351692 
L 407.884525 149.937937 
L 408.35009 149.840962 
L 408.815654 149.51234 
L 409.281219 148.89192 
L 409.746784 163.555297 
L 410.212348 162.128332 
L 410.677913 149.314899 
L 411.143477 148.455877 
L 411.609042 151.188858 
L 412.074607 149.867171 
L 412.540171 176.592095 
L 413.005736 149.455839 
L 413.4713 149.821259 
L 413.936865 149.625459 
L 414.40243 150.196253 
L 414.867994 150.207737 
L 415.333559 178.087012 
L 415.799123 148.34447 
L 416.264688 150.88749 
L 416.730253 150.352019 
L 417.195817 148.898852 
L 417.661382 148.616994 
L 418.126947 163.073567 
L 418.592511 165.429348 
L 419.058076 149.534809 
L 419.52364 150.275341 
L 419.989205 149.636596 
L 420.45477 149.56645 
L 420.920334 150.292552 
L 421.385899 151.860281 
L 421.851463 175.47434 
L 422.317028 150.004411 
L 422.782593 149.192772 
L 423.248157 150.562702 
L 423.713722 151.573392 
L 424.179286 149.239563 
L 424.644851 150.473913 
L 425.110416 177.399025 
L 425.57598 149.244783 
L 426.041545 148.164655 
L 426.50711 148.459574 
L 426.972674 149.199924 
L 427.438239 151.228473 
L 427.903803 150.723618 
L 428.369368 178.128649 
L 428.834933 150.616144 
L 429.766062 148.947624 
L 430.231626 149.405401 
L 430.697191 149.636515 
L 431.162756 150.252585 
L 431.62832 175.722765 
L 432.093885 148.39254 
L 432.559449 148.589532 
L 433.025014 150.342881 
L 433.490579 151.363538 
L 433.956143 150.274122 
L 434.421708 164.619289 
L 434.887273 161.881463 
L 435.352837 150.071798 
L 435.818402 150.123042 
L 436.283966 150.67366 
L 436.749531 152.794136 
L 437.215096 150.267129 
L 437.68066 151.26657 
L 438.146225 176.539835 
L 438.611789 149.84778 
L 439.077354 148.972348 
L 439.542919 148.856123 
L 440.008483 150.2082 
L 440.474048 148.903664 
L 440.939612 152.082701 
L 441.405177 177.438428 
L 441.870742 54.428724 
L 442.336306 116.000433 
L 442.801871 151.500213 
L 443.267436 148.194555 
L 444.198565 150.029248 
L 444.664129 151.585086 
L 445.129694 175.985468 
L 445.595259 150.397536 
L 446.060823 148.480873 
L 446.526388 149.193097 
L 446.991952 149.042097 
L 447.457517 150.294875 
L 447.923082 160.441015 
L 448.388646 167.296423 
L 448.854211 150.787253 
L 449.319775 149.032973 
L 449.78534 147.74414 
L 450.250905 148.896294 
L 450.716469 150.546158 
L 451.182034 177.380757 
L 451.647599 149.225413 
L 452.113163 149.121218 
L 452.578728 149.86217 
L 453.044292 147.378741 
L 453.509857 150.648833 
L 453.975422 176.010601 
L 454.440986 150.71087 
L 454.906551 148.019711 
L 455.372115 149.556959 
L 455.83768 149.890998 
L 456.303245 150.460137 
L 456.768809 150.672379 
L 457.234374 177.581974 
L 457.699938 150.152565 
L 458.165503 150.212312 
L 458.631068 148.854789 
L 459.096632 150.185326 
L 459.562197 149.261796 
L 460.027762 151.529134 
L 460.493326 175.677216 
L 460.958891 150.090659 
L 461.424455 149.485022 
L 461.89002 150.335444 
L 462.355585 148.633076 
L 462.821149 148.9858 
L 463.286714 149.668513 
L 463.752278 150.039711 
L 464.217843 151.003891 
L 464.683408 149.252871 
L 465.148972 150.583648 
L 465.614537 150.438342 
L 466.080101 148.281768 
L 466.545666 150.585509 
L 467.011231 150.405551 
L 467.476795 149.938375 
L 467.94236 150.530207 
L 468.407925 149.953221 
L 468.873489 156.255065 
L 469.339054 171.830546 
L 469.804618 148.421823 
L 470.270183 148.814045 
L 470.735748 148.481955 
L 471.201312 148.79624 
L 471.666877 151.168437 
L 472.132441 150.18185 
L 472.598006 149.809088 
L 473.063571 150.077295 
L 473.529135 148.923858 
L 473.9947 149.341799 
L 474.460264 148.402672 
L 474.925829 149.835346 
L 475.391394 150.854966 
L 475.856958 149.043808 
L 476.322523 150.77985 
L 476.788088 149.067204 
L 477.253652 145.702671 
L 477.719217 119.290574 
L 478.184781 145.239697 
L 478.650346 148.153869 
L 479.115911 112.719969 
L 479.581475 149.305276 
L 480.04704 148.714327 
L 480.512604 148.559607 
L 480.978169 120.170891 
L 481.443734 147.320763 
L 481.909298 149.039925 
L 482.374863 120.315607 
L 482.840427 147.612845 
L 483.305992 148.249497 
L 483.771557 121.171956 
L 484.237121 146.811879 
L 484.702686 149.200888 
L 485.168251 120.520147 
L 485.633815 148.373041 
L 486.09938 149.685525 
L 486.564944 148.194177 
L 487.030509 144.815709 
L 487.496074 123.515493 
L 487.961638 80.670614 
L 488.427203 51.486321 
L 488.892767 149.047704 
L 489.358332 120.547737 
L 489.823897 147.374377 
L 490.289461 149.434248 
L 490.755026 118.080067 
L 491.22059 148.262045 
L 491.686155 148.56468 
L 492.15172 119.781736 
L 492.617284 149.190103 
L 493.082849 148.002666 
L 493.548414 120.169775 
L 494.013978 147.670003 
L 494.479543 147.899601 
L 494.945107 119.951871 
L 495.410672 147.395754 
L 495.876237 147.425459 
L 496.341801 120.051268 
L 496.807366 147.479932 
L 497.27293 147.091465 
L 497.738495 119.756403 
L 498.20406 146.927391 
L 498.669624 149.283806 
L 499.135189 118.855857 
L 499.600753 146.341556 
L 500.066318 147.012821 
L 500.531883 120.261002 
L 500.997447 146.458543 
L 501.463012 147.685703 
L 501.928577 123.871124 
L 502.394141 145.258257 
L 502.859706 146.326809 
L 503.32527 120.562286 
L 503.790835 145.587202 
L 504.2564 147.299096 
L 504.721964 122.238208 
L 505.187529 147.401201 
L 505.653093 148.667633 
L 506.118658 119.903282 
L 506.584223 147.757326 
L 507.049787 148.79286 
L 507.515352 118.971188 
L 507.980916 147.28427 
L 508.446481 148.165025 
L 508.912046 120.723161 
L 509.37761 147.609502 
L 509.843175 148.503377 
L 510.30874 119.53955 
L 510.774304 147.950501 
L 511.239869 148.381759 
L 511.705433 119.995632 
L 512.170998 148.769734 
L 512.636563 142.300657 
L 513.102127 125.438501 
L 513.567692 148.041303 
L 514.033256 146.179635 
L 514.498821 122.65314 
L 514.964386 149.393417 
L 515.42995 118.798964 
L 515.895515 148.040447 
L 516.361079 147.601717 
L 516.826644 120.519348 
L 517.292209 146.53934 
L 517.757773 147.437355 
L 518.223338 121.481321 
L 518.688903 145.456423 
L 519.154467 147.553231 
L 519.620032 131.276121 
L 520.085596 136.028081 
L 520.551161 147.827677 
L 521.016726 134.596197 
L 521.48229 133.153985 
L 521.947855 147.426145 
L 522.413419 143.359647 
L 522.878984 123.013078 
L 523.344549 147.863435 
L 523.810113 127.144091 
L 524.275678 140.509866 
L 524.741242 146.88584 
L 525.206807 147.618696 
L 525.672372 120.081322 
L 526.137936 147.330911 
L 526.603501 128.020212 
L 527.53463 149.470622 
L 528.000195 119.203047 
L 528.465759 149.266093 
L 528.931324 125.748257 
L 529.396889 139.726042 
L 529.862453 147.438981 
L 530.328018 120.831263 
L 530.793582 145.770487 
L 531.259147 149.022909 
L 531.724712 118.889723 
L 532.190276 147.432055 
L 532.655841 121.030463 
L 533.121405 147.894217 
L 533.58697 143.34285 
L 534.052535 121.8077 
L 534.518099 23.066033 
L 534.983664 114.551906 
L 535.449229 148.282247 
L 535.914793 122.809704 
L 536.380358 144.252455 
L 536.845922 149.317255 
L 537.311487 120.080109 
L 537.777052 148.382038 
L 538.242616 133.428922 
L 538.708181 133.139859 
L 539.173745 146.291991 
L 539.63931 119.7754 
L 540.104875 148.648619 
L 540.570439 130.029693 
L 541.501568 148.506946 
L 541.967133 120.67025 
L 542.432698 146.702655 
L 542.898262 140.459066 
L 543.363827 127.263743 
L 543.829392 149.340954 
L 544.294956 121.870562 
L 544.760521 146.724258 
L 545.226085 120.851796 
L 545.69165 146.429334 
L 546.157215 148.013219 
L 546.622779 119.414046 
L 547.088344 147.506865 
L 547.553908 139.583389 
L 548.019473 128.285602 
L 548.485038 148.087574 
L 548.950602 121.292868 
L 549.416167 147.852888 
L 549.881731 135.407137 
L 550.347296 131.605346 
L 550.812861 149.04495 
L 551.278425 119.011517 
L 551.74399 148.231222 
L 552.675119 127.67844 
L 553.140684 147.117731 
L 553.606248 121.117518 
L 554.071813 148.880107 
L 554.537378 148.172908 
L 555.002942 119.276542 
L 555.468507 147.682904 
L 555.934071 120.489936 
L 556.399636 146.87149 
L 556.865201 150.246544 
L 557.330765 118.802697 
L 557.79633 147.407014 
L 558.261894 120.788863 
L 558.727459 146.222905 
L 559.193024 148.004989 
L 559.658588 118.549973 
L 560.124153 148.063747 
L 560.589718 146.752982 
L 561.055282 118.32681 
L 561.520847 149.032363 
L 561.986411 120.917151 
L 562.451976 147.765055 
L 562.917541 148.623451 
L 563.383105 118.200997 
L 563.84867 147.956534 
L 564.314234 120.634766 
L 564.779799 147.682708 
L 565.245364 147.792945 
L 565.710928 119.350857 
L 566.176493 148.868587 
L 566.642057 120.938558 
L 567.107622 148.027319 
L 567.573187 144.980283 
L 568.038751 121.104808 
L 568.504316 149.515757 
L 568.969881 120.903149 
L 569.435445 147.128536 
L 569.90101 147.70086 
L 570.366574 119.244698 
L 570.832139 147.563204 
L 571.297704 120.679246 
L 571.763268 147.862575 
L 572.228833 137.329248 
L 572.694397 130.911318 
L 573.159962 147.238649 
L 573.625527 119.791836 
L 574.091091 146.725909 
L 574.556656 147.860406 
L 575.02222 118.76931 
L 575.487785 146.819221 
L 575.95335 122.204725 
L 576.418914 145.510591 
L 576.884479 148.055898 
L 577.350044 121.07743 
L 577.815608 147.262693 
L 578.281173 128.98981 
L 579.212302 147.931338 
L 579.677867 119.032147 
L 580.143431 146.090404 
L 580.608996 147.489087 
L 581.07456 120.135847 
L 581.540125 55.461908 
L 582.00569 80.045545 
L 582.471254 119.627938 
L 582.936819 148.512226 
L 583.402383 120.904203 
L 583.867948 146.086302 
L 584.333513 146.375408 
L 584.799077 120.599076 
L 585.264642 146.026933 
L 585.730207 147.39767 
L 586.195771 118.571633 
L 586.661336 146.66551 
L 587.1269 133.4573 
L 587.592465 134.281873 
L 588.05803 147.867581 
L 588.523594 120.167987 
L 588.989159 147.717726 
L 589.454723 147.253134 
L 589.920288 119.256902 
L 590.385853 147.404824 
L 590.851417 143.226913 
L 591.316982 123.562484 
L 591.782546 147.294325 
L 592.248111 119.851302 
L 592.713676 145.766093 
L 593.17924 147.961688 
L 593.644805 120.527945 
L 594.11037 147.446576 
L 594.575934 145.174158 
L 595.041499 120.775157 
L 595.507063 149.430481 
L 595.972628 118.781406 
L 596.438193 147.709324 
L 596.903757 147.761301 
L 597.369322 121.749885 
L 597.834886 148.197493 
L 598.300451 118.842134 
L 598.766016 147.677151 
L 599.23158 148.696955 
L 599.697145 120.608365 
L 600.162709 147.864322 
L 600.628274 118.913726 
L 601.093839 146.069862 
L 601.559403 147.822562 
L 602.024968 119.106246 
L 602.490533 145.385331 
L 602.956097 146.956914 
L 603.421662 118.125775 
L 603.887226 148.893026 
L 604.352791 121.670341 
L 604.818356 147.722729 
L 605.28392 148.094325 
L 605.749485 118.749875 
L 606.215049 148.24049 
L 606.680614 125.642658 
L 607.146179 140.344206 
L 607.611743 147.326661 
L 608.077308 120.513384 
L 608.542872 148.228406 
L 609.008437 140.645741 
L 609.474002 125.829342 
L 609.939566 148.233951 
L 610.405131 118.434967 
L 610.870696 146.168305 
L 611.33626 146.644371 
L 611.801825 119.828344 
L 612.267389 147.338931 
L 612.732954 135.602552 
L 613.198519 100.59039 
L 613.664083 83.29938 
L 614.129648 82.702955 
L 614.595212 85.810976 
L 615.060777 55.756055 
L 615.526342 83.205332 
L 615.991906 78.638219 
L 616.457471 88.636276 
L 616.923035 55.165213 
L 617.3886 84.23507 
L 617.854165 85.649975 
L 618.319729 56.317573 
L 618.785294 82.642522 
L 619.250859 81.498395 
L 619.716423 128.384497 
L 620.181988 136.540056 
L 620.647552 148.625096 
L 621.113117 146.105774 
L 621.578682 118.537045 
L 622.044246 147.798279 
L 622.509811 148.016318 
L 622.975375 148.747833 
L 623.44094 145.578851 
L 623.906505 122.872056 
L 624.372069 147.769384 
L 624.837634 148.587534 
L 625.303198 148.578043 
L 625.768763 148.21659 
L 626.699892 148.138347 
L 627.165457 119.549138 
L 627.631022 149.461209 
L 628.096586 53.293055 
L 628.562151 81.191517 
L 629.027715 148.615138 
L 629.49328 145.317842 
L 629.958845 122.298509 
L 630.424409 147.752312 
L 630.889974 147.842835 
L 631.355538 122.340582 
L 631.821103 144.75065 
L 632.286668 148.39209 
L 632.752232 149.241995 
L 633.217797 120.065501 
L 633.683361 148.528105 
L 634.148926 148.554323 
L 634.614491 120.621773 
L 635.080055 147.356168 
L 635.54562 149.488314 
L 636.011185 122.002023 
L 636.476749 147.642798 
L 636.942314 148.059352 
L 637.407878 147.597771 
L 637.873443 120.960755 
L 638.339008 149.722827 
L 638.804572 147.703022 
L 639.270137 119.297972 
L 639.735701 147.355515 
L 640.201266 148.834949 
L 640.666831 147.646281 
L 641.132395 119.5607 
L 641.59796 147.598413 
L 642.063524 149.658091 
L 642.529089 118.718025 
L 642.994654 146.978111 
L 643.460218 147.908629 
L 643.925783 147.40815 
L 644.391348 119.754322 
L 644.856912 148.413462 
L 645.322477 148.353913 
L 645.788041 119.645565 
L 646.253606 145.399843 
L 647.184735 149.730708 
L 647.6503 118.342877 
L 648.115864 147.922389 
L 648.581429 146.332218 
L 649.046994 145.272394 
L 649.512558 121.396225 
L 649.978123 147.50458 
L 650.443687 147.289154 
L 650.909252 144.385604 
L 651.374817 120.54346 
L 651.840381 148.391298 
L 652.305946 147.963408 
L 653.237075 127.794703 
L 653.70264 147.922401 
L 654.168204 147.518155 
L 654.633769 120.385542 
L 655.099334 147.434275 
L 655.564898 149.373871 
L 656.030463 130.146483 
L 656.496027 137.585584 
L 656.961592 147.445846 
L 657.427157 148.235437 
L 657.892721 119.975345 
L 658.358286 146.446201 
L 658.82385 147.669564 
L 659.289415 147.693855 
L 659.75498 120.32659 
L 660.220544 147.346093 
L 660.686109 148.565669 
L 661.151674 122.118925 
L 661.617238 145.730206 
L 662.082803 147.67418 
L 662.548367 148.440091 
L 663.013932 120.086783 
L 663.479497 147.387636 
L 663.945061 148.155191 
L 664.410626 148.423977 
L 664.87619 119.737388 
L 665.341755 146.95853 
L 665.80732 148.511409 
L 666.272884 119.700309 
L 666.738449 146.869307 
L 667.204013 148.053195 
L 667.669578 120.597297 
L 668.135143 148.688882 
L 668.600707 141.988854 
L 669.066272 124.441071 
L 669.531837 147.736613 
L 669.997401 146.596023 
L 670.462966 121.530335 
L 670.92853 147.108714 
L 671.394095 147.781959 
L 671.85966 141.876561 
L 672.325224 125.289093 
L 672.790789 147.580447 
L 673.256353 148.329787 
L 673.721918 120.332166 
L 674.187483 146.971416 
L 674.653047 118.926811 
L 675.118612 146.159145 
L 675.584176 147.160496 
L 676.049741 119.549969 
L 676.515306 52.528664 
L 676.98087 86.117698 
L 677.446435 147.238064 
L 677.912 148.579495 
L 678.377564 119.715253 
L 678.843129 147.611783 
L 679.308693 148.513074 
L 679.774258 122.448745 
L 680.239823 148.861294 
L 680.705387 147.754291 
L 681.170952 121.5404 
L 681.636516 146.822495 
L 682.102081 147.358378 
L 682.567646 148.251454 
L 683.03321 119.370795 
L 683.498775 149.626632 
L 683.964339 151.236038 
L 684.429904 150.699238 
L 684.895469 170.590804 
L 685.361033 155.621442 
L 685.826598 149.775925 
L 686.292163 151.289291 
L 686.757727 150.386733 
L 687.223292 150.527839 
L 687.688856 150.465773 
L 688.154421 151.197568 
L 688.619986 177.814824 
L 689.08555 148.728034 
L 689.551115 149.005947 
L 690.016679 148.357927 
L 690.947809 150.019478 
L 691.413373 150.61305 
L 691.878938 149.163671 
L 692.344502 114.775071 
L 692.810067 54.093114 
L 693.275632 23.213151 
L 693.741196 84.334019 
L 694.672326 150.685882 
L 695.13789 148.897635 
L 695.603455 149.684101 
L 696.069019 149.943173 
L 696.534584 149.117853 
L 697.000149 149.704722 
L 697.465713 162.817579 
L 697.931278 152.28439 
L 698.396842 159.861199 
L 698.862407 148.762946 
L 699.327972 149.430398 
L 699.793536 149.631759 
L 700.259101 149.451042 
L 700.724665 148.082103 
L 701.655795 150.041436 
L 702.121359 148.147325 
L 702.586924 149.292435 
L 703.052489 148.779082 
L 703.518053 148.827131 
L 703.983618 154.229875 
L 704.449182 174.205272 
L 704.914747 150.448046 
L 705.380312 178.719974 
L 705.845876 148.072508 
L 706.311441 149.543085 
L 706.777005 148.770324 
L 707.24257 149.66841 
L 707.708135 169.862545 
L 708.639264 148.661213 
L 709.104828 150.299718 
L 709.570393 149.922234 
L 710.035958 148.942753 
L 710.501522 151.212265 
L 710.967087 150.736532 
L 711.432652 176.216752 
L 711.898216 148.966537 
L 712.363781 149.864384 
L 712.829345 149.029382 
L 713.29491 150.495678 
L 713.760475 150.184803 
L 714.226039 176.714959 
L 714.691604 150.219359 
L 715.157168 148.784455 
L 715.622733 148.496593 
L 716.088298 149.475095 
L 716.553862 149.348564 
L 717.019427 150.612293 
L 717.484991 168.565803 
L 718.416121 149.991733 
L 718.881685 148.700889 
L 719.812815 149.811555 
L 720.278379 148.905704 
L 720.743944 174.653294 
L 721.209508 101.534022 
L 721.675073 72.892162 
L 722.140638 54.30759 
L 722.606202 55.435155 
L 723.071767 83.949078 
L 723.537331 83.189078 
L 724.002896 149.896833 
L 724.468461 149.746828 
L 725.39959 209.549856 
L 725.865154 210.255428 
L 726.330719 209.550348 
L 726.796284 209.78592 
L 727.261848 238.74201 
L 727.727413 240.199792 
L 728.192978 240.467112 
L 730.520801 240.608554 
L 730.986365 211.106235 
L 731.45193 240.00743 
L 731.917494 240.41895 
L 732.848624 240.577098 
L 736.107576 240.64307 
L 754.264596 240.662405 
L 754.73016 212.746067 
L 755.195725 237.672674 
L 755.66129 240.17419 
L 756.126854 240.484637 
L 757.523548 240.611715 
L 760.316936 240.647085 
L 778.473956 240.665079 
L 778.93952 210.627292 
L 779.405085 239.07956 
L 779.870649 240.233484 
L 780.336214 240.499932 
L 782.198472 240.617478 
L 788.250812 240.659922 
L 802.217751 240.664077 
L 802.683315 209.990048 
L 803.14888 240.097804 
L 803.614445 240.448919 
L 804.545574 240.583891 
L 806.873397 240.634363 
L 818.978077 240.663334 
L 825.495981 240.665831 
L 825.961546 210.201077 
L 826.42711 239.547634 
L 826.892675 240.293889 
L 827.35824 240.511479 
L 828.754934 240.589419 
L 832.945015 240.653517 
L 847.342601 240.665708 
L 847.342601 240.665708 
" style="fill:none;stroke:#9400d3;stroke-linecap:square;"/>
   </g>
   <g id="patch_3">
    <path d="M 58.47875 240.8125 
L 58.47875 16.46 
" style="fill:none;stroke:#000000;stroke-linecap:square;stroke-linejoin:miter;stroke-width:0.8;"/>
   </g>
   <g id="patch_4">
    <path d="M 58.47875 240.8125 
L 847.54 240.8125 
" style="fill:none;stroke:#000000;stroke-linecap:square;stroke-linejoin:miter;stroke-width:0.8;"/>
   </g>
   <g id="legend_1">
    <g id="patch_5">
     <path d="M 779.02 43.7 
L 839.14 43.7 
Q 841.54 43.7 841.54 41.3 
L 841.54 24.86 
Q 841.54 22.46 839.14 22.46 
L 779.02 22.46 
Q 776.62 22.46 776.62 24.86 
L 776.62 41.3 
Q 776.62 43.7 779.02 43.7 
z
" style="fill:#ffffff;stroke:#cccccc;stroke-linejoin:miter;"/>
    </g>
    <g id="line2d_61">
     <path d="M 781.42 32.18 
L 805.42 32.18 
" style="fill:none;stroke:#9400d3;stroke-linecap:square;"/>
    </g>
    <g id="line2d_62"/>
    <g id="text_23">
     <!-- $p(t)$ -->
     <defs>
      <path d="M 31 75.875 
Q 24.46875 64.65625 21.28125 53.65625 
Q 18.109375 42.671875 18.109375 31.390625 
Q 18.109375 20.125 21.3125 9.0625 
Q 24.515625 -2 31 -13.1875 
L 23.1875 -13.1875 
Q 15.875 -1.703125 12.234375 9.375 
Q 8.59375 20.453125 8.59375 31.390625 
Q 8.59375 42.28125 12.203125 53.3125 
Q 15.828125 64.359375 23.1875 75.875 
z
" id="DejaVuSans-40"/>
      <path d="M 8.015625 75.875 
L 15.828125 75.875 
Q 23.140625 64.359375 26.78125 53.3125 
Q 30.421875 42.28125 30.421875 31.390625 
Q 30.421875 20.453125 26.78125 9.375 
Q 23.140625 -1.703125 15.828125 -13.1875 
L 8.015625 -13.1875 
Q 14.5 -2 17.703125 9.0625 
Q 20.90625 20.125 20.90625 31.390625 
Q 20.90625 42.671875 17.703125 53.65625 
Q 14.5 64.65625 8.015625 75.875 
z
" id="DejaVuSans-41"/>
     </defs>
     <g transform="translate(815.02 36.38)scale(0.12 -0.12)">
      <use transform="translate(0 0.125)" xlink:href="#DejaVuSans-112"/>
      <use transform="translate(63.476562 0.125)" xlink:href="#DejaVuSans-40"/>
      <use transform="translate(102.490234 0.125)" xlink:href="#DejaVuSans-116"/>
      <use transform="translate(141.699219 0.125)" xlink:href="#DejaVuSans-41"/>
     </g>
    </g>
   </g>
  </g>
 </g>
 <defs>
  <clipPath id="p72465f2618">
   <rect height="224.3525" width="789.06125" x="58.47875" y="16.46"/>
  </clipPath>
 </defs>
</svg>
