<?xml version="1.0" encoding="utf-8" standalone="no"?>
<!DOCTYPE svg PUBLIC "-//W3C//DTD SVG 1.1//EN"
  "http://www.w3.org/Graphics/SVG/1.1/DTD/svg11.dtd">
<!-- Created with matplotlib (https://matplotlib.org/) -->
<svg height="648pt" version="1.1" viewBox="0 0 864 648" width="864pt" xmlns="http://www.w3.org/2000/svg" xmlns:xlink="http://www.w3.org/1999/xlink">
 <metadata>
  <rdf:RDF xmlns:cc="http://creativecommons.org/ns#" xmlns:dc="http://purl.org/dc/elements/1.1/" xmlns:rdf="http://www.w3.org/1999/02/22-rdf-syntax-ns#">
   <cc:Work>
    <dc:type rdf:resource="http://purl.org/dc/dcmitype/StillImage"/>
    <dc:date>2022-02-21T15:07:08.947124</dc:date>
    <dc:format>image/svg+xml</dc:format>
    <dc:creator>
     <cc:Agent>
      <dc:title>Matplotlib v3.3.3, https://matplotlib.org/</dc:title>
     </cc:Agent>
    </dc:creator>
   </cc:Work>
  </rdf:RDF>
 </metadata>
 <defs>
  <style type="text/css">*{stroke-linecap:butt;stroke-linejoin:round;}</style>
 </defs>
 <g id="figure_1">
  <g id="patch_1">
   <path d="M 0 648 
L 864 648 
L 864 0 
L 0 0 
z
" style="fill:#ffffff;"/>
  </g>
  <g id="axes_1">
   <g id="patch_2">
    <path d="M 58.47875 195.567708 
L 851.04 195.567708 
L 851.04 12.96 
L 58.47875 12.96 
z
" style="fill:#ffffff;"/>
   </g>
   <g id="matplotlib.axis_1">
    <g id="xtick_1">
     <g id="line2d_1">
      <path clip-path="url(#p04557da0a3)" d="M 58.47875 195.567708 
L 58.47875 12.96 
" style="fill:none;stroke:#cccccc;stroke-dasharray:0.8,1.32;stroke-dashoffset:0;stroke-width:0.8;"/>
     </g>
     <g id="line2d_2">
      <defs>
       <path d="M 0 0 
L 0 3.5 
" id="mab8880e5d4" style="stroke:#000000;stroke-width:0.8;"/>
      </defs>
      <g>
       <use style="stroke:#000000;stroke-width:0.8;" x="58.47875" xlink:href="#mab8880e5d4" y="195.567708"/>
      </g>
     </g>
    </g>
    <g id="xtick_2">
     <g id="line2d_3">
      <path clip-path="url(#p04557da0a3)" d="M 231.207999 195.567708 
L 231.207999 12.96 
" style="fill:none;stroke:#cccccc;stroke-dasharray:0.8,1.32;stroke-dashoffset:0;stroke-width:0.8;"/>
     </g>
     <g id="line2d_4">
      <g>
       <use style="stroke:#000000;stroke-width:0.8;" x="231.207999" xlink:href="#mab8880e5d4" y="195.567708"/>
      </g>
     </g>
    </g>
    <g id="xtick_3">
     <g id="line2d_5">
      <path clip-path="url(#p04557da0a3)" d="M 403.937248 195.567708 
L 403.937248 12.96 
" style="fill:none;stroke:#cccccc;stroke-dasharray:0.8,1.32;stroke-dashoffset:0;stroke-width:0.8;"/>
     </g>
     <g id="line2d_6">
      <g>
       <use style="stroke:#000000;stroke-width:0.8;" x="403.937248" xlink:href="#mab8880e5d4" y="195.567708"/>
      </g>
     </g>
    </g>
    <g id="xtick_4">
     <g id="line2d_7">
      <path clip-path="url(#p04557da0a3)" d="M 576.666497 195.567708 
L 576.666497 12.96 
" style="fill:none;stroke:#cccccc;stroke-dasharray:0.8,1.32;stroke-dashoffset:0;stroke-width:0.8;"/>
     </g>
     <g id="line2d_8">
      <g>
       <use style="stroke:#000000;stroke-width:0.8;" x="576.666497" xlink:href="#mab8880e5d4" y="195.567708"/>
      </g>
     </g>
    </g>
    <g id="xtick_5">
     <g id="line2d_9">
      <path clip-path="url(#p04557da0a3)" d="M 749.395746 195.567708 
L 749.395746 12.96 
" style="fill:none;stroke:#cccccc;stroke-dasharray:0.8,1.32;stroke-dashoffset:0;stroke-width:0.8;"/>
     </g>
     <g id="line2d_10">
      <g>
       <use style="stroke:#000000;stroke-width:0.8;" x="749.395746" xlink:href="#mab8880e5d4" y="195.567708"/>
      </g>
     </g>
    </g>
   </g>
   <g id="matplotlib.axis_2">
    <g id="ytick_1">
     <g id="line2d_11">
      <path clip-path="url(#p04557da0a3)" d="M 58.47875 195.567708 
L 851.04 195.567708 
" style="fill:none;stroke:#cccccc;stroke-dasharray:0.8,1.32;stroke-dashoffset:0;stroke-width:0.8;"/>
     </g>
     <g id="line2d_12">
      <defs>
       <path d="M 0 0 
L -3.5 0 
" id="m27677cc647" style="stroke:#000000;stroke-width:0.8;"/>
      </defs>
      <g>
       <use style="stroke:#000000;stroke-width:0.8;" x="58.47875" xlink:href="#m27677cc647" y="195.567708"/>
      </g>
     </g>
     <g id="text_1">
      <!-- 0 -->
      <g transform="translate(43.84375 200.126771)scale(0.12 -0.12)">
       <defs>
        <path d="M 31.78125 66.40625 
Q 24.171875 66.40625 20.328125 58.90625 
Q 16.5 51.421875 16.5 36.375 
Q 16.5 21.390625 20.328125 13.890625 
Q 24.171875 6.390625 31.78125 6.390625 
Q 39.453125 6.390625 43.28125 13.890625 
Q 47.125 21.390625 47.125 36.375 
Q 47.125 51.421875 43.28125 58.90625 
Q 39.453125 66.40625 31.78125 66.40625 
z
M 31.78125 74.21875 
Q 44.046875 74.21875 50.515625 64.515625 
Q 56.984375 54.828125 56.984375 36.375 
Q 56.984375 17.96875 50.515625 8.265625 
Q 44.046875 -1.421875 31.78125 -1.421875 
Q 19.53125 -1.421875 13.0625 8.265625 
Q 6.59375 17.96875 6.59375 36.375 
Q 6.59375 54.828125 13.0625 64.515625 
Q 19.53125 74.21875 31.78125 74.21875 
z
" id="DejaVuSans-48"/>
       </defs>
       <use xlink:href="#DejaVuSans-48"/>
      </g>
     </g>
    </g>
    <g id="ytick_2">
     <g id="line2d_13">
      <path clip-path="url(#p04557da0a3)" d="M 58.47875 145.362975 
L 851.04 145.362975 
" style="fill:none;stroke:#cccccc;stroke-dasharray:0.8,1.32;stroke-dashoffset:0;stroke-width:0.8;"/>
     </g>
     <g id="line2d_14">
      <g>
       <use style="stroke:#000000;stroke-width:0.8;" x="58.47875" xlink:href="#m27677cc647" y="145.362975"/>
      </g>
     </g>
     <g id="text_2">
      <!-- 10 -->
      <g transform="translate(36.20875 149.922038)scale(0.12 -0.12)">
       <defs>
        <path d="M 12.40625 8.296875 
L 28.515625 8.296875 
L 28.515625 63.921875 
L 10.984375 60.40625 
L 10.984375 69.390625 
L 28.421875 72.90625 
L 38.28125 72.90625 
L 38.28125 8.296875 
L 54.390625 8.296875 
L 54.390625 0 
L 12.40625 0 
z
" id="DejaVuSans-49"/>
       </defs>
       <use xlink:href="#DejaVuSans-49"/>
       <use x="63.623047" xlink:href="#DejaVuSans-48"/>
      </g>
     </g>
    </g>
    <g id="ytick_3">
     <g id="line2d_15">
      <path clip-path="url(#p04557da0a3)" d="M 58.47875 95.158242 
L 851.04 95.158242 
" style="fill:none;stroke:#cccccc;stroke-dasharray:0.8,1.32;stroke-dashoffset:0;stroke-width:0.8;"/>
     </g>
     <g id="line2d_16">
      <g>
       <use style="stroke:#000000;stroke-width:0.8;" x="58.47875" xlink:href="#m27677cc647" y="95.158242"/>
      </g>
     </g>
     <g id="text_3">
      <!-- 20 -->
      <g transform="translate(36.20875 99.717304)scale(0.12 -0.12)">
       <defs>
        <path d="M 19.1875 8.296875 
L 53.609375 8.296875 
L 53.609375 0 
L 7.328125 0 
L 7.328125 8.296875 
Q 12.9375 14.109375 22.625 23.890625 
Q 32.328125 33.6875 34.8125 36.53125 
Q 39.546875 41.84375 41.421875 45.53125 
Q 43.3125 49.21875 43.3125 52.78125 
Q 43.3125 58.59375 39.234375 62.25 
Q 35.15625 65.921875 28.609375 65.921875 
Q 23.96875 65.921875 18.8125 64.3125 
Q 13.671875 62.703125 7.8125 59.421875 
L 7.8125 69.390625 
Q 13.765625 71.78125 18.9375 73 
Q 24.125 74.21875 28.421875 74.21875 
Q 39.75 74.21875 46.484375 68.546875 
Q 53.21875 62.890625 53.21875 53.421875 
Q 53.21875 48.921875 51.53125 44.890625 
Q 49.859375 40.875 45.40625 35.40625 
Q 44.1875 33.984375 37.640625 27.21875 
Q 31.109375 20.453125 19.1875 8.296875 
z
" id="DejaVuSans-50"/>
       </defs>
       <use xlink:href="#DejaVuSans-50"/>
       <use x="63.623047" xlink:href="#DejaVuSans-48"/>
      </g>
     </g>
    </g>
    <g id="ytick_4">
     <g id="line2d_17">
      <path clip-path="url(#p04557da0a3)" d="M 58.47875 44.953509 
L 851.04 44.953509 
" style="fill:none;stroke:#cccccc;stroke-dasharray:0.8,1.32;stroke-dashoffset:0;stroke-width:0.8;"/>
     </g>
     <g id="line2d_18">
      <g>
       <use style="stroke:#000000;stroke-width:0.8;" x="58.47875" xlink:href="#m27677cc647" y="44.953509"/>
      </g>
     </g>
     <g id="text_4">
      <!-- 30 -->
      <g transform="translate(36.20875 49.512571)scale(0.12 -0.12)">
       <defs>
        <path d="M 40.578125 39.3125 
Q 47.65625 37.796875 51.625 33 
Q 55.609375 28.21875 55.609375 21.1875 
Q 55.609375 10.40625 48.1875 4.484375 
Q 40.765625 -1.421875 27.09375 -1.421875 
Q 22.515625 -1.421875 17.65625 -0.515625 
Q 12.796875 0.390625 7.625 2.203125 
L 7.625 11.71875 
Q 11.71875 9.328125 16.59375 8.109375 
Q 21.484375 6.890625 26.8125 6.890625 
Q 36.078125 6.890625 40.9375 10.546875 
Q 45.796875 14.203125 45.796875 21.1875 
Q 45.796875 27.640625 41.28125 31.265625 
Q 36.765625 34.90625 28.71875 34.90625 
L 20.21875 34.90625 
L 20.21875 43.015625 
L 29.109375 43.015625 
Q 36.375 43.015625 40.234375 45.921875 
Q 44.09375 48.828125 44.09375 54.296875 
Q 44.09375 59.90625 40.109375 62.90625 
Q 36.140625 65.921875 28.71875 65.921875 
Q 24.65625 65.921875 20.015625 65.03125 
Q 15.375 64.15625 9.8125 62.3125 
L 9.8125 71.09375 
Q 15.4375 72.65625 20.34375 73.4375 
Q 25.25 74.21875 29.59375 74.21875 
Q 40.828125 74.21875 47.359375 69.109375 
Q 53.90625 64.015625 53.90625 55.328125 
Q 53.90625 49.265625 50.4375 45.09375 
Q 46.96875 40.921875 40.578125 39.3125 
z
" id="DejaVuSans-51"/>
       </defs>
       <use xlink:href="#DejaVuSans-51"/>
       <use x="63.623047" xlink:href="#DejaVuSans-48"/>
      </g>
     </g>
    </g>
    <g id="text_5">
     <!-- current [mA] -->
     <g transform="translate(29.713125 142.442604)rotate(-90)scale(0.12 -0.12)">
      <defs>
       <path d="M 48.78125 52.59375 
L 48.78125 44.1875 
Q 44.96875 46.296875 41.140625 47.34375 
Q 37.3125 48.390625 33.40625 48.390625 
Q 24.65625 48.390625 19.8125 42.84375 
Q 14.984375 37.3125 14.984375 27.296875 
Q 14.984375 17.28125 19.8125 11.734375 
Q 24.65625 6.203125 33.40625 6.203125 
Q 37.3125 6.203125 41.140625 7.25 
Q 44.96875 8.296875 48.78125 10.40625 
L 48.78125 2.09375 
Q 45.015625 0.34375 40.984375 -0.53125 
Q 36.96875 -1.421875 32.421875 -1.421875 
Q 20.0625 -1.421875 12.78125 6.34375 
Q 5.515625 14.109375 5.515625 27.296875 
Q 5.515625 40.671875 12.859375 48.328125 
Q 20.21875 56 33.015625 56 
Q 37.15625 56 41.109375 55.140625 
Q 45.0625 54.296875 48.78125 52.59375 
z
" id="DejaVuSans-99"/>
       <path d="M 8.5 21.578125 
L 8.5 54.6875 
L 17.484375 54.6875 
L 17.484375 21.921875 
Q 17.484375 14.15625 20.5 10.265625 
Q 23.53125 6.390625 29.59375 6.390625 
Q 36.859375 6.390625 41.078125 11.03125 
Q 45.3125 15.671875 45.3125 23.6875 
L 45.3125 54.6875 
L 54.296875 54.6875 
L 54.296875 0 
L 45.3125 0 
L 45.3125 8.40625 
Q 42.046875 3.421875 37.71875 1 
Q 33.40625 -1.421875 27.6875 -1.421875 
Q 18.265625 -1.421875 13.375 4.4375 
Q 8.5 10.296875 8.5 21.578125 
z
M 31.109375 56 
z
" id="DejaVuSans-117"/>
       <path d="M 41.109375 46.296875 
Q 39.59375 47.171875 37.8125 47.578125 
Q 36.03125 48 33.890625 48 
Q 26.265625 48 22.1875 43.046875 
Q 18.109375 38.09375 18.109375 28.8125 
L 18.109375 0 
L 9.078125 0 
L 9.078125 54.6875 
L 18.109375 54.6875 
L 18.109375 46.1875 
Q 20.953125 51.171875 25.484375 53.578125 
Q 30.03125 56 36.53125 56 
Q 37.453125 56 38.578125 55.875 
Q 39.703125 55.765625 41.0625 55.515625 
z
" id="DejaVuSans-114"/>
       <path d="M 56.203125 29.59375 
L 56.203125 25.203125 
L 14.890625 25.203125 
Q 15.484375 15.921875 20.484375 11.0625 
Q 25.484375 6.203125 34.421875 6.203125 
Q 39.59375 6.203125 44.453125 7.46875 
Q 49.3125 8.734375 54.109375 11.28125 
L 54.109375 2.78125 
Q 49.265625 0.734375 44.1875 -0.34375 
Q 39.109375 -1.421875 33.890625 -1.421875 
Q 20.796875 -1.421875 13.15625 6.1875 
Q 5.515625 13.8125 5.515625 26.8125 
Q 5.515625 40.234375 12.765625 48.109375 
Q 20.015625 56 32.328125 56 
Q 43.359375 56 49.78125 48.890625 
Q 56.203125 41.796875 56.203125 29.59375 
z
M 47.21875 32.234375 
Q 47.125 39.59375 43.09375 43.984375 
Q 39.0625 48.390625 32.421875 48.390625 
Q 24.90625 48.390625 20.390625 44.140625 
Q 15.875 39.890625 15.1875 32.171875 
z
" id="DejaVuSans-101"/>
       <path d="M 54.890625 33.015625 
L 54.890625 0 
L 45.90625 0 
L 45.90625 32.71875 
Q 45.90625 40.484375 42.875 44.328125 
Q 39.84375 48.1875 33.796875 48.1875 
Q 26.515625 48.1875 22.3125 43.546875 
Q 18.109375 38.921875 18.109375 30.90625 
L 18.109375 0 
L 9.078125 0 
L 9.078125 54.6875 
L 18.109375 54.6875 
L 18.109375 46.1875 
Q 21.34375 51.125 25.703125 53.5625 
Q 30.078125 56 35.796875 56 
Q 45.21875 56 50.046875 50.171875 
Q 54.890625 44.34375 54.890625 33.015625 
z
" id="DejaVuSans-110"/>
       <path d="M 18.3125 70.21875 
L 18.3125 54.6875 
L 36.8125 54.6875 
L 36.8125 47.703125 
L 18.3125 47.703125 
L 18.3125 18.015625 
Q 18.3125 11.328125 20.140625 9.421875 
Q 21.96875 7.515625 27.59375 7.515625 
L 36.8125 7.515625 
L 36.8125 0 
L 27.59375 0 
Q 17.1875 0 13.234375 3.875 
Q 9.28125 7.765625 9.28125 18.015625 
L 9.28125 47.703125 
L 2.6875 47.703125 
L 2.6875 54.6875 
L 9.28125 54.6875 
L 9.28125 70.21875 
z
" id="DejaVuSans-116"/>
       <path id="DejaVuSans-32"/>
       <path d="M 8.59375 75.984375 
L 29.296875 75.984375 
L 29.296875 69 
L 17.578125 69 
L 17.578125 -6.203125 
L 29.296875 -6.203125 
L 29.296875 -13.1875 
L 8.59375 -13.1875 
z
" id="DejaVuSans-91"/>
       <path d="M 52 44.1875 
Q 55.375 50.25 60.0625 53.125 
Q 64.75 56 71.09375 56 
Q 79.640625 56 84.28125 50.015625 
Q 88.921875 44.046875 88.921875 33.015625 
L 88.921875 0 
L 79.890625 0 
L 79.890625 32.71875 
Q 79.890625 40.578125 77.09375 44.375 
Q 74.3125 48.1875 68.609375 48.1875 
Q 61.625 48.1875 57.5625 43.546875 
Q 53.515625 38.921875 53.515625 30.90625 
L 53.515625 0 
L 44.484375 0 
L 44.484375 32.71875 
Q 44.484375 40.625 41.703125 44.40625 
Q 38.921875 48.1875 33.109375 48.1875 
Q 26.21875 48.1875 22.15625 43.53125 
Q 18.109375 38.875 18.109375 30.90625 
L 18.109375 0 
L 9.078125 0 
L 9.078125 54.6875 
L 18.109375 54.6875 
L 18.109375 46.1875 
Q 21.1875 51.21875 25.484375 53.609375 
Q 29.78125 56 35.6875 56 
Q 41.65625 56 45.828125 52.96875 
Q 50 49.953125 52 44.1875 
z
" id="DejaVuSans-109"/>
       <path d="M 34.1875 63.1875 
L 20.796875 26.90625 
L 47.609375 26.90625 
z
M 28.609375 72.90625 
L 39.796875 72.90625 
L 67.578125 0 
L 57.328125 0 
L 50.6875 18.703125 
L 17.828125 18.703125 
L 11.1875 0 
L 0.78125 0 
z
" id="DejaVuSans-65"/>
       <path d="M 30.421875 75.984375 
L 30.421875 -13.1875 
L 9.71875 -13.1875 
L 9.71875 -6.203125 
L 21.390625 -6.203125 
L 21.390625 69 
L 9.71875 69 
L 9.71875 75.984375 
z
" id="DejaVuSans-93"/>
      </defs>
      <use xlink:href="#DejaVuSans-99"/>
      <use x="54.980469" xlink:href="#DejaVuSans-117"/>
      <use x="118.359375" xlink:href="#DejaVuSans-114"/>
      <use x="157.722656" xlink:href="#DejaVuSans-114"/>
      <use x="196.585938" xlink:href="#DejaVuSans-101"/>
      <use x="258.109375" xlink:href="#DejaVuSans-110"/>
      <use x="321.488281" xlink:href="#DejaVuSans-116"/>
      <use x="360.697266" xlink:href="#DejaVuSans-32"/>
      <use x="392.484375" xlink:href="#DejaVuSans-91"/>
      <use x="431.498047" xlink:href="#DejaVuSans-109"/>
      <use x="528.910156" xlink:href="#DejaVuSans-65"/>
      <use x="597.318359" xlink:href="#DejaVuSans-93"/>
     </g>
    </g>
   </g>
   <g id="line2d_19">
    <path clip-path="url(#p04557da0a3)" d="M 58.909709 195.461971 
L 71.864403 195.46194 
L 72.728049 136.383115 
L 73.591696 191.230626 
L 74.455342 194.17296 
L 75.318988 194.660864 
L 77.046281 195.036534 
L 80.500866 195.320499 
L 81.364512 138.277153 
L 82.228158 191.737471 
L 83.091804 194.177599 
L 83.955451 133.378849 
L 84.819097 193.312036 
L 85.682743 194.390981 
L 86.546389 127.622468 
L 87.410036 193.55634 
L 88.273682 194.441315 
L 89.137328 131.133684 
L 90.000974 193.801943 
L 90.864621 194.500786 
L 91.728267 131.435119 
L 92.591913 193.731183 
L 93.455559 140.303942 
L 94.319206 186.837289 
L 95.182852 193.973122 
L 96.046498 158.693397 
L 96.910144 164.6723 
L 97.773791 193.949591 
L 98.637437 194.557725 
L 99.501083 131.365048 
L 100.364729 193.583629 
L 101.228375 194.450204 
L 102.092022 133.667709 
L 102.955668 192.346896 
L 103.819314 194.236613 
L 104.68296 146.621521 
L 105.546607 174.102544 
L 106.410253 193.968362 
L 107.273899 181.71833 
L 108.137545 148.013793 
L 109.001192 193.939532 
L 109.864838 194.555674 
L 110.728484 132.176919 
L 111.59213 192.865922 
L 112.455777 194.317359 
L 113.319423 132.277169 
L 114.183069 191.172265 
L 115.046715 194.127863 
L 115.910362 128.199178 
L 116.774008 192.415142 
L 117.637654 194.253256 
L 118.5013 126.798629 
L 119.364947 193.82913 
L 120.228593 126.954763 
L 121.092239 126.387096 
L 121.955885 189.792119 
L 122.819532 128.709552 
L 124.546824 132.579819 
L 125.41047 128.371114 
L 126.274117 128.664217 
L 127.137763 126.253331 
L 128.001409 126.947756 
L 128.865055 123.851269 
L 129.728702 188.358826 
L 130.592348 120.460068 
L 131.455994 121.701464 
L 132.31964 128.152623 
L 133.183287 125.047036 
L 134.046933 122.69925 
L 134.910579 119.159903 
L 135.774225 147.995066 
L 136.637872 170.504982 
L 137.501518 121.87087 
L 138.365164 119.911833 
L 139.22881 123.967336 
L 140.092457 122.158563 
L 140.956103 122.255896 
L 141.819749 127.761585 
L 142.683395 141.295966 
L 143.547042 177.05563 
L 144.410688 123.9221 
L 145.274334 122.997072 
L 146.13798 126.203495 
L 147.001626 128.744918 
L 147.865273 129.251811 
L 148.728919 127.622388 
L 149.592565 123.847459 
L 150.456211 124.090983 
L 151.319858 189.920126 
L 152.183504 122.626076 
L 153.04715 122.761372 
L 153.910796 123.219502 
L 154.774443 126.513219 
L 155.638089 119.599569 
L 156.501735 126.870513 
L 157.365381 121.762878 
L 158.229028 112.337711 
L 159.092674 111.113912 
L 159.95632 42.409192 
L 160.819966 111.485667 
L 161.683613 112.834509 
L 162.547259 111.976887 
L 163.410905 110.612944 
L 164.274551 41.743358 
L 165.138198 105.33934 
L 166.001844 113.698567 
L 166.86549 114.087603 
L 167.729136 111.976725 
L 168.592783 38.936119 
L 169.456429 110.383093 
L 170.320075 111.671265 
L 171.183721 115.286931 
L 172.047368 110.87982 
L 172.911014 95.639031 
L 173.77466 35.78278 
L 174.638306 108.835903 
L 175.501953 107.116099 
L 176.365599 110.311772 
L 177.229245 53.240523 
L 178.092891 92.349636 
L 178.956538 112.720256 
L 179.820184 116.323577 
L 180.68383 111.747722 
L 181.547476 115.213646 
L 182.411123 42.221996 
L 183.274769 110.713604 
L 184.138415 109.518589 
L 185.002061 102.571284 
L 185.865708 121.899203 
L 187.593 110.2471 
L 188.456646 109.578965 
L 189.320292 64.292503 
L 190.183939 94.12106 
L 191.047585 112.888832 
L 191.911231 113.419786 
L 192.774877 113.676543 
L 193.638524 113.394803 
L 194.50217 113.634896 
L 195.365816 34.033634 
L 196.229462 112.329596 
L 197.093109 110.550948 
L 197.956755 112.68522 
L 198.820401 108.472645 
L 199.684047 111.583419 
L 200.547694 57.691083 
L 201.41134 91.472425 
L 202.274986 110.996937 
L 203.138632 109.19744 
L 204.002279 109.772748 
L 204.865925 42.480571 
L 205.729571 104.283871 
L 206.593217 107.394459 
L 207.456864 109.461559 
L 208.32051 114.339498 
L 209.184156 111.979431 
L 210.047802 36.821602 
L 210.911449 112.939493 
L 211.775095 111.77153 
L 212.638741 112.610872 
L 213.502387 114.054098 
L 214.366034 112.540593 
L 215.22968 97.443042 
L 216.093326 51.930973 
L 216.956972 101.277723 
L 217.820619 113.240944 
L 218.684265 111.716628 
L 219.547911 115.765496 
L 220.411557 113.773939 
L 221.275204 114.516463 
L 222.13885 113.128232 
L 223.002496 108.991221 
L 223.866142 73.731132 
L 224.729789 74.838885 
L 225.593435 114.805565 
L 226.457081 114.440731 
L 227.320727 110.398081 
L 228.184374 110.30007 
L 229.04802 113.391005 
L 229.911666 112.511191 
L 230.775312 112.392303 
L 231.638959 107.941363 
L 232.502605 40.448199 
L 233.366251 106.448284 
L 234.229897 115.145327 
L 235.093543 115.263064 
L 235.95719 112.665704 
L 236.820836 116.794213 
L 237.684482 106.171697 
L 238.548128 109.467644 
L 239.411775 102.291645 
L 240.275421 55.313438 
L 241.139067 113.821752 
L 242.002713 113.829653 
L 242.86636 115.819159 
L 243.730006 112.126771 
L 244.593652 113.94206 
L 245.457298 112.199836 
L 246.320945 55.664077 
L 247.184591 93.383257 
L 248.048237 111.705267 
L 248.911883 116.413543 
L 249.77553 113.103805 
L 250.639176 107.441436 
L 251.502822 116.791451 
L 252.366468 114.627834 
L 253.230115 79.904422 
L 254.093761 69.956295 
L 254.957407 111.266191 
L 255.821053 112.174303 
L 256.6847 114.710225 
L 257.548346 114.155317 
L 258.411992 112.573859 
L 259.275638 108.439647 
L 260.139285 115.905154 
L 261.002931 103.724791 
L 261.866577 46.343702 
L 262.730223 110.379113 
L 263.59387 111.596062 
L 264.457516 110.840174 
L 265.321162 109.233905 
L 266.184808 113.036319 
L 267.048455 111.752942 
L 267.912101 112.697244 
L 268.775747 111.322852 
L 269.639393 62.92892 
L 270.50304 77.433069 
L 271.366686 113.229288 
L 272.230332 115.199617 
L 273.093978 116.251563 
L 273.957625 107.924643 
L 274.821271 115.800306 
L 275.684917 114.219595 
L 276.548563 113.276363 
L 277.412209 77.368422 
L 278.275856 70.164655 
L 279.139502 113.763842 
L 280.003148 112.389212 
L 280.866794 114.817338 
L 281.730441 111.392133 
L 282.594087 109.966051 
L 283.457733 90.588033 
L 284.321379 60.301512 
L 285.185026 110.484882 
L 286.048672 109.718739 
L 286.912318 113.61287 
L 287.775964 109.856381 
L 288.639611 112.597385 
L 289.503257 117.541673 
L 290.366903 103.683079 
L 291.230549 41.342876 
L 292.094196 108.566945 
L 292.957842 109.013652 
L 293.821488 107.957881 
L 294.685134 111.906359 
L 295.548781 32.177364 
L 296.412427 110.80172 
L 297.276073 98.495291 
L 298.139719 94.01475 
L 299.867012 112.380006 
L 300.730658 31.730246 
L 301.594304 111.316539 
L 302.457951 111.157109 
L 303.321597 110.745475 
L 304.185243 43.484109 
L 305.048889 110.381948 
L 305.912536 109.206234 
L 306.776182 110.284493 
L 307.639828 116.308329 
L 309.367121 111.925228 
L 310.230767 38.9105 
L 311.094413 111.037123 
L 311.958059 113.6835 
L 312.821706 112.271703 
L 313.685352 112.444524 
L 314.548998 108.135167 
L 315.412644 113.257887 
L 316.276291 110.314657 
L 317.139937 111.555533 
L 318.003583 78.999817 
L 318.867229 65.345958 
L 319.730876 112.497186 
L 320.594522 112.585104 
L 321.458168 115.221069 
L 322.321814 110.623225 
L 323.18546 112.91052 
L 324.049107 109.372925 
L 324.912753 113.433051 
L 325.776399 31.684304 
L 326.640045 112.028998 
L 327.503692 114.116722 
L 328.367338 114.847751 
L 329.230984 113.572806 
L 330.09463 39.349282 
L 330.958277 110.339429 
L 331.821923 110.75837 
L 332.685569 114.370245 
L 333.549215 114.09925 
L 334.412862 66.832457 
L 335.276508 80.929748 
L 336.140154 110.10581 
L 337.0038 110.683741 
L 337.867447 112.184594 
L 338.731093 111.758786 
L 339.594739 38.188234 
L 340.458385 110.361265 
L 341.322032 114.337903 
L 342.185678 114.296485 
L 343.049324 115.116078 
L 343.91297 113.599944 
L 344.776617 112.470737 
L 345.640263 37.374227 
L 346.503909 113.426581 
L 347.367555 111.57103 
L 348.231202 110.012864 
L 349.094848 114.024259 
L 349.958494 113.626808 
L 350.82214 111.977346 
L 351.685787 108.541802 
L 352.549433 103.91098 
L 353.413079 113.571975 
L 354.276725 44.086012 
L 355.140372 103.338672 
L 356.004018 113.913387 
L 356.867664 115.616695 
L 357.73131 111.165779 
L 358.594957 112.053217 
L 359.458603 114.785798 
L 360.322249 112.734733 
L 361.185895 62.424697 
L 362.049542 89.857183 
L 362.913188 112.651848 
L 363.776834 113.610361 
L 364.64048 105.464275 
L 365.504127 111.721712 
L 366.367773 112.13756 
L 367.231419 114.211982 
L 368.095065 112.157695 
L 368.958711 115.192415 
L 369.822358 93.894612 
L 370.686004 43.983666 
L 371.54965 115.498027 
L 372.413296 110.878171 
L 373.276943 113.508367 
L 375.004235 112.391723 
L 375.867881 114.673434 
L 376.731528 113.62842 
L 377.595174 110.52998 
L 378.45882 45.169643 
L 379.322466 113.102423 
L 380.186113 110.932552 
L 381.049759 111.447861 
L 381.913405 112.319811 
L 382.777051 114.827334 
L 383.640698 110.959846 
L 384.504344 114.772539 
L 385.36799 37.200136 
L 386.231636 114.472509 
L 387.095283 111.364916 
L 387.958929 114.681375 
L 388.822575 113.95497 
L 389.686221 112.010068 
L 390.549868 112.07884 
L 391.413514 43.109296 
L 392.27716 115.597374 
L 393.140806 112.352513 
L 394.004453 113.918244 
L 394.868099 109.531053 
L 395.731745 115.259198 
L 396.595391 97.817638 
L 397.459038 59.189177 
L 398.322684 114.110421 
L 399.18633 111.787475 
L 400.049976 110.545061 
L 400.913623 113.931905 
L 401.777269 112.645905 
L 402.640915 110.017842 
L 403.504561 37.423776 
L 404.368208 108.821591 
L 405.231854 113.722341 
L 406.959146 114.493538 
L 407.822793 114.705297 
L 408.686439 53.998622 
L 409.550085 98.630624 
L 410.413731 112.935381 
L 411.277377 112.286924 
L 412.141024 115.282765 
L 413.00467 110.600905 
L 413.868316 112.329525 
L 414.731962 110.299055 
L 415.595609 108.629092 
L 416.459255 43.827056 
L 417.322901 103.040528 
L 418.186547 112.831442 
L 419.050194 113.4165 
L 419.91384 110.23999 
L 420.777486 110.055975 
L 421.641132 81.73601 
L 422.504779 58.92451 
L 423.368425 106.608236 
L 424.232071 108.93889 
L 425.095717 110.131824 
L 425.959364 111.980802 
L 426.82301 40.877949 
L 427.686656 113.702072 
L 428.550302 113.371661 
L 429.413949 112.509091 
L 430.277595 105.419385 
L 431.141241 30.708538 
L 432.004887 113.481393 
L 432.868534 106.81538 
L 433.73218 110.928119 
L 434.595826 110.680103 
L 435.459472 111.542611 
L 436.323119 114.550861 
L 437.186765 110.289708 
L 438.050411 45.29409 
L 438.914057 113.595735 
L 439.777704 113.241244 
L 440.64135 116.844526 
L 441.504996 109.664864 
L 442.368642 106.315283 
L 443.232289 112.11413 
L 444.095935 111.690179 
L 444.959581 111.450416 
L 445.823227 114.424672 
L 446.686874 114.799406 
L 447.55052 113.520454 
L 448.414166 39.147145 
L 449.277812 107.275132 
L 450.141459 108.576019 
L 451.005105 111.547729 
L 451.868751 109.087422 
L 452.732397 108.845063 
L 453.596044 114.443803 
L 454.45969 111.196872 
L 455.323336 119.677013 
L 456.186982 111.301742 
L 457.050628 108.517986 
L 457.914275 110.362833 
L 458.777921 36.183718 
L 459.641567 103.123014 
L 460.505213 109.447629 
L 461.36886 108.855238 
L 462.232506 113.491453 
L 463.096152 111.911588 
L 463.959798 113.84656 
L 464.823445 110.344369 
L 465.687091 68.393684 
L 466.550737 69.793787 
L 467.414383 109.223219 
L 468.27803 114.567804 
L 469.141676 108.984687 
L 470.005322 110.774888 
L 470.868968 104.783803 
L 471.732615 123.411363 
L 472.596261 115.881942 
L 473.459907 118.746791 
L 474.323553 109.352945 
L 475.1872 113.752609 
L 476.050846 116.384689 
L 476.914492 80.925391 
L 477.778138 67.677033 
L 478.641785 110.193961 
L 479.505431 110.640408 
L 481.232723 113.24254 
L 482.09637 115.053319 
L 482.960016 115.60584 
L 483.823662 114.131063 
L 484.687308 43.275956 
L 485.550955 108.428375 
L 486.414601 110.001722 
L 487.278247 116.084123 
L 488.141893 107.400946 
L 489.00554 109.29741 
L 489.869186 110.774238 
L 490.732832 113.878424 
L 491.596478 108.961513 
L 492.460125 111.835203 
L 493.323771 39.731163 
L 494.187417 110.725029 
L 495.051063 115.417698 
L 495.91471 112.550938 
L 496.778356 107.853684 
L 497.642002 107.230591 
L 498.505648 116.256978 
L 499.369295 112.395944 
L 500.232941 109.467593 
L 501.096587 113.424953 
L 501.960233 55.862431 
L 502.823879 93.226605 
L 503.687526 107.457207 
L 504.551172 109.69547 
L 505.414818 110.330353 
L 506.278464 118.341643 
L 507.142111 118.525034 
L 508.005757 107.864217 
L 509.733049 66.412934 
L 510.596696 114.655366 
L 511.460342 108.344732 
L 512.323988 116.496787 
L 513.187634 110.522993 
L 514.051281 110.30602 
L 514.914927 113.353314 
L 515.778573 112.817554 
L 516.642219 49.226806 
L 517.505866 109.325793 
L 518.369512 115.405859 
L 519.233158 109.941442 
L 520.096804 114.262447 
L 520.960451 113.53452 
L 521.824097 108.898238 
L 522.687743 108.973449 
L 524.415036 61.45993 
L 525.278682 111.802698 
L 526.142328 112.848744 
L 527.005974 114.716327 
L 527.869621 114.697205 
L 528.733267 108.542197 
L 529.596913 114.567796 
L 530.460559 98.125843 
L 531.324206 55.948761 
L 532.187852 110.789828 
L 533.051498 108.853939 
L 533.915144 114.221689 
L 535.642437 104.651728 
L 536.506083 114.024902 
L 537.369729 109.976311 
L 538.233376 114.083083 
L 539.097022 110.605173 
L 539.960668 59.768518 
L 540.824314 83.660604 
L 541.687961 111.008577 
L 542.551607 111.937053 
L 543.415253 116.322475 
L 544.278899 115.380751 
L 545.142545 114.718603 
L 546.006192 103.224714 
L 546.869838 41.007104 
L 547.733484 112.664533 
L 548.59713 110.9569 
L 549.460777 110.204009 
L 550.324423 111.536182 
L 551.188069 29.560701 
L 552.051715 111.117818 
L 552.915362 111.279024 
L 553.779008 110.07405 
L 554.642654 35.693109 
L 555.5063 113.747253 
L 556.369947 95.407245 
L 557.233593 113.872371 
L 558.097239 111.966357 
L 558.960885 37.529481 
L 559.824532 110.755478 
L 560.688178 111.628354 
L 561.551824 118.012722 
L 562.41547 112.121223 
L 563.279117 111.689628 
L 564.142763 65.941376 
L 565.870055 107.747088 
L 566.733702 113.618117 
L 567.597348 109.536134 
L 568.460994 121.728902 
L 569.32464 123.366847 
L 570.188287 122.714819 
L 571.051933 121.712219 
L 571.915579 122.072656 
L 572.779225 117.977009 
L 573.642872 129.988823 
L 574.506518 121.772148 
L 575.370164 128.119476 
L 576.23381 130.251069 
L 577.097457 121.66346 
L 577.961103 120.95238 
L 578.824749 122.652255 
L 579.688395 121.383069 
L 580.552042 122.977383 
L 583.14298 122.79488 
L 584.006627 121.490584 
L 584.870273 121.833 
L 585.733919 122.837504 
L 586.597565 126.796151 
L 587.461212 126.594012 
L 588.324858 127.70641 
L 589.188504 123.783637 
L 590.05215 123.38179 
L 590.915796 119.95336 
L 591.779443 127.424383 
L 592.643089 121.690788 
L 593.506735 119.642773 
L 594.370381 122.338958 
L 595.234028 127.860128 
L 596.097674 123.426506 
L 596.96132 123.350334 
L 597.824966 125.975322 
L 598.688613 119.918755 
L 599.552259 128.195942 
L 600.415905 119.655306 
L 601.279551 124.978961 
L 602.143198 120.540899 
L 603.006844 121.139597 
L 603.87049 146.528966 
L 604.734136 147.968536 
L 605.597783 113.877523 
L 606.461429 125.22091 
L 607.325075 143.305112 
L 608.188721 130.421303 
L 609.052368 121.023619 
L 609.916014 122.718293 
L 610.77966 120.644132 
L 611.643306 120.464131 
L 612.506953 124.915381 
L 613.370599 118.663098 
L 614.234245 121.117639 
L 615.097891 120.96793 
L 615.961538 120.096338 
L 616.825184 121.156849 
L 617.68883 121.598796 
L 618.552476 124.314084 
L 619.416123 135.578498 
L 620.279769 175.209866 
L 621.143415 122.756528 
L 622.007061 127.258719 
L 622.870708 120.821803 
L 623.734354 120.600431 
L 624.598 127.114273 
L 625.461646 123.216656 
L 626.325293 123.690288 
L 627.188939 127.680155 
L 628.052585 121.393658 
L 628.916231 121.499308 
L 629.779878 122.736607 
L 630.643524 183.762052 
L 631.50717 124.249604 
L 632.370816 119.118776 
L 633.234462 124.639683 
L 634.098109 122.822741 
L 634.961755 120.61093 
L 635.825401 120.949381 
L 636.689047 122.745132 
L 637.552694 123.103374 
L 638.41634 125.084216 
L 640.143632 120.355469 
L 641.007279 122.863421 
L 641.870925 118.533653 
L 642.734571 125.355382 
L 643.598217 118.949077 
L 644.461864 121.355951 
L 645.32551 124.922372 
L 646.189156 124.8679 
L 647.052802 45.009267 
L 647.916449 47.987332 
L 648.780095 41.352973 
L 649.643741 40.466231 
L 650.507387 45.596473 
L 651.371034 45.237657 
L 652.23468 42.888936 
L 653.098326 42.757086 
L 653.961972 42.425978 
L 654.825619 53.259037 
L 655.689265 47.125056 
L 656.552911 63.068529 
L 657.416557 99.015822 
L 658.280204 123.778928 
L 659.14385 120.475541 
L 660.007496 125.070633 
L 660.871142 118.949218 
L 661.734789 124.87111 
L 662.598435 124.662238 
L 663.462081 122.630592 
L 664.325727 121.114767 
L 665.189374 122.873689 
L 666.05302 123.339049 
L 666.916666 120.876691 
L 667.780312 119.383713 
L 668.643959 123.283425 
L 669.507605 122.892964 
L 670.371251 125.773728 
L 671.234897 147.735417 
L 672.098544 127.255828 
L 672.96219 102.859994 
L 673.825836 140.838644 
L 674.689482 167.824223 
L 675.553129 120.237472 
L 676.416775 120.354262 
L 677.280421 122.551274 
L 678.144067 122.888742 
L 679.007713 129.442187 
L 679.87136 127.486455 
L 680.735006 120.027994 
L 681.598652 127.167569 
L 682.462298 127.452005 
L 683.325945 122.752965 
L 684.189591 122.346453 
L 685.053237 124.871073 
L 686.78053 120.286708 
L 687.644176 125.489576 
L 688.507822 127.305113 
L 689.371468 121.162218 
L 690.235115 122.618423 
L 691.098761 127.066891 
L 691.962407 122.64723 
L 692.826053 124.480029 
L 693.6897 124.817043 
L 694.553346 123.094712 
L 695.416992 120.566865 
L 696.280638 120.622716 
L 697.144285 123.103837 
L 698.007931 127.556318 
L 699.735223 118.338335 
L 700.59887 118.162224 
L 701.462516 118.70713 
L 702.326162 127.466328 
L 703.189808 119.22783 
L 704.053455 122.893095 
L 704.917101 123.285249 
L 705.780747 122.633835 
L 706.644393 123.011255 
L 707.50804 124.490002 
L 708.371686 120.63362 
L 709.235332 119.944722 
L 710.098978 121.32871 
L 710.962625 124.860083 
L 712.689917 121.951785 
L 713.553563 123.439273 
L 714.41721 121.918344 
L 715.280856 122.688288 
L 716.144502 122.76625 
L 717.008148 129.856133 
L 717.871795 126.650611 
L 718.735441 127.216837 
L 719.599087 124.552082 
L 720.462733 119.991874 
L 721.32638 127.138564 
L 722.190026 120.909893 
L 723.053672 120.458467 
L 723.917318 118.811816 
L 724.780964 119.261825 
L 725.644611 123.607914 
L 726.508257 120.387481 
L 727.371903 123.087495 
L 728.235549 121.437603 
L 729.099196 125.829344 
L 729.962842 123.540801 
L 730.826488 124.213292 
L 731.690134 127.272452 
L 732.553781 114.284675 
L 734.281073 167.022354 
L 735.144719 118.95263 
L 736.008366 121.40159 
L 736.872012 127.155437 
L 737.735658 122.816377 
L 738.599304 121.011662 
L 739.462951 124.478182 
L 740.326597 123.182437 
L 741.190243 122.8264 
L 742.053889 120.561233 
L 742.917536 127.532274 
L 743.781182 123.434337 
L 744.644828 122.551725 
L 745.508474 127.220341 
L 746.372121 120.502138 
L 747.235767 120.123807 
L 748.099413 120.518794 
L 748.963059 124.633034 
L 749.826706 120.508754 
L 750.690352 127.681254 
L 751.553998 120.501506 
L 752.417644 122.264107 
L 753.281291 127.617356 
L 754.144937 122.073419 
L 755.008583 118.741532 
L 755.872229 122.942824 
L 756.735876 46.186188 
L 757.599522 124.90202 
L 759.326814 120.216535 
L 760.190461 124.550032 
L 761.054107 149.887002 
L 761.917753 145.334108 
L 762.781399 105.514317 
L 763.645046 151.483893 
L 764.508692 48.183123 
L 765.372338 50.018511 
L 766.235984 42.56428 
L 767.09963 47.350564 
L 767.963277 113.815565 
L 768.826923 49.629203 
L 769.690569 43.248927 
L 770.554215 45.348593 
L 771.417862 45.057696 
L 772.281508 45.708676 
L 773.145154 64.140967 
L 774.0088 47.770311 
L 775.736093 81.16795 
L 776.599739 47.209875 
L 777.463385 46.543876 
L 778.327032 41.129829 
L 779.190678 46.948462 
L 780.054324 43.457042 
L 780.91797 52.060738 
L 781.781617 44.145876 
L 782.645263 46.564111 
L 783.508909 46.695599 
L 784.372555 83.199111 
L 785.236202 73.352554 
L 786.099848 43.460103 
L 786.963494 42.730262 
L 787.82714 43.592297 
L 789.554433 51.13389 
L 790.418079 63.542567 
L 791.281725 62.57032 
L 792.145372 84.121898 
L 793.009018 49.739814 
L 793.872664 45.850195 
L 794.73631 118.256562 
L 795.599957 121.596208 
L 796.463603 122.374185 
L 797.327249 125.179813 
L 798.190895 120.402045 
L 799.054542 121.008433 
L 799.918188 120.469548 
L 800.781834 123.383611 
L 801.64548 120.667864 
L 802.509127 123.200185 
L 803.372773 123.026017 
L 804.236419 191.539517 
L 805.100065 193.780151 
L 805.963712 125.293132 
L 806.827358 192.821243 
L 807.691004 128.585283 
L 808.55465 191.926738 
L 809.418297 193.831498 
L 810.281943 132.335075 
L 811.145589 193.156638 
L 812.009235 129.433809 
L 812.872881 190.804907 
L 813.736528 193.740475 
L 814.600174 131.820432 
L 815.46382 193.064774 
L 816.327466 130.135702 
L 817.191113 190.257923 
L 818.054759 193.712452 
L 818.918405 194.316239 
L 819.782051 194.716556 
L 821.509344 195.044144 
L 824.963929 195.31523 
L 836.19133 195.404879 
L 850.741178 195.437564 
L 850.741178 195.437564 
" style="fill:none;stroke:#8b0000;stroke-linecap:square;stroke-width:1.5;"/>
   </g>
   <g id="patch_3">
    <path d="M 58.47875 195.567708 
L 58.47875 12.96 
" style="fill:none;stroke:#000000;stroke-linecap:square;stroke-linejoin:miter;stroke-width:0.8;"/>
   </g>
   <g id="patch_4">
    <path d="M 58.47875 195.567708 
L 851.04 195.567708 
" style="fill:none;stroke:#000000;stroke-linecap:square;stroke-linejoin:miter;stroke-width:0.8;"/>
   </g>
   <g id="legend_1">
    <g id="patch_5">
     <path d="M 786.72 40.17375 
L 842.64 40.17375 
Q 845.04 40.17375 845.04 37.77375 
L 845.04 21.36 
Q 845.04 18.96 842.64 18.96 
L 786.72 18.96 
Q 784.32 18.96 784.32 21.36 
L 784.32 37.77375 
Q 784.32 40.17375 786.72 40.17375 
z
" style="fill:#ffffff;stroke:#cccccc;stroke-linejoin:miter;"/>
    </g>
    <g id="line2d_20">
     <path d="M 789.12 28.678125 
L 813.12 28.678125 
" style="fill:none;stroke:#8b0000;stroke-linecap:square;stroke-width:1.5;"/>
    </g>
    <g id="line2d_21"/>
    <g id="text_6">
     <!-- $i(t)$ -->
     <g transform="translate(822.72 32.878125)scale(0.12 -0.12)">
      <defs>
       <path d="M 9.421875 54.6875 
L 18.40625 54.6875 
L 18.40625 0 
L 9.421875 0 
z
M 9.421875 75.984375 
L 18.40625 75.984375 
L 18.40625 64.59375 
L 9.421875 64.59375 
z
" id="DejaVuSans-105"/>
       <path d="M 31 75.875 
Q 24.46875 64.65625 21.28125 53.65625 
Q 18.109375 42.671875 18.109375 31.390625 
Q 18.109375 20.125 21.3125 9.0625 
Q 24.515625 -2 31 -13.1875 
L 23.1875 -13.1875 
Q 15.875 -1.703125 12.234375 9.375 
Q 8.59375 20.453125 8.59375 31.390625 
Q 8.59375 42.28125 12.203125 53.3125 
Q 15.828125 64.359375 23.1875 75.875 
z
" id="DejaVuSans-40"/>
       <path d="M 8.015625 75.875 
L 15.828125 75.875 
Q 23.140625 64.359375 26.78125 53.3125 
Q 30.421875 42.28125 30.421875 31.390625 
Q 30.421875 20.453125 26.78125 9.375 
Q 23.140625 -1.703125 15.828125 -13.1875 
L 8.015625 -13.1875 
Q 14.5 -2 17.703125 9.0625 
Q 20.90625 20.125 20.90625 31.390625 
Q 20.90625 42.671875 17.703125 53.65625 
Q 14.5 64.65625 8.015625 75.875 
z
" id="DejaVuSans-41"/>
      </defs>
      <use transform="translate(0 0.015625)" xlink:href="#DejaVuSans-105"/>
      <use transform="translate(27.783203 0.015625)" xlink:href="#DejaVuSans-40"/>
      <use transform="translate(66.796875 0.015625)" xlink:href="#DejaVuSans-116"/>
      <use transform="translate(106.005859 0.015625)" xlink:href="#DejaVuSans-41"/>
     </g>
    </g>
   </g>
  </g>
  <g id="axes_2">
   <g id="patch_6">
    <path d="M 58.47875 398.190104 
L 851.04 398.190104 
L 851.04 215.582396 
L 58.47875 215.582396 
z
" style="fill:#ffffff;"/>
   </g>
   <g id="matplotlib.axis_3">
    <g id="xtick_6">
     <g id="line2d_22">
      <path clip-path="url(#p917ad64dc4)" d="M 58.47875 398.190104 
L 58.47875 215.582396 
" style="fill:none;stroke:#cccccc;stroke-dasharray:0.8,1.32;stroke-dashoffset:0;stroke-width:0.8;"/>
     </g>
     <g id="line2d_23">
      <g>
       <use style="stroke:#000000;stroke-width:0.8;" x="58.47875" xlink:href="#mab8880e5d4" y="398.190104"/>
      </g>
     </g>
    </g>
    <g id="xtick_7">
     <g id="line2d_24">
      <path clip-path="url(#p917ad64dc4)" d="M 231.207999 398.190104 
L 231.207999 215.582396 
" style="fill:none;stroke:#cccccc;stroke-dasharray:0.8,1.32;stroke-dashoffset:0;stroke-width:0.8;"/>
     </g>
     <g id="line2d_25">
      <g>
       <use style="stroke:#000000;stroke-width:0.8;" x="231.207999" xlink:href="#mab8880e5d4" y="398.190104"/>
      </g>
     </g>
    </g>
    <g id="xtick_8">
     <g id="line2d_26">
      <path clip-path="url(#p917ad64dc4)" d="M 403.937248 398.190104 
L 403.937248 215.582396 
" style="fill:none;stroke:#cccccc;stroke-dasharray:0.8,1.32;stroke-dashoffset:0;stroke-width:0.8;"/>
     </g>
     <g id="line2d_27">
      <g>
       <use style="stroke:#000000;stroke-width:0.8;" x="403.937248" xlink:href="#mab8880e5d4" y="398.190104"/>
      </g>
     </g>
    </g>
    <g id="xtick_9">
     <g id="line2d_28">
      <path clip-path="url(#p917ad64dc4)" d="M 576.666497 398.190104 
L 576.666497 215.582396 
" style="fill:none;stroke:#cccccc;stroke-dasharray:0.8,1.32;stroke-dashoffset:0;stroke-width:0.8;"/>
     </g>
     <g id="line2d_29">
      <g>
       <use style="stroke:#000000;stroke-width:0.8;" x="576.666497" xlink:href="#mab8880e5d4" y="398.190104"/>
      </g>
     </g>
    </g>
    <g id="xtick_10">
     <g id="line2d_30">
      <path clip-path="url(#p917ad64dc4)" d="M 749.395746 398.190104 
L 749.395746 215.582396 
" style="fill:none;stroke:#cccccc;stroke-dasharray:0.8,1.32;stroke-dashoffset:0;stroke-width:0.8;"/>
     </g>
     <g id="line2d_31">
      <g>
       <use style="stroke:#000000;stroke-width:0.8;" x="749.395746" xlink:href="#mab8880e5d4" y="398.190104"/>
      </g>
     </g>
    </g>
   </g>
   <g id="matplotlib.axis_4">
    <g id="ytick_5">
     <g id="line2d_32">
      <path clip-path="url(#p917ad64dc4)" d="M 58.47875 398.190104 
L 851.04 398.190104 
" style="fill:none;stroke:#cccccc;stroke-dasharray:0.8,1.32;stroke-dashoffset:0;stroke-width:0.8;"/>
     </g>
     <g id="line2d_33">
      <g>
       <use style="stroke:#000000;stroke-width:0.8;" x="58.47875" xlink:href="#m27677cc647" y="398.190104"/>
      </g>
     </g>
     <g id="text_7">
      <!-- 0.0 -->
      <g transform="translate(32.395 402.749167)scale(0.12 -0.12)">
       <defs>
        <path d="M 10.6875 12.40625 
L 21 12.40625 
L 21 0 
L 10.6875 0 
z
" id="DejaVuSans-46"/>
       </defs>
       <use xlink:href="#DejaVuSans-48"/>
       <use x="63.623047" xlink:href="#DejaVuSans-46"/>
       <use x="95.410156" xlink:href="#DejaVuSans-48"/>
      </g>
     </g>
    </g>
    <g id="ytick_6">
     <g id="line2d_34">
      <path clip-path="url(#p917ad64dc4)" d="M 58.47875 371.002606 
L 851.04 371.002606 
" style="fill:none;stroke:#cccccc;stroke-dasharray:0.8,1.32;stroke-dashoffset:0;stroke-width:0.8;"/>
     </g>
     <g id="line2d_35">
      <g>
       <use style="stroke:#000000;stroke-width:0.8;" x="58.47875" xlink:href="#m27677cc647" y="371.002606"/>
      </g>
     </g>
     <g id="text_8">
      <!-- 0.5 -->
      <g transform="translate(32.395 375.561668)scale(0.12 -0.12)">
       <defs>
        <path d="M 10.796875 72.90625 
L 49.515625 72.90625 
L 49.515625 64.59375 
L 19.828125 64.59375 
L 19.828125 46.734375 
Q 21.96875 47.46875 24.109375 47.828125 
Q 26.265625 48.1875 28.421875 48.1875 
Q 40.625 48.1875 47.75 41.5 
Q 54.890625 34.8125 54.890625 23.390625 
Q 54.890625 11.625 47.5625 5.09375 
Q 40.234375 -1.421875 26.90625 -1.421875 
Q 22.3125 -1.421875 17.546875 -0.640625 
Q 12.796875 0.140625 7.71875 1.703125 
L 7.71875 11.625 
Q 12.109375 9.234375 16.796875 8.0625 
Q 21.484375 6.890625 26.703125 6.890625 
Q 35.15625 6.890625 40.078125 11.328125 
Q 45.015625 15.765625 45.015625 23.390625 
Q 45.015625 31 40.078125 35.4375 
Q 35.15625 39.890625 26.703125 39.890625 
Q 22.75 39.890625 18.8125 39.015625 
Q 14.890625 38.140625 10.796875 36.28125 
z
" id="DejaVuSans-53"/>
       </defs>
       <use xlink:href="#DejaVuSans-48"/>
       <use x="63.623047" xlink:href="#DejaVuSans-46"/>
       <use x="95.410156" xlink:href="#DejaVuSans-53"/>
      </g>
     </g>
    </g>
    <g id="ytick_7">
     <g id="line2d_36">
      <path clip-path="url(#p917ad64dc4)" d="M 58.47875 343.815107 
L 851.04 343.815107 
" style="fill:none;stroke:#cccccc;stroke-dasharray:0.8,1.32;stroke-dashoffset:0;stroke-width:0.8;"/>
     </g>
     <g id="line2d_37">
      <g>
       <use style="stroke:#000000;stroke-width:0.8;" x="58.47875" xlink:href="#m27677cc647" y="343.815107"/>
      </g>
     </g>
     <g id="text_9">
      <!-- 1.0 -->
      <g transform="translate(32.395 348.37417)scale(0.12 -0.12)">
       <use xlink:href="#DejaVuSans-49"/>
       <use x="63.623047" xlink:href="#DejaVuSans-46"/>
       <use x="95.410156" xlink:href="#DejaVuSans-48"/>
      </g>
     </g>
    </g>
    <g id="ytick_8">
     <g id="line2d_38">
      <path clip-path="url(#p917ad64dc4)" d="M 58.47875 316.627608 
L 851.04 316.627608 
" style="fill:none;stroke:#cccccc;stroke-dasharray:0.8,1.32;stroke-dashoffset:0;stroke-width:0.8;"/>
     </g>
     <g id="line2d_39">
      <g>
       <use style="stroke:#000000;stroke-width:0.8;" x="58.47875" xlink:href="#m27677cc647" y="316.627608"/>
      </g>
     </g>
     <g id="text_10">
      <!-- 1.5 -->
      <g transform="translate(32.395 321.186671)scale(0.12 -0.12)">
       <use xlink:href="#DejaVuSans-49"/>
       <use x="63.623047" xlink:href="#DejaVuSans-46"/>
       <use x="95.410156" xlink:href="#DejaVuSans-53"/>
      </g>
     </g>
    </g>
    <g id="ytick_9">
     <g id="line2d_40">
      <path clip-path="url(#p917ad64dc4)" d="M 58.47875 289.44011 
L 851.04 289.44011 
" style="fill:none;stroke:#cccccc;stroke-dasharray:0.8,1.32;stroke-dashoffset:0;stroke-width:0.8;"/>
     </g>
     <g id="line2d_41">
      <g>
       <use style="stroke:#000000;stroke-width:0.8;" x="58.47875" xlink:href="#m27677cc647" y="289.44011"/>
      </g>
     </g>
     <g id="text_11">
      <!-- 2.0 -->
      <g transform="translate(32.395 293.999172)scale(0.12 -0.12)">
       <use xlink:href="#DejaVuSans-50"/>
       <use x="63.623047" xlink:href="#DejaVuSans-46"/>
       <use x="95.410156" xlink:href="#DejaVuSans-48"/>
      </g>
     </g>
    </g>
    <g id="ytick_10">
     <g id="line2d_42">
      <path clip-path="url(#p917ad64dc4)" d="M 58.47875 262.252611 
L 851.04 262.252611 
" style="fill:none;stroke:#cccccc;stroke-dasharray:0.8,1.32;stroke-dashoffset:0;stroke-width:0.8;"/>
     </g>
     <g id="line2d_43">
      <g>
       <use style="stroke:#000000;stroke-width:0.8;" x="58.47875" xlink:href="#m27677cc647" y="262.252611"/>
      </g>
     </g>
     <g id="text_12">
      <!-- 2.5 -->
      <g transform="translate(32.395 266.811674)scale(0.12 -0.12)">
       <use xlink:href="#DejaVuSans-50"/>
       <use x="63.623047" xlink:href="#DejaVuSans-46"/>
       <use x="95.410156" xlink:href="#DejaVuSans-53"/>
      </g>
     </g>
    </g>
    <g id="ytick_11">
     <g id="line2d_44">
      <path clip-path="url(#p917ad64dc4)" d="M 58.47875 235.065113 
L 851.04 235.065113 
" style="fill:none;stroke:#cccccc;stroke-dasharray:0.8,1.32;stroke-dashoffset:0;stroke-width:0.8;"/>
     </g>
     <g id="line2d_45">
      <g>
       <use style="stroke:#000000;stroke-width:0.8;" x="58.47875" xlink:href="#m27677cc647" y="235.065113"/>
      </g>
     </g>
     <g id="text_13">
      <!-- 3.0 -->
      <g transform="translate(32.395 239.624175)scale(0.12 -0.12)">
       <use xlink:href="#DejaVuSans-51"/>
       <use x="63.623047" xlink:href="#DejaVuSans-46"/>
       <use x="95.410156" xlink:href="#DejaVuSans-48"/>
      </g>
     </g>
    </g>
    <g id="text_14">
     <!-- voltage [V] -->
     <g transform="translate(25.899375 339.99875)rotate(-90)scale(0.12 -0.12)">
      <defs>
       <path d="M 2.984375 54.6875 
L 12.5 54.6875 
L 29.59375 8.796875 
L 46.6875 54.6875 
L 56.203125 54.6875 
L 35.6875 0 
L 23.484375 0 
z
" id="DejaVuSans-118"/>
       <path d="M 30.609375 48.390625 
Q 23.390625 48.390625 19.1875 42.75 
Q 14.984375 37.109375 14.984375 27.296875 
Q 14.984375 17.484375 19.15625 11.84375 
Q 23.34375 6.203125 30.609375 6.203125 
Q 37.796875 6.203125 41.984375 11.859375 
Q 46.1875 17.53125 46.1875 27.296875 
Q 46.1875 37.015625 41.984375 42.703125 
Q 37.796875 48.390625 30.609375 48.390625 
z
M 30.609375 56 
Q 42.328125 56 49.015625 48.375 
Q 55.71875 40.765625 55.71875 27.296875 
Q 55.71875 13.875 49.015625 6.21875 
Q 42.328125 -1.421875 30.609375 -1.421875 
Q 18.84375 -1.421875 12.171875 6.21875 
Q 5.515625 13.875 5.515625 27.296875 
Q 5.515625 40.765625 12.171875 48.375 
Q 18.84375 56 30.609375 56 
z
" id="DejaVuSans-111"/>
       <path d="M 9.421875 75.984375 
L 18.40625 75.984375 
L 18.40625 0 
L 9.421875 0 
z
" id="DejaVuSans-108"/>
       <path d="M 34.28125 27.484375 
Q 23.390625 27.484375 19.1875 25 
Q 14.984375 22.515625 14.984375 16.5 
Q 14.984375 11.71875 18.140625 8.90625 
Q 21.296875 6.109375 26.703125 6.109375 
Q 34.1875 6.109375 38.703125 11.40625 
Q 43.21875 16.703125 43.21875 25.484375 
L 43.21875 27.484375 
z
M 52.203125 31.203125 
L 52.203125 0 
L 43.21875 0 
L 43.21875 8.296875 
Q 40.140625 3.328125 35.546875 0.953125 
Q 30.953125 -1.421875 24.3125 -1.421875 
Q 15.921875 -1.421875 10.953125 3.296875 
Q 6 8.015625 6 15.921875 
Q 6 25.140625 12.171875 29.828125 
Q 18.359375 34.515625 30.609375 34.515625 
L 43.21875 34.515625 
L 43.21875 35.40625 
Q 43.21875 41.609375 39.140625 45 
Q 35.0625 48.390625 27.6875 48.390625 
Q 23 48.390625 18.546875 47.265625 
Q 14.109375 46.140625 10.015625 43.890625 
L 10.015625 52.203125 
Q 14.9375 54.109375 19.578125 55.046875 
Q 24.21875 56 28.609375 56 
Q 40.484375 56 46.34375 49.84375 
Q 52.203125 43.703125 52.203125 31.203125 
z
" id="DejaVuSans-97"/>
       <path d="M 45.40625 27.984375 
Q 45.40625 37.75 41.375 43.109375 
Q 37.359375 48.484375 30.078125 48.484375 
Q 22.859375 48.484375 18.828125 43.109375 
Q 14.796875 37.75 14.796875 27.984375 
Q 14.796875 18.265625 18.828125 12.890625 
Q 22.859375 7.515625 30.078125 7.515625 
Q 37.359375 7.515625 41.375 12.890625 
Q 45.40625 18.265625 45.40625 27.984375 
z
M 54.390625 6.78125 
Q 54.390625 -7.171875 48.1875 -13.984375 
Q 42 -20.796875 29.203125 -20.796875 
Q 24.46875 -20.796875 20.265625 -20.09375 
Q 16.0625 -19.390625 12.109375 -17.921875 
L 12.109375 -9.1875 
Q 16.0625 -11.328125 19.921875 -12.34375 
Q 23.78125 -13.375 27.78125 -13.375 
Q 36.625 -13.375 41.015625 -8.765625 
Q 45.40625 -4.15625 45.40625 5.171875 
L 45.40625 9.625 
Q 42.625 4.78125 38.28125 2.390625 
Q 33.9375 0 27.875 0 
Q 17.828125 0 11.671875 7.65625 
Q 5.515625 15.328125 5.515625 27.984375 
Q 5.515625 40.671875 11.671875 48.328125 
Q 17.828125 56 27.875 56 
Q 33.9375 56 38.28125 53.609375 
Q 42.625 51.21875 45.40625 46.390625 
L 45.40625 54.6875 
L 54.390625 54.6875 
z
" id="DejaVuSans-103"/>
       <path d="M 28.609375 0 
L 0.78125 72.90625 
L 11.078125 72.90625 
L 34.1875 11.53125 
L 57.328125 72.90625 
L 67.578125 72.90625 
L 39.796875 0 
z
" id="DejaVuSans-86"/>
      </defs>
      <use xlink:href="#DejaVuSans-118"/>
      <use x="59.179688" xlink:href="#DejaVuSans-111"/>
      <use x="120.361328" xlink:href="#DejaVuSans-108"/>
      <use x="148.144531" xlink:href="#DejaVuSans-116"/>
      <use x="187.353516" xlink:href="#DejaVuSans-97"/>
      <use x="248.632812" xlink:href="#DejaVuSans-103"/>
      <use x="312.109375" xlink:href="#DejaVuSans-101"/>
      <use x="373.632812" xlink:href="#DejaVuSans-32"/>
      <use x="405.419922" xlink:href="#DejaVuSans-91"/>
      <use x="444.433594" xlink:href="#DejaVuSans-86"/>
      <use x="512.841797" xlink:href="#DejaVuSans-93"/>
     </g>
    </g>
   </g>
   <g id="line2d_46">
    <path clip-path="url(#p917ad64dc4)" d="M 58.909709 232.790161 
L 71.864403 232.78506 
L 72.728049 232.938213 
L 73.591696 232.183097 
L 76.182634 232.28878 
L 80.500866 232.401695 
L 81.364512 232.634975 
L 82.228158 232.500038 
L 83.091804 232.516491 
L 83.955451 232.800101 
L 84.819097 232.632582 
L 85.682743 232.645828 
L 86.546389 232.951655 
L 87.410036 232.769379 
L 88.273682 232.790009 
L 89.137328 233.103393 
L 90.000974 232.908078 
L 90.864621 232.925816 
L 91.728267 233.234502 
L 92.591913 233.044266 
L 93.455559 233.283375 
L 94.319206 232.938431 
L 95.182852 232.941269 
L 96.046498 233.200355 
L 96.910144 232.814282 
L 98.637437 232.844514 
L 99.501083 232.983355 
L 100.364729 232.728804 
L 101.228375 232.749358 
L 102.092022 233.008835 
L 102.955668 232.830583 
L 103.819314 232.847178 
L 104.68296 233.117292 
L 105.546607 232.742757 
L 109.864838 232.894376 
L 110.728484 233.073792 
L 111.59213 232.753469 
L 112.455777 232.781178 
L 113.319423 233.042591 
L 114.183069 232.724846 
L 115.046715 232.749206 
L 115.910362 232.978983 
L 116.774008 232.691198 
L 117.637654 232.719441 
L 118.5013 233.03648 
L 119.364947 232.845808 
L 120.228593 233.106438 
L 121.092239 233.149938 
L 121.955885 232.932689 
L 123.683178 232.949523 
L 125.41047 232.97111 
L 127.137763 232.866275 
L 128.865055 233.007128 
L 129.728702 232.681987 
L 130.592348 233.020515 
L 134.046933 232.949164 
L 134.910579 233.012935 
L 136.637872 232.739853 
L 137.501518 233.053619 
L 139.22881 232.976058 
L 142.683395 232.909296 
L 143.547042 232.727369 
L 144.410688 233.044244 
L 146.13798 232.983703 
L 150.456211 232.907535 
L 151.319858 232.603959 
L 152.183504 232.945597 
L 153.910796 232.982028 
L 155.638089 232.882642 
L 158.229028 232.953427 
L 159.092674 232.902793 
L 159.95632 233.235579 
L 160.819966 232.940627 
L 163.410905 232.907154 
L 164.274551 233.177855 
L 165.138198 232.889112 
L 167.729136 233.016317 
L 168.592783 233.310519 
L 169.456429 232.879488 
L 174.638306 232.925555 
L 176.365599 232.87653 
L 177.229245 233.226955 
L 178.092891 232.880064 
L 179.820184 232.86957 
L 181.547476 232.892114 
L 182.411123 233.137149 
L 183.274769 232.934015 
L 185.865708 232.872169 
L 188.456646 232.885361 
L 189.320292 233.205238 
L 190.183939 232.863763 
L 191.047585 232.958658 
L 192.774877 232.888329 
L 194.50217 232.949382 
L 195.365816 233.171514 
L 196.229462 232.89915 
L 197.956755 232.872104 
L 199.684047 232.867069 
L 200.547694 233.13964 
L 201.41134 232.852583 
L 204.002279 232.837173 
L 204.865925 233.166849 
L 205.729571 232.857249 
L 206.593217 232.957266 
L 207.456864 232.83291 
L 209.184156 232.96552 
L 210.047802 233.175832 
L 210.911449 232.932939 
L 212.638741 232.868091 
L 214.366034 232.879662 
L 215.22968 233.081741 
L 217.820619 232.773794 
L 218.684265 232.876062 
L 222.13885 232.861229 
L 223.002496 232.916278 
L 223.866142 233.093106 
L 225.593435 232.876345 
L 228.184374 232.848712 
L 231.638959 232.90897 
L 232.502605 233.168981 
L 233.366251 232.866721 
L 236.820836 232.850865 
L 240.275421 232.968859 
L 242.002713 232.837913 
L 242.86636 232.946772 
L 245.457298 232.905545 
L 246.320945 233.112931 
L 247.184591 232.868396 
L 248.911883 232.773326 
L 250.639176 232.904936 
L 251.502822 232.791694 
L 252.366468 232.831029 
L 253.230115 233.041493 
L 255.821053 232.840436 
L 258.411992 232.842644 
L 260.139285 232.854084 
L 261.866577 233.102404 
L 262.730223 232.856052 
L 265.321162 232.849038 
L 268.775747 232.906415 
L 269.639393 233.154397 
L 270.50304 232.902206 
L 271.366686 232.796164 
L 272.230332 232.897367 
L 273.093978 232.820991 
L 273.957625 232.881891 
L 274.821271 232.776621 
L 276.548563 232.908024 
L 277.412209 233.078011 
L 280.003148 232.861892 
L 281.730441 232.839751 
L 282.594087 232.850006 
L 283.457733 233.016176 
L 287.775964 232.854987 
L 292.094196 232.867689 
L 293.821488 232.846689 
L 294.685134 232.925718 
L 295.548781 233.119053 
L 296.412427 232.858032 
L 299.867012 232.811421 
L 300.730658 233.199637 
L 301.594304 232.926098 
L 302.457951 232.806636 
L 303.321597 232.860674 
L 304.185243 233.096162 
L 305.048889 232.883512 
L 308.503474 232.824819 
L 310.230767 233.048866 
L 311.094413 232.87156 
L 311.958059 232.815684 
L 312.821706 232.906763 
L 313.685352 232.819926 
L 318.867229 232.960181 
L 319.730876 232.770586 
L 322.321814 232.847048 
L 324.912753 232.839338 
L 325.776399 233.126775 
L 326.640045 232.88026 
L 327.503692 232.84658 
L 328.367338 232.942987 
L 329.230984 232.867417 
L 330.09463 233.099576 
L 330.958277 232.808964 
L 333.549215 232.793369 
L 334.412862 233.098848 
L 335.276508 232.815184 
L 337.867447 232.877966 
L 338.731093 232.827973 
L 339.594739 233.161031 
L 340.458385 232.943694 
L 344.776617 232.803341 
L 345.640263 233.062036 
L 346.503909 232.836097 
L 353.413079 232.804211 
L 354.276725 233.238678 
L 355.140372 232.812302 
L 356.867664 232.81849 
L 358.594957 232.871778 
L 360.322249 232.78332 
L 361.185895 233.16127 
L 362.049542 232.766203 
L 362.913188 232.880728 
L 365.504127 232.800144 
L 367.231419 232.871343 
L 370.686004 232.988216 
L 371.54965 232.763136 
L 372.413296 232.884447 
L 373.276943 232.851844 
L 374.140589 232.939638 
L 375.867881 232.853975 
L 377.595174 232.922597 
L 378.45882 233.092562 
L 379.322466 232.850604 
L 380.186113 232.871876 
L 381.913405 232.771195 
L 383.640698 232.881728 
L 384.504344 232.822992 
L 385.36799 233.082513 
L 386.231636 232.887101 
L 387.958929 232.791618 
L 389.686221 232.832802 
L 390.549868 232.998928 
L 391.413514 233.051172 
L 392.27716 232.808268 
L 393.140806 232.866101 
L 394.004453 232.78841 
L 397.459038 232.907045 
L 400.049976 232.82072 
L 402.640915 232.851061 
L 403.504561 233.14101 
L 404.368208 232.847516 
L 407.822793 232.837086 
L 408.686439 233.123991 
L 409.550085 232.783103 
L 411.277377 232.825265 
L 415.595609 232.823862 
L 416.459255 233.05911 
L 417.322901 232.913744 
L 420.777486 232.810976 
L 421.641132 233.068071 
L 423.368425 232.829474 
L 425.959364 232.807474 
L 426.82301 233.075325 
L 427.686656 232.852159 
L 429.413949 232.853236 
L 431.141241 233.083568 
L 432.004887 232.767606 
L 432.868534 232.883403 
L 434.595826 232.845776 
L 437.186765 232.891287 
L 438.050411 233.062851 
L 438.914057 232.90325 
L 441.504996 232.881913 
L 444.095935 232.776915 
L 446.686874 232.877204 
L 447.55052 232.847798 
L 448.414166 233.136279 
L 449.277812 232.833248 
L 450.141459 232.903837 
L 453.596044 232.778601 
L 458.777921 233.054858 
L 459.641567 232.764485 
L 461.36886 232.827625 
L 464.823445 232.836945 
L 465.687091 233.131494 
L 466.550737 232.870832 
L 468.27803 232.853899 
L 470.868968 232.857347 
L 475.1872 232.785843 
L 476.914492 233.044755 
L 478.641785 232.857249 
L 479.505431 232.909133 
L 481.232723 232.849419 
L 483.823662 232.824667 
L 484.687308 233.060046 
L 485.550955 232.794315 
L 489.00554 232.847037 
L 492.460125 232.893528 
L 493.323771 233.134822 
L 494.187417 232.80693 
L 497.642002 232.799557 
L 499.369295 232.931264 
L 501.096587 232.788519 
L 501.960233 233.160063 
L 502.823879 232.773696 
L 504.551172 232.860141 
L 508.005757 232.802982 
L 508.869403 233.061481 
L 509.733049 232.904925 
L 514.051281 232.835488 
L 515.778573 232.840686 
L 516.642219 233.128536 
L 517.505866 232.812063 
L 520.960451 232.833052 
L 522.687743 232.809355 
L 523.551389 233.025528 
L 525.278682 232.871277 
L 529.596913 232.835238 
L 530.460559 232.994567 
L 531.324206 232.983758 
L 532.187852 232.846298 
L 537.369729 232.852475 
L 539.097022 232.846124 
L 539.960668 233.116857 
L 540.824314 232.851267 
L 545.142545 232.837826 
L 546.869838 233.036055 
L 547.733484 232.79823 
L 548.59713 232.862675 
L 550.324423 232.804255 
L 551.188069 233.143381 
L 552.051715 232.826266 
L 553.779008 232.860022 
L 554.642654 233.079827 
L 555.5063 232.816968 
L 558.097239 232.833345 
L 558.960885 233.150537 
L 559.824532 232.884675 
L 563.279117 232.848201 
L 564.142763 233.102458 
L 565.006409 232.823319 
L 566.733702 232.779221 
L 567.597348 232.877911 
L 569.32464 232.81874 
L 576.23381 232.797349 
L 578.824749 232.838913 
L 582.279334 232.837326 
L 584.006627 232.833215 
L 585.733919 232.828463 
L 593.506735 232.852572 
L 596.96132 232.785746 
L 601.279551 232.830126 
L 604.734136 232.750511 
L 605.597783 232.861349 
L 606.461429 232.84546 
L 607.325075 232.691068 
L 609.052368 232.834596 
L 619.416123 232.87989 
L 620.279769 232.558436 
L 621.143415 232.840371 
L 623.734354 232.857651 
L 629.779878 232.816489 
L 630.643524 232.686522 
L 632.370816 232.875725 
L 634.961755 232.861175 
L 637.552694 232.834052 
L 639.279986 232.876845 
L 646.189156 232.807006 
L 647.052802 233.084101 
L 647.916449 233.004203 
L 648.780095 233.093823 
L 653.098326 233.00181 
L 655.689265 233.044821 
L 656.552911 233.113812 
L 657.416557 232.751533 
L 660.007496 232.795381 
L 660.871142 232.900172 
L 666.05302 232.797349 
L 667.780312 232.898182 
L 669.507605 232.77201 
L 673.825836 232.823003 
L 674.689482 232.56979 
L 675.553129 232.852942 
L 685.916883 232.825526 
L 693.6897 232.864339 
L 695.416992 232.775838 
L 697.144285 232.840523 
L 711.826271 232.905403 
L 712.689917 232.791955 
L 718.735441 232.850593 
L 721.32638 232.820132 
L 727.371903 232.872408 
L 733.417427 232.882076 
L 734.281073 232.570932 
L 735.144719 232.855248 
L 739.462951 232.837761 
L 741.190243 232.878683 
L 755.872229 232.847004 
L 756.735876 233.076228 
L 757.599522 232.722051 
L 759.326814 232.881576 
L 761.917753 232.765398 
L 762.781399 232.939279 
L 763.645046 232.665359 
L 764.508692 233.126612 
L 767.963277 232.793891 
L 768.826923 233.036284 
L 774.0088 233.00256 
L 774.872447 232.956885 
L 775.736093 232.791205 
L 776.599739 233.048605 
L 780.054324 233.071497 
L 781.781617 233.014697 
L 785.236202 232.808572 
L 786.099848 233.013316 
L 789.554433 233.009183 
L 790.418079 233.054499 
L 792.145372 232.801373 
L 793.009018 233.07638 
L 793.872664 232.996025 
L 794.73631 232.728326 
L 803.372773 232.816685 
L 804.236419 232.583862 
L 805.100065 232.617129 
L 805.963712 232.855574 
L 806.827358 232.6169 
L 807.691004 232.869276 
L 808.55465 232.652603 
L 809.418297 232.673537 
L 810.281943 232.883588 
L 811.145589 232.658693 
L 812.009235 232.912744 
L 812.872881 232.666305 
L 813.736528 232.694243 
L 814.600174 232.910667 
L 815.46382 232.684043 
L 816.327466 232.93246 
L 817.191113 232.533696 
L 824.963929 232.721877 
L 834.464038 232.806147 
L 839.645915 232.732458 
L 850.741178 232.704956 
L 850.741178 232.704956 
" style="fill:none;stroke:#00008b;stroke-linecap:square;stroke-width:1.5;"/>
   </g>
   <g id="patch_7">
    <path d="M 58.47875 398.190104 
L 58.47875 215.582396 
" style="fill:none;stroke:#000000;stroke-linecap:square;stroke-linejoin:miter;stroke-width:0.8;"/>
   </g>
   <g id="patch_8">
    <path d="M 58.47875 398.190104 
L 851.04 398.190104 
" style="fill:none;stroke:#000000;stroke-linecap:square;stroke-linejoin:miter;stroke-width:0.8;"/>
   </g>
   <g id="legend_2">
    <g id="patch_9">
     <path d="M 783 242.796146 
L 842.64 242.796146 
Q 845.04 242.796146 845.04 240.396146 
L 845.04 223.982396 
Q 845.04 221.582396 842.64 221.582396 
L 783 221.582396 
Q 780.6 221.582396 780.6 223.982396 
L 780.6 240.396146 
Q 780.6 242.796146 783 242.796146 
z
" style="fill:#ffffff;stroke:#cccccc;stroke-linejoin:miter;"/>
    </g>
    <g id="line2d_47">
     <path d="M 785.4 231.300521 
L 809.4 231.300521 
" style="fill:none;stroke:#00008b;stroke-linecap:square;stroke-width:1.5;"/>
    </g>
    <g id="line2d_48"/>
    <g id="text_15">
     <!-- $v(t)$ -->
     <g transform="translate(819 235.500521)scale(0.12 -0.12)">
      <use transform="translate(0 0.125)" xlink:href="#DejaVuSans-118"/>
      <use transform="translate(59.179688 0.125)" xlink:href="#DejaVuSans-40"/>
      <use transform="translate(98.193359 0.125)" xlink:href="#DejaVuSans-116"/>
      <use transform="translate(137.402344 0.125)" xlink:href="#DejaVuSans-41"/>
     </g>
    </g>
   </g>
  </g>
  <g id="axes_3">
   <g id="patch_10">
    <path d="M 58.47875 600.8125 
L 851.04 600.8125 
L 851.04 418.204792 
L 58.47875 418.204792 
z
" style="fill:#ffffff;"/>
   </g>
   <g id="matplotlib.axis_5">
    <g id="xtick_11">
     <g id="line2d_49">
      <path clip-path="url(#p7d689ca582)" d="M 58.47875 600.8125 
L 58.47875 418.204792 
" style="fill:none;stroke:#cccccc;stroke-dasharray:0.8,1.32;stroke-dashoffset:0;stroke-width:0.8;"/>
     </g>
     <g id="line2d_50">
      <g>
       <use style="stroke:#000000;stroke-width:0.8;" x="58.47875" xlink:href="#mab8880e5d4" y="600.8125"/>
      </g>
     </g>
     <g id="text_16">
      <!-- 0 -->
      <g transform="translate(54.66125 616.930625)scale(0.12 -0.12)">
       <use xlink:href="#DejaVuSans-48"/>
      </g>
     </g>
    </g>
    <g id="xtick_12">
     <g id="line2d_51">
      <path clip-path="url(#p7d689ca582)" d="M 231.207999 600.8125 
L 231.207999 418.204792 
" style="fill:none;stroke:#cccccc;stroke-dasharray:0.8,1.32;stroke-dashoffset:0;stroke-width:0.8;"/>
     </g>
     <g id="line2d_52">
      <g>
       <use style="stroke:#000000;stroke-width:0.8;" x="231.207999" xlink:href="#mab8880e5d4" y="600.8125"/>
      </g>
     </g>
     <g id="text_17">
      <!-- 50 -->
      <g transform="translate(223.572999 616.930625)scale(0.12 -0.12)">
       <use xlink:href="#DejaVuSans-53"/>
       <use x="63.623047" xlink:href="#DejaVuSans-48"/>
      </g>
     </g>
    </g>
    <g id="xtick_13">
     <g id="line2d_53">
      <path clip-path="url(#p7d689ca582)" d="M 403.937248 600.8125 
L 403.937248 418.204792 
" style="fill:none;stroke:#cccccc;stroke-dasharray:0.8,1.32;stroke-dashoffset:0;stroke-width:0.8;"/>
     </g>
     <g id="line2d_54">
      <g>
       <use style="stroke:#000000;stroke-width:0.8;" x="403.937248" xlink:href="#mab8880e5d4" y="600.8125"/>
      </g>
     </g>
     <g id="text_18">
      <!-- 100 -->
      <g transform="translate(392.484748 616.930625)scale(0.12 -0.12)">
       <use xlink:href="#DejaVuSans-49"/>
       <use x="63.623047" xlink:href="#DejaVuSans-48"/>
       <use x="127.246094" xlink:href="#DejaVuSans-48"/>
      </g>
     </g>
    </g>
    <g id="xtick_14">
     <g id="line2d_55">
      <path clip-path="url(#p7d689ca582)" d="M 576.666497 600.8125 
L 576.666497 418.204792 
" style="fill:none;stroke:#cccccc;stroke-dasharray:0.8,1.32;stroke-dashoffset:0;stroke-width:0.8;"/>
     </g>
     <g id="line2d_56">
      <g>
       <use style="stroke:#000000;stroke-width:0.8;" x="576.666497" xlink:href="#mab8880e5d4" y="600.8125"/>
      </g>
     </g>
     <g id="text_19">
      <!-- 150 -->
      <g transform="translate(565.213997 616.930625)scale(0.12 -0.12)">
       <use xlink:href="#DejaVuSans-49"/>
       <use x="63.623047" xlink:href="#DejaVuSans-53"/>
       <use x="127.246094" xlink:href="#DejaVuSans-48"/>
      </g>
     </g>
    </g>
    <g id="xtick_15">
     <g id="line2d_57">
      <path clip-path="url(#p7d689ca582)" d="M 749.395746 600.8125 
L 749.395746 418.204792 
" style="fill:none;stroke:#cccccc;stroke-dasharray:0.8,1.32;stroke-dashoffset:0;stroke-width:0.8;"/>
     </g>
     <g id="line2d_58">
      <g>
       <use style="stroke:#000000;stroke-width:0.8;" x="749.395746" xlink:href="#mab8880e5d4" y="600.8125"/>
      </g>
     </g>
     <g id="text_20">
      <!-- 200 -->
      <g transform="translate(737.943246 616.930625)scale(0.12 -0.12)">
       <use xlink:href="#DejaVuSans-50"/>
       <use x="63.623047" xlink:href="#DejaVuSans-48"/>
       <use x="127.246094" xlink:href="#DejaVuSans-48"/>
      </g>
     </g>
    </g>
    <g id="text_21">
     <!-- time [ms] -->
     <g transform="translate(425.645312 632.544375)scale(0.12 -0.12)">
      <defs>
       <path d="M 44.28125 53.078125 
L 44.28125 44.578125 
Q 40.484375 46.53125 36.375 47.5 
Q 32.28125 48.484375 27.875 48.484375 
Q 21.1875 48.484375 17.84375 46.4375 
Q 14.5 44.390625 14.5 40.28125 
Q 14.5 37.15625 16.890625 35.375 
Q 19.28125 33.59375 26.515625 31.984375 
L 29.59375 31.296875 
Q 39.15625 29.25 43.1875 25.515625 
Q 47.21875 21.78125 47.21875 15.09375 
Q 47.21875 7.46875 41.1875 3.015625 
Q 35.15625 -1.421875 24.609375 -1.421875 
Q 20.21875 -1.421875 15.453125 -0.5625 
Q 10.6875 0.296875 5.421875 2 
L 5.421875 11.28125 
Q 10.40625 8.6875 15.234375 7.390625 
Q 20.0625 6.109375 24.8125 6.109375 
Q 31.15625 6.109375 34.5625 8.28125 
Q 37.984375 10.453125 37.984375 14.40625 
Q 37.984375 18.0625 35.515625 20.015625 
Q 33.0625 21.96875 24.703125 23.78125 
L 21.578125 24.515625 
Q 13.234375 26.265625 9.515625 29.90625 
Q 5.8125 33.546875 5.8125 39.890625 
Q 5.8125 47.609375 11.28125 51.796875 
Q 16.75 56 26.8125 56 
Q 31.78125 56 36.171875 55.265625 
Q 40.578125 54.546875 44.28125 53.078125 
z
" id="DejaVuSans-115"/>
      </defs>
      <use xlink:href="#DejaVuSans-116"/>
      <use x="39.208984" xlink:href="#DejaVuSans-105"/>
      <use x="66.992188" xlink:href="#DejaVuSans-109"/>
      <use x="164.404297" xlink:href="#DejaVuSans-101"/>
      <use x="225.927734" xlink:href="#DejaVuSans-32"/>
      <use x="257.714844" xlink:href="#DejaVuSans-91"/>
      <use x="296.728516" xlink:href="#DejaVuSans-109"/>
      <use x="394.140625" xlink:href="#DejaVuSans-115"/>
      <use x="446.240234" xlink:href="#DejaVuSans-93"/>
     </g>
    </g>
   </g>
   <g id="matplotlib.axis_6">
    <g id="ytick_12">
     <g id="line2d_59">
      <path clip-path="url(#p7d689ca582)" d="M 58.47875 600.8125 
L 851.04 600.8125 
" style="fill:none;stroke:#cccccc;stroke-dasharray:0.8,1.32;stroke-dashoffset:0;stroke-width:0.8;"/>
     </g>
     <g id="line2d_60">
      <g>
       <use style="stroke:#000000;stroke-width:0.8;" x="58.47875" xlink:href="#m27677cc647" y="600.8125"/>
      </g>
     </g>
     <g id="text_22">
      <!-- 0 -->
      <g transform="translate(43.84375 605.371562)scale(0.12 -0.12)">
       <use xlink:href="#DejaVuSans-48"/>
      </g>
     </g>
    </g>
    <g id="ytick_13">
     <g id="line2d_61">
      <path clip-path="url(#p7d689ca582)" d="M 58.47875 567.168692 
L 851.04 567.168692 
" style="fill:none;stroke:#cccccc;stroke-dasharray:0.8,1.32;stroke-dashoffset:0;stroke-width:0.8;"/>
     </g>
     <g id="line2d_62">
      <g>
       <use style="stroke:#000000;stroke-width:0.8;" x="58.47875" xlink:href="#m27677cc647" y="567.168692"/>
      </g>
     </g>
     <g id="text_23">
      <!-- 20 -->
      <g transform="translate(36.20875 571.727755)scale(0.12 -0.12)">
       <use xlink:href="#DejaVuSans-50"/>
       <use x="63.623047" xlink:href="#DejaVuSans-48"/>
      </g>
     </g>
    </g>
    <g id="ytick_14">
     <g id="line2d_63">
      <path clip-path="url(#p7d689ca582)" d="M 58.47875 533.524884 
L 851.04 533.524884 
" style="fill:none;stroke:#cccccc;stroke-dasharray:0.8,1.32;stroke-dashoffset:0;stroke-width:0.8;"/>
     </g>
     <g id="line2d_64">
      <g>
       <use style="stroke:#000000;stroke-width:0.8;" x="58.47875" xlink:href="#m27677cc647" y="533.524884"/>
      </g>
     </g>
     <g id="text_24">
      <!-- 40 -->
      <g transform="translate(36.20875 538.083947)scale(0.12 -0.12)">
       <defs>
        <path d="M 37.796875 64.3125 
L 12.890625 25.390625 
L 37.796875 25.390625 
z
M 35.203125 72.90625 
L 47.609375 72.90625 
L 47.609375 25.390625 
L 58.015625 25.390625 
L 58.015625 17.1875 
L 47.609375 17.1875 
L 47.609375 0 
L 37.796875 0 
L 37.796875 17.1875 
L 4.890625 17.1875 
L 4.890625 26.703125 
z
" id="DejaVuSans-52"/>
       </defs>
       <use xlink:href="#DejaVuSans-52"/>
       <use x="63.623047" xlink:href="#DejaVuSans-48"/>
      </g>
     </g>
    </g>
    <g id="ytick_15">
     <g id="line2d_65">
      <path clip-path="url(#p7d689ca582)" d="M 58.47875 499.881076 
L 851.04 499.881076 
" style="fill:none;stroke:#cccccc;stroke-dasharray:0.8,1.32;stroke-dashoffset:0;stroke-width:0.8;"/>
     </g>
     <g id="line2d_66">
      <g>
       <use style="stroke:#000000;stroke-width:0.8;" x="58.47875" xlink:href="#m27677cc647" y="499.881076"/>
      </g>
     </g>
     <g id="text_25">
      <!-- 60 -->
      <g transform="translate(36.20875 504.440139)scale(0.12 -0.12)">
       <defs>
        <path d="M 33.015625 40.375 
Q 26.375 40.375 22.484375 35.828125 
Q 18.609375 31.296875 18.609375 23.390625 
Q 18.609375 15.53125 22.484375 10.953125 
Q 26.375 6.390625 33.015625 6.390625 
Q 39.65625 6.390625 43.53125 10.953125 
Q 47.40625 15.53125 47.40625 23.390625 
Q 47.40625 31.296875 43.53125 35.828125 
Q 39.65625 40.375 33.015625 40.375 
z
M 52.59375 71.296875 
L 52.59375 62.3125 
Q 48.875 64.0625 45.09375 64.984375 
Q 41.3125 65.921875 37.59375 65.921875 
Q 27.828125 65.921875 22.671875 59.328125 
Q 17.53125 52.734375 16.796875 39.40625 
Q 19.671875 43.65625 24.015625 45.921875 
Q 28.375 48.1875 33.59375 48.1875 
Q 44.578125 48.1875 50.953125 41.515625 
Q 57.328125 34.859375 57.328125 23.390625 
Q 57.328125 12.15625 50.6875 5.359375 
Q 44.046875 -1.421875 33.015625 -1.421875 
Q 20.359375 -1.421875 13.671875 8.265625 
Q 6.984375 17.96875 6.984375 36.375 
Q 6.984375 53.65625 15.1875 63.9375 
Q 23.390625 74.21875 37.203125 74.21875 
Q 40.921875 74.21875 44.703125 73.484375 
Q 48.484375 72.75 52.59375 71.296875 
z
" id="DejaVuSans-54"/>
       </defs>
       <use xlink:href="#DejaVuSans-54"/>
       <use x="63.623047" xlink:href="#DejaVuSans-48"/>
      </g>
     </g>
    </g>
    <g id="ytick_16">
     <g id="line2d_67">
      <path clip-path="url(#p7d689ca582)" d="M 58.47875 466.237269 
L 851.04 466.237269 
" style="fill:none;stroke:#cccccc;stroke-dasharray:0.8,1.32;stroke-dashoffset:0;stroke-width:0.8;"/>
     </g>
     <g id="line2d_68">
      <g>
       <use style="stroke:#000000;stroke-width:0.8;" x="58.47875" xlink:href="#m27677cc647" y="466.237269"/>
      </g>
     </g>
     <g id="text_26">
      <!-- 80 -->
      <g transform="translate(36.20875 470.796331)scale(0.12 -0.12)">
       <defs>
        <path d="M 31.78125 34.625 
Q 24.75 34.625 20.71875 30.859375 
Q 16.703125 27.09375 16.703125 20.515625 
Q 16.703125 13.921875 20.71875 10.15625 
Q 24.75 6.390625 31.78125 6.390625 
Q 38.8125 6.390625 42.859375 10.171875 
Q 46.921875 13.96875 46.921875 20.515625 
Q 46.921875 27.09375 42.890625 30.859375 
Q 38.875 34.625 31.78125 34.625 
z
M 21.921875 38.8125 
Q 15.578125 40.375 12.03125 44.71875 
Q 8.5 49.078125 8.5 55.328125 
Q 8.5 64.0625 14.71875 69.140625 
Q 20.953125 74.21875 31.78125 74.21875 
Q 42.671875 74.21875 48.875 69.140625 
Q 55.078125 64.0625 55.078125 55.328125 
Q 55.078125 49.078125 51.53125 44.71875 
Q 48 40.375 41.703125 38.8125 
Q 48.828125 37.15625 52.796875 32.3125 
Q 56.78125 27.484375 56.78125 20.515625 
Q 56.78125 9.90625 50.3125 4.234375 
Q 43.84375 -1.421875 31.78125 -1.421875 
Q 19.734375 -1.421875 13.25 4.234375 
Q 6.78125 9.90625 6.78125 20.515625 
Q 6.78125 27.484375 10.78125 32.3125 
Q 14.796875 37.15625 21.921875 38.8125 
z
M 18.3125 54.390625 
Q 18.3125 48.734375 21.84375 45.5625 
Q 25.390625 42.390625 31.78125 42.390625 
Q 38.140625 42.390625 41.71875 45.5625 
Q 45.3125 48.734375 45.3125 54.390625 
Q 45.3125 60.0625 41.71875 63.234375 
Q 38.140625 66.40625 31.78125 66.40625 
Q 25.390625 66.40625 21.84375 63.234375 
Q 18.3125 60.0625 18.3125 54.390625 
z
" id="DejaVuSans-56"/>
       </defs>
       <use xlink:href="#DejaVuSans-56"/>
       <use x="63.623047" xlink:href="#DejaVuSans-48"/>
      </g>
     </g>
    </g>
    <g id="ytick_17">
     <g id="line2d_69">
      <path clip-path="url(#p7d689ca582)" d="M 58.47875 432.593461 
L 851.04 432.593461 
" style="fill:none;stroke:#cccccc;stroke-dasharray:0.8,1.32;stroke-dashoffset:0;stroke-width:0.8;"/>
     </g>
     <g id="line2d_70">
      <g>
       <use style="stroke:#000000;stroke-width:0.8;" x="58.47875" xlink:href="#m27677cc647" y="432.593461"/>
      </g>
     </g>
     <g id="text_27">
      <!-- 100 -->
      <g transform="translate(28.57375 437.152523)scale(0.12 -0.12)">
       <use xlink:href="#DejaVuSans-49"/>
       <use x="63.623047" xlink:href="#DejaVuSans-48"/>
       <use x="127.246094" xlink:href="#DejaVuSans-48"/>
      </g>
     </g>
    </g>
    <g id="text_28">
     <!-- power [mW] -->
     <g transform="translate(22.078125 546.419896)rotate(-90)scale(0.12 -0.12)">
      <defs>
       <path d="M 18.109375 8.203125 
L 18.109375 -20.796875 
L 9.078125 -20.796875 
L 9.078125 54.6875 
L 18.109375 54.6875 
L 18.109375 46.390625 
Q 20.953125 51.265625 25.265625 53.625 
Q 29.59375 56 35.59375 56 
Q 45.5625 56 51.78125 48.09375 
Q 58.015625 40.1875 58.015625 27.296875 
Q 58.015625 14.40625 51.78125 6.484375 
Q 45.5625 -1.421875 35.59375 -1.421875 
Q 29.59375 -1.421875 25.265625 0.953125 
Q 20.953125 3.328125 18.109375 8.203125 
z
M 48.6875 27.296875 
Q 48.6875 37.203125 44.609375 42.84375 
Q 40.53125 48.484375 33.40625 48.484375 
Q 26.265625 48.484375 22.1875 42.84375 
Q 18.109375 37.203125 18.109375 27.296875 
Q 18.109375 17.390625 22.1875 11.75 
Q 26.265625 6.109375 33.40625 6.109375 
Q 40.53125 6.109375 44.609375 11.75 
Q 48.6875 17.390625 48.6875 27.296875 
z
" id="DejaVuSans-112"/>
       <path d="M 4.203125 54.6875 
L 13.1875 54.6875 
L 24.421875 12.015625 
L 35.59375 54.6875 
L 46.1875 54.6875 
L 57.421875 12.015625 
L 68.609375 54.6875 
L 77.59375 54.6875 
L 63.28125 0 
L 52.6875 0 
L 40.921875 44.828125 
L 29.109375 0 
L 18.5 0 
z
" id="DejaVuSans-119"/>
       <path d="M 3.328125 72.90625 
L 13.28125 72.90625 
L 28.609375 11.28125 
L 43.890625 72.90625 
L 54.984375 72.90625 
L 70.3125 11.28125 
L 85.59375 72.90625 
L 95.609375 72.90625 
L 77.296875 0 
L 64.890625 0 
L 49.515625 63.28125 
L 33.984375 0 
L 21.578125 0 
z
" id="DejaVuSans-87"/>
      </defs>
      <use xlink:href="#DejaVuSans-112"/>
      <use x="63.476562" xlink:href="#DejaVuSans-111"/>
      <use x="124.658203" xlink:href="#DejaVuSans-119"/>
      <use x="206.445312" xlink:href="#DejaVuSans-101"/>
      <use x="267.96875" xlink:href="#DejaVuSans-114"/>
      <use x="309.082031" xlink:href="#DejaVuSans-32"/>
      <use x="340.869141" xlink:href="#DejaVuSans-91"/>
      <use x="379.882812" xlink:href="#DejaVuSans-109"/>
      <use x="477.294922" xlink:href="#DejaVuSans-87"/>
      <use x="576.171875" xlink:href="#DejaVuSans-93"/>
     </g>
    </g>
   </g>
   <g id="line2d_71">
    <path clip-path="url(#p7d689ca582)" d="M 58.909709 600.704731 
L 71.864403 600.704695 
L 72.728049 541.434917 
L 73.591696 596.375109 
L 74.455342 599.386302 
L 75.318988 599.885317 
L 77.046281 600.26957 
L 80.500866 600.559948 
L 81.364512 543.207523 
L 82.228158 596.901708 
L 83.091804 599.393329 
L 83.955451 538.337253 
L 84.819097 598.511281 
L 85.682743 599.612114 
L 86.546389 532.676935 
L 87.410036 598.762212 
L 88.273682 599.664457 
L 89.137328 536.21167 
L 90.000974 599.014078 
L 90.864621 599.725964 
L 91.728267 536.560933 
L 92.591913 598.943553 
L 93.455559 545.584011 
L 94.319206 591.920345 
L 95.182852 599.188747 
L 96.046498 564.327484 
L 96.910144 569.401765 
L 97.773791 599.163572 
L 98.637437 599.783444 
L 99.501083 536.464059 
L 100.364729 598.789533 
L 101.228375 599.673236 
L 102.092022 538.740407 
L 102.955668 597.530491 
L 103.819314 599.456287 
L 104.68296 552.213061 
L 105.546607 578.853173 
L 106.410253 599.182258 
L 107.273899 587.069398 
L 108.137545 552.910181 
L 109.001192 599.153937 
L 109.864838 599.781663 
L 110.728484 537.305245 
L 111.59213 598.058073 
L 112.455777 599.538045 
L 113.319423 537.425687 
L 114.183069 596.330613 
L 115.046715 599.344617 
L 115.910362 533.317392 
L 116.774008 597.597222 
L 117.637654 599.472206 
L 118.5013 531.868099 
L 119.364947 599.041102 
L 120.228593 532.104973 
L 121.092239 531.604918 
L 121.955885 594.943372 
L 122.819532 533.831863 
L 124.546824 537.623404 
L 125.41047 533.449747 
L 126.274117 533.712506 
L 127.137763 531.291059 
L 128.001409 532.057194 
L 128.865055 529.048157 
L 129.728702 593.461824 
L 130.592348 525.588503 
L 131.455994 526.861328 
L 132.31964 533.200724 
L 133.183287 530.150468 
L 134.046933 527.823487 
L 134.910579 524.382945 
L 135.774225 553.481902 
L 136.637872 575.19504 
L 137.501518 527.013465 
L 138.365164 525.103728 
L 139.22881 529.04112 
L 140.092457 527.312337 
L 140.956103 527.363763 
L 141.819749 532.872975 
L 142.683395 546.668814 
L 143.547042 581.852362 
L 144.410688 529.045329 
L 145.274334 528.154515 
L 146.13798 531.266557 
L 147.001626 533.82609 
L 147.865273 534.306929 
L 148.728919 532.712842 
L 149.592565 529.006272 
L 150.456211 529.160236 
L 151.319858 595.050428 
L 152.183504 527.720936 
L 153.04715 527.899648 
L 153.910796 528.326774 
L 154.774443 531.56588 
L 155.638089 524.696025 
L 156.501735 531.911566 
L 157.365381 526.86464 
L 158.229028 517.551652 
L 159.092674 516.283641 
L 159.95632 447.665698 
L 160.819966 516.633532 
L 161.683613 518.008415 
L 162.547259 517.142147 
L 163.410905 515.841796 
L 164.274551 446.89866 
L 165.138198 510.51924 
L 166.001844 518.862576 
L 166.86549 519.223056 
L 167.729136 517.198086 
L 168.592783 444.294896 
L 169.456429 515.517266 
L 170.320075 516.836412 
L 171.183721 520.380866 
L 172.047368 515.963399 
L 172.911014 500.837428 
L 173.77466 440.983888 
L 174.638306 513.957582 
L 175.501953 512.241773 
L 176.365599 515.456811 
L 177.229245 458.84776 
L 178.092891 497.128176 
L 178.956538 517.896933 
L 179.820184 521.466326 
L 180.68383 516.941463 
L 181.547476 520.366974 
L 182.411123 447.417798 
L 183.274769 515.865144 
L 184.138415 514.673373 
L 185.002061 507.847785 
L 185.865708 527.066023 
L 187.593 515.348511 
L 188.456646 514.73063 
L 189.320292 470.054323 
L 190.183939 498.795134 
L 191.047585 518.098493 
L 191.911231 518.572512 
L 192.774877 518.821377 
L 193.638524 518.518471 
L 194.50217 518.801251 
L 195.365816 439.484712 
L 196.229462 517.383473 
L 197.093109 515.720271 
L 197.956755 517.834806 
L 198.820401 513.64495 
L 199.684047 516.736452 
L 200.547694 463.422173 
L 201.41134 496.03896 
L 202.274986 516.123253 
L 203.138632 514.39917 
L 204.002279 514.941235 
L 204.865925 447.809829 
L 205.729571 509.288387 
L 206.593217 512.617436 
L 207.456864 514.616877 
L 208.32051 519.462859 
L 209.184156 517.163096 
L 210.047802 442.077442 
L 210.911449 518.102051 
L 211.775095 516.905125 
L 212.638741 517.76464 
L 213.502387 519.190634 
L 214.366034 517.816976 
L 215.22968 502.78379 
L 216.093326 456.895847 
L 216.956972 506.799325 
L 217.820619 518.305666 
L 218.684265 516.8424 
L 219.547911 520.88266 
L 220.411557 518.954877 
L 221.275204 519.639557 
L 222.13885 518.290347 
L 223.002496 514.19079 
L 223.866142 479.333439 
L 224.729789 479.612968 
L 225.593435 519.912242 
L 226.457081 519.612614 
L 227.320727 515.571715 
L 228.184374 515.473296 
L 229.04802 518.512291 
L 229.911666 517.652906 
L 230.775312 517.555102 
L 231.638959 513.338353 
L 232.502605 446.04171 
L 233.366251 511.343198 
L 234.229897 520.254 
L 235.093543 520.382018 
L 235.95719 517.83129 
L 236.820836 521.939988 
L 237.684482 511.549451 
L 238.548128 514.646713 
L 239.411775 507.575406 
L 240.275421 460.296647 
L 241.139067 518.939635 
L 242.002713 518.936341 
L 242.86636 520.967503 
L 243.730006 517.347031 
L 244.593652 519.0904 
L 245.457298 517.388208 
L 246.320945 461.342297 
L 247.184591 498.037409 
L 248.048237 516.811928 
L 248.911883 521.47809 
L 249.77553 518.257421 
L 250.639176 512.865234 
L 251.502822 521.889109 
L 252.366468 519.737886 
L 253.230115 485.434431 
L 254.093761 474.764512 
L 254.957407 516.45209 
L 255.821053 517.300235 
L 256.6847 519.845971 
L 257.548346 519.281642 
L 258.411992 517.725861 
L 259.275638 513.589715 
L 260.139285 521.005336 
L 261.002931 508.943771 
L 261.866577 451.460269 
L 262.730223 515.509784 
L 263.59387 516.68556 
L 264.457516 515.980205 
L 265.321162 514.402931 
L 266.184808 518.322392 
L 267.048455 516.899113 
L 267.912101 517.86918 
L 268.775747 516.450162 
L 269.639393 468.664898 
L 270.50304 482.19855 
L 271.366686 518.361846 
L 272.230332 520.260897 
L 273.093978 521.349619 
L 273.957625 513.198804 
L 274.821271 520.92029 
L 275.684917 519.29514 
L 276.548563 518.423254 
L 277.412209 482.990228 
L 278.275856 474.991355 
L 279.139502 518.805505 
L 280.003148 517.589587 
L 280.866794 519.918925 
L 281.730441 516.540888 
L 282.594087 515.121317 
L 283.457733 496.013829 
L 284.321379 465.24819 
L 285.185026 515.515616 
L 286.048672 514.890504 
L 286.912318 518.7075 
L 287.775964 515.038297 
L 288.639611 517.742826 
L 289.503257 522.670866 
L 290.366903 508.970178 
L 291.230549 446.410199 
L 292.094196 513.699538 
L 292.957842 514.164475 
L 293.821488 513.109903 
L 294.685134 517.088347 
L 295.548781 437.396468 
L 296.412427 515.939242 
L 297.276073 503.73075 
L 298.139719 499.278325 
L 299.867012 517.523306 
L 300.730658 436.964926 
L 301.594304 516.494144 
L 302.457951 516.288502 
L 303.321597 515.882313 
L 304.185243 448.650168 
L 305.048889 515.492469 
L 305.912536 514.371648 
L 306.776182 515.461065 
L 307.639828 521.404518 
L 309.367121 517.048002 
L 310.230767 444.071917 
L 311.094413 516.159194 
L 311.958059 518.773905 
L 312.821706 517.441998 
L 313.685352 517.564613 
L 314.548998 513.485718 
L 315.412644 518.37945 
L 316.276291 515.488241 
L 317.139937 516.699079 
L 318.003583 484.541986 
L 318.867229 470.44427 
L 319.730876 517.559373 
L 320.594522 517.653021 
L 321.458168 520.291969 
L 322.321814 515.788649 
L 323.18546 518.036433 
L 324.049107 514.548862 
L 324.912753 518.544751 
L 325.776399 436.879165 
L 326.640045 517.167522 
L 327.503692 519.21478 
L 328.367338 520.013343 
L 329.230984 518.757261 
L 330.09463 444.516601 
L 330.958277 515.417445 
L 331.821923 515.884363 
L 332.685569 519.453691 
L 333.549215 519.221478 
L 334.412862 472.481197 
L 335.276508 485.547317 
L 336.140154 515.266377 
L 337.0038 515.812235 
L 337.867447 517.326478 
L 338.731093 516.917687 
L 339.594739 443.355726 
L 340.458385 515.5172 
L 341.322032 519.509067 
L 342.185678 519.391348 
L 343.049324 520.180959 
L 343.91297 518.688192 
L 344.776617 517.572935 
L 345.640263 442.490517 
L 346.503909 518.522827 
L 347.367555 516.679957 
L 348.231202 515.364661 
L 349.094848 519.200639 
L 349.958494 518.768757 
L 350.82214 517.100824 
L 351.685787 513.731686 
L 352.549433 509.415278 
L 353.413079 518.620036 
L 354.276725 449.592303 
L 355.140372 508.210932 
L 356.004018 519.030702 
L 356.867664 520.704237 
L 357.73131 516.315316 
L 358.594957 517.207044 
L 359.458603 519.937673 
L 360.322249 517.85756 
L 361.185895 468.229149 
L 362.913188 517.715567 
L 363.776834 518.729637 
L 364.64048 510.916139 
L 365.504127 516.818513 
L 366.367773 517.300977 
L 367.231419 519.423667 
L 368.095065 517.312717 
L 368.958711 520.348567 
L 369.822358 499.21352 
L 370.686004 449.250363 
L 371.54965 520.540638 
L 372.413296 516.023046 
L 373.276943 518.611336 
L 375.004235 517.551244 
L 375.867881 519.802288 
L 376.731528 518.794442 
L 377.595174 515.670757 
L 378.45882 450.304608 
L 379.322466 518.155311 
L 380.186113 516.097813 
L 381.049759 516.541114 
L 381.913405 517.435937 
L 382.777051 519.94083 
L 383.640698 516.128592 
L 384.504344 519.909755 
L 385.36799 442.313629 
L 386.231636 519.606641 
L 387.095283 516.482111 
L 387.958929 519.762217 
L 388.822575 519.045904 
L 389.686221 517.137535 
L 390.549868 517.231656 
L 391.413514 448.268348 
L 392.27716 520.645744 
L 393.140806 517.513711 
L 394.004453 519.011628 
L 394.868099 514.685774 
L 395.731745 520.393358 
L 396.595391 503.189441 
L 397.459038 464.041174 
L 398.322684 519.233306 
L 399.18633 516.939236 
L 400.049976 515.688824 
L 400.913623 519.059165 
L 401.777269 517.781901 
L 402.640915 515.359906 
L 403.504561 442.589639 
L 404.368208 513.954427 
L 405.231854 518.83653 
L 406.959146 519.62432 
L 407.822793 519.817434 
L 408.686439 459.51031 
L 409.550085 503.410017 
L 410.413731 518.027487 
L 411.277377 517.416865 
L 412.141024 520.411093 
L 413.00467 515.731334 
L 413.868316 517.508927 
L 414.731962 515.465912 
L 415.595609 513.793719 
L 416.459255 449.035427 
L 417.322901 508.271524 
L 418.186547 517.985099 
L 419.050194 518.55544 
L 419.91384 515.413656 
L 420.777486 515.211278 
L 421.641132 487.251804 
L 422.504779 463.779695 
L 423.368425 511.762091 
L 424.232071 514.092317 
L 425.095717 515.292382 
L 425.959364 517.135925 
L 426.82301 445.915452 
L 427.686656 518.82619 
L 428.550302 518.501273 
L 429.413949 517.667338 
L 430.277595 510.646658 
L 431.141241 436.21713 
L 432.004887 518.543564 
L 432.868534 512.002453 
L 433.73218 516.071018 
L 434.595826 515.837233 
L 435.459472 516.669731 
L 436.323119 519.686375 
L 437.186765 515.456044 
L 438.050411 450.416257 
L 438.914057 518.722602 
L 439.777704 518.463749 
L 440.64135 521.993144 
L 441.504996 514.9716 
L 442.368642 511.71216 
L 443.232289 517.179932 
L 444.095935 516.796618 
L 444.959581 516.550196 
L 445.823227 519.568946 
L 446.686874 519.920924 
L 447.55052 518.807974 
L 448.414166 444.3647 
L 449.277812 512.367995 
L 450.141459 513.865781 
L 451.005105 516.696892 
L 451.868751 514.27306 
L 452.732397 513.980964 
L 453.596044 519.532807 
L 454.45969 516.498339 
L 455.323336 524.736795 
L 456.186982 516.512562 
L 457.050628 513.72925 
L 457.914275 515.579131 
L 458.777921 441.617309 
L 459.641567 508.062696 
L 460.505213 514.590416 
L 461.36886 514.00928 
L 462.232506 518.621958 
L 463.096152 517.052768 
L 463.959798 518.981932 
L 464.823445 515.520047 
L 465.687091 474.04115 
L 466.550737 474.512783 
L 467.414383 514.375598 
L 468.27803 519.682058 
L 469.141676 514.07244 
L 470.005322 516.0464 
L 470.868968 510.132527 
L 471.732615 528.623171 
L 472.596261 520.852009 
L 473.459907 523.917703 
L 474.323553 514.42974 
L 475.1872 518.90011 
L 476.050846 521.643014 
L 476.914492 486.358531 
L 477.778138 472.613028 
L 478.641785 515.293 
L 479.505431 515.859467 
L 480.369077 517.002073 
L 481.232723 518.352452 
L 482.09637 520.151298 
L 482.960016 520.745329 
L 483.823662 519.223229 
L 484.687308 448.58392 
L 485.550955 513.295134 
L 486.414601 515.141924 
L 487.278247 521.377567 
L 488.141893 512.462658 
L 489.00554 514.420323 
L 489.869186 515.894317 
L 490.732832 519.03932 
L 491.596478 514.098317 
L 492.460125 516.982425 
L 493.323771 444.902611 
L 494.187417 515.836144 
L 495.051063 520.479517 
L 495.91471 517.712284 
L 496.778356 513.003585 
L 497.642002 512.356988 
L 498.505648 521.357445 
L 499.369295 517.566569 
L 500.232941 514.667047 
L 501.096587 518.563553 
L 501.960233 461.844596 
L 502.823879 497.706592 
L 503.687526 512.603368 
L 504.551172 514.844843 
L 505.414818 515.542757 
L 506.278464 523.507992 
L 507.142111 523.66266 
L 508.005757 512.993609 
L 509.733049 471.243935 
L 510.596696 519.756494 
L 511.460342 513.484726 
L 512.323988 521.563864 
L 513.187634 515.659987 
L 514.051281 515.464499 
L 514.914927 518.61613 
L 515.778573 517.989878 
L 516.642219 454.551368 
L 517.505866 514.222474 
L 518.369512 520.501114 
L 519.233158 515.093892 
L 520.096804 519.359678 
L 520.960451 518.834495 
L 521.824097 513.955103 
L 522.687743 514.103873 
L 524.415036 466.330661 
L 525.278682 516.914113 
L 526.142328 517.994304 
L 527.005974 519.853778 
L 527.869621 519.851015 
L 528.733267 513.727392 
L 529.596913 519.699728 
L 530.460559 503.465518 
L 531.324206 460.905775 
L 532.187852 515.916305 
L 533.051498 514.008438 
L 533.915144 519.334606 
L 535.642437 510.120654 
L 536.506083 519.164524 
L 537.369729 515.145314 
L 538.233376 519.217105 
L 539.097022 515.758655 
L 539.960668 465.477318 
L 540.824314 488.272793 
L 541.687961 516.128048 
L 542.551607 517.091383 
L 543.415253 521.407148 
L 544.278899 520.506516 
L 545.142545 519.839413 
L 546.006192 508.476775 
L 546.869838 446.268106 
L 547.733484 517.730052 
L 548.59713 516.108984 
L 549.460777 515.327611 
L 550.324423 516.659999 
L 551.188069 434.805492 
L 552.051715 516.230065 
L 552.915362 516.415257 
L 553.779008 515.192198 
L 554.642654 440.828438 
L 555.5063 518.864008 
L 556.369947 500.641144 
L 557.233593 518.924284 
L 558.097239 517.106936 
L 558.960885 442.719886 
L 559.824532 515.896332 
L 560.688178 516.78474 
L 561.551824 523.122486 
L 562.41547 517.270482 
L 563.279117 516.832439 
L 564.142763 471.58191 
L 565.870055 512.848682 
L 566.733702 518.692228 
L 567.597348 514.701149 
L 568.460994 526.780053 
L 569.32464 528.411579 
L 570.188287 527.735113 
L 571.051933 526.81523 
L 571.915579 527.119923 
L 572.779225 523.07077 
L 573.642872 534.985233 
L 574.506518 526.799875 
L 575.370164 533.134708 
L 576.23381 535.24155 
L 577.097457 526.707251 
L 577.961103 526.010859 
L 578.824749 527.697456 
L 579.688395 526.43957 
L 580.552042 528.026127 
L 583.14298 527.876201 
L 584.006627 526.537599 
L 584.870273 526.879897 
L 585.733919 528.03777 
L 586.597565 531.849038 
L 587.461212 531.572347 
L 588.324858 532.728697 
L 589.188504 528.836303 
L 590.05215 528.452501 
L 590.915796 525.030879 
L 591.779443 532.440962 
L 592.643089 526.787387 
L 593.506735 524.706718 
L 594.370381 527.353447 
L 595.234028 532.885411 
L 596.097674 528.442303 
L 596.96132 528.44252 
L 597.824966 531.011009 
L 598.688613 524.96411 
L 599.552259 533.199019 
L 600.415905 524.704425 
L 601.279551 529.99432 
L 602.143198 525.599648 
L 603.006844 526.210377 
L 603.87049 552.00844 
L 604.734136 552.848962 
L 605.597783 518.97096 
L 606.461429 530.290256 
L 607.325075 548.083359 
L 608.188721 535.395003 
L 609.052368 526.098048 
L 609.916014 527.770443 
L 610.77966 525.725992 
L 611.643306 525.527121 
L 612.506953 529.930745 
L 613.370599 523.757446 
L 614.234245 526.170936 
L 615.097891 526.037992 
L 615.961538 525.175189 
L 616.825184 526.233941 
L 617.68883 526.694987 
L 618.552476 529.38821 
L 619.416123 541.047067 
L 620.279769 579.94789 
L 621.143415 527.807063 
L 622.007061 532.27291 
L 622.870708 525.892987 
L 623.734354 525.681581 
L 624.598 532.126108 
L 625.461646 528.267104 
L 626.325293 528.74026 
L 627.188939 532.700424 
L 628.052585 526.480121 
L 628.916231 526.588114 
L 629.779878 527.831402 
L 630.643524 588.910148 
L 631.50717 529.294592 
L 632.370816 524.217132 
L 633.234462 529.689463 
L 634.098109 527.877829 
L 634.961755 525.705132 
L 635.825401 526.027318 
L 636.689047 527.790043 
L 637.552694 528.167161 
L 638.41634 530.116637 
L 640.143632 525.437477 
L 641.007279 527.926835 
L 641.870925 523.610318 
L 642.734571 530.377874 
L 643.598217 524.039221 
L 644.461864 526.407334 
L 645.32551 529.93638 
L 646.189156 529.884845 
L 647.052802 450.073409 
L 647.916449 452.91296 
L 648.780095 446.427199 
L 649.643741 445.496247 
L 650.507387 450.556741 
L 651.371034 450.204577 
L 652.23468 447.860513 
L 653.098326 447.719222 
L 653.961972 447.375696 
L 654.825619 458.201597 
L 655.689265 452.110309 
L 656.552911 468.538933 
L 657.416557 503.582809 
L 658.280204 528.816625 
L 659.14385 525.520732 
L 660.007496 530.064465 
L 660.871142 524.071533 
L 661.734789 529.922979 
L 662.598435 529.699638 
L 663.462081 527.696593 
L 664.325727 526.191924 
L 665.189374 527.920701 
L 666.05302 528.386103 
L 666.916666 525.976477 
L 667.780312 524.518936 
L 668.643959 528.325533 
L 669.507605 527.929986 
L 670.371251 530.786971 
L 671.234897 553.257497 
L 672.098544 532.263856 
L 672.96219 507.62371 
L 673.825836 546.091817 
L 674.689482 572.472928 
L 675.553129 525.314097 
L 676.416775 525.439422 
L 677.280421 527.601945 
L 678.144067 527.943574 
L 679.007713 534.431827 
L 679.87136 532.51151 
L 680.735006 525.098934 
L 681.598652 532.176976 
L 682.462298 532.456284 
L 683.325945 527.81569 
L 684.189591 527.406731 
L 685.053237 529.887643 
L 686.78053 525.359471 
L 687.644176 530.521701 
L 688.507822 532.338146 
L 689.371468 526.240968 
L 690.235115 527.650717 
L 691.098761 532.073523 
L 691.962407 527.725313 
L 692.826053 529.549662 
L 693.6897 529.869661 
L 694.553346 528.15678 
L 695.416992 525.606832 
L 696.280638 525.670439 
L 697.144285 528.173339 
L 698.007931 532.56049 
L 699.735223 523.442142 
L 700.59887 523.262284 
L 701.462516 523.791366 
L 702.326162 532.479896 
L 703.189808 524.312263 
L 704.053455 527.952951 
L 704.917101 528.331133 
L 705.780747 527.675583 
L 706.644393 528.055949 
L 707.50804 529.489401 
L 708.371686 525.713232 
L 709.235332 525.012739 
L 710.098978 526.401542 
L 710.962625 529.898895 
L 712.689917 527.007602 
L 713.553563 528.478881 
L 714.41721 526.996042 
L 715.280856 527.717104 
L 716.144502 527.814639 
L 717.008148 534.867603 
L 717.871795 531.67271 
L 718.735441 532.235534 
L 719.599087 529.572926 
L 720.462733 525.073078 
L 721.32638 532.120559 
L 722.190026 525.977395 
L 723.053672 525.537385 
L 723.917318 523.904006 
L 724.780964 524.357903 
L 725.644611 528.686992 
L 726.508257 525.448027 
L 727.371903 528.152578 
L 728.235549 526.525252 
L 729.099196 530.859627 
L 729.962842 528.603634 
L 730.826488 529.300241 
L 731.690134 532.629047 
L 732.553781 519.105446 
L 733.417427 547.402638 
L 734.281073 571.645787 
L 735.144719 524.037765 
L 736.008366 526.471514 
L 736.872012 532.158453 
L 737.735658 527.875689 
L 738.599304 526.093602 
L 739.462951 529.518988 
L 740.326597 528.235976 
L 741.190243 527.913052 
L 742.053889 525.659284 
L 742.917536 532.55089 
L 743.781182 528.482581 
L 744.644828 527.621282 
L 745.508474 532.218524 
L 746.372121 525.584633 
L 747.235767 525.20815 
L 748.099413 525.60078 
L 748.963059 529.655628 
L 749.826706 525.584968 
L 750.690352 532.699336 
L 751.553998 525.59598 
L 752.417644 527.338176 
L 753.281291 532.643491 
L 754.144937 527.143078 
L 755.008583 523.857474 
L 755.872229 528.020604 
L 756.735876 451.228097 
L 757.599522 529.933683 
L 759.326814 525.324665 
L 760.190461 529.575541 
L 761.054107 555.466036 
L 761.917753 550.123358 
L 762.781399 510.775227 
L 763.645046 556.234039 
L 764.508692 453.216894 
L 765.372338 455.02553 
L 766.235984 447.578749 
L 767.09963 452.303254 
L 767.963277 518.902786 
L 768.826923 454.593897 
L 769.690569 448.262229 
L 770.554215 450.306404 
L 771.417862 450.092378 
L 772.281508 450.718494 
L 773.145154 469.612067 
L 774.0088 452.662704 
L 775.736093 485.720104 
L 776.599739 452.166972 
L 777.463385 451.594719 
L 778.327032 446.104264 
L 779.190678 451.888588 
L 780.054324 448.485216 
L 780.91797 456.977975 
L 781.781617 449.144729 
L 782.645263 451.536236 
L 783.508909 451.734854 
L 784.372555 488.598175 
L 785.236202 477.969133 
L 786.099848 448.431335 
L 786.963494 447.6929 
L 787.82714 448.554223 
L 789.554433 456.077387 
L 790.418079 469.025143 
L 791.281725 467.45367 
L 792.145372 488.698183 
L 793.009018 454.800698 
L 793.872664 450.758899 
L 794.73631 523.277552 
L 795.599957 526.588128 
L 796.463603 527.414046 
L 797.327249 530.192704 
L 798.190895 525.463172 
L 799.054542 526.056652 
L 799.918188 525.544672 
L 800.781834 528.431334 
L 801.64548 525.751784 
L 802.509127 528.253801 
L 803.372773 528.106389 
L 804.236419 596.701599 
L 805.100065 598.988683 
L 805.963712 530.348097 
L 806.827358 598.010286 
L 807.691004 533.649429 
L 808.55465 597.098317 
L 809.418297 599.041672 
L 810.281943 537.361449 
L 811.145589 598.353132 
L 812.009235 534.550049 
L 812.872881 595.954378 
L 813.736528 598.949069 
L 814.600174 536.841075 
L 815.46382 598.259802 
L 816.327466 535.23713 
L 817.191113 595.392157 
L 818.054759 598.919025 
L 818.918405 599.535475 
L 819.782051 599.944057 
L 821.509344 600.278412 
L 824.963929 600.555063 
L 836.19133 600.646517 
L 850.741178 600.679787 
L 850.741178 600.679787 
" style="fill:none;stroke:#9400d3;stroke-linecap:square;stroke-width:1.5;"/>
   </g>
   <g id="patch_11">
    <path d="M 58.47875 600.8125 
L 58.47875 418.204792 
" style="fill:none;stroke:#000000;stroke-linecap:square;stroke-linejoin:miter;stroke-width:0.8;"/>
   </g>
   <g id="patch_12">
    <path d="M 58.47875 600.8125 
L 851.04 600.8125 
" style="fill:none;stroke:#000000;stroke-linecap:square;stroke-linejoin:miter;stroke-width:0.8;"/>
   </g>
   <g id="legend_3">
    <g id="patch_13">
     <path d="M 782.52 445.444792 
L 842.64 445.444792 
Q 845.04 445.444792 845.04 443.044792 
L 845.04 426.604792 
Q 845.04 424.204792 842.64 424.204792 
L 782.52 424.204792 
Q 780.12 424.204792 780.12 426.604792 
L 780.12 443.044792 
Q 780.12 445.444792 782.52 445.444792 
z
" style="fill:#ffffff;stroke:#cccccc;stroke-linejoin:miter;"/>
    </g>
    <g id="line2d_72">
     <path d="M 784.92 433.924792 
L 808.92 433.924792 
" style="fill:none;stroke:#9400d3;stroke-linecap:square;stroke-width:1.5;"/>
    </g>
    <g id="line2d_73"/>
    <g id="text_29">
     <!-- $p(t)$ -->
     <g transform="translate(818.52 438.124792)scale(0.12 -0.12)">
      <use transform="translate(0 0.125)" xlink:href="#DejaVuSans-112"/>
      <use transform="translate(63.476562 0.125)" xlink:href="#DejaVuSans-40"/>
      <use transform="translate(102.490234 0.125)" xlink:href="#DejaVuSans-116"/>
      <use transform="translate(141.699219 0.125)" xlink:href="#DejaVuSans-41"/>
     </g>
    </g>
   </g>
  </g>
 </g>
 <defs>
  <clipPath id="p04557da0a3">
   <rect height="182.607708" width="792.56125" x="58.47875" y="12.96"/>
  </clipPath>
  <clipPath id="p917ad64dc4">
   <rect height="182.607708" width="792.56125" x="58.47875" y="215.582396"/>
  </clipPath>
  <clipPath id="p7d689ca582">
   <rect height="182.607708" width="792.56125" x="58.47875" y="418.204792"/>
  </clipPath>
 </defs>
</svg>
